<svg width="712" height="616" fill="none" xmlns="http://www.w3.org/2000/svg"><path d="M382.712 27.793c.086-.217.166-.43.252-.647 1.781-4.547-5.676-7.647-7.887-3.324-.253.492-.477 1.006-.727 1.499C338.275 15.953 301.71 8.366 265.357.168c-3.249-.732-6.107.983-7.199 4.088-39.146 111.28-73.417 224.034-103.119 338.176h-.034c-7.601-21.202-15.201-42.405-22.809-63.605-6.143-17.12-12.257-55.298-25.961-68.828-20.84-20.582-69.253-4.104-96.42-1.556-2.147.2-3.419 1.661-3.862 3.311-.308-.811-.6-1.63-.908-2.441-1.139-3.003-5.913-1.825-4.907 1.354 1.567 4.956 3.166 9.936 4.735 14.9-.977.637-.917 2.517.43 2.928.18.055.368.097.548.152 26.686 84.299 54.05 169.196 85.358 251.767 20.238 53.374 78.086 24.284 125.516 18.337 2.276-.287 4.432-1.418 5.037-3.835 39.704-158.34 98.022-306.542 157.346-457.917 5.332.357 7.747-6.573 3.604-9.206zm-154.343 399.76c-3.603 13.274-4.651 34.318-12.087 46.087-13.689 21.661-32.433 18.872-54.029 21.638-20.686 2.649-41.644 10.974-58.086-8.27-1.428-1.672-2.792-4.209-4.127-7.043 15.467 2.774 31.084 5.092 46.653 7.173 1.663.222 2.067-2.672.399-2.951-16.035-2.681-32.201-5.147-48.348-7.072-2.714-6.507-5.194-14.705-7.415-22.594 16.085 2.25 32.312 3.942 48.483 5.358 2.393.208 2.297-3.395 0-3.685-16.41-2.072-32.946-3.916-49.448-5.105-2.192-7.931-4.109-15.245-5.678-19.714-1.21-3.446-2.417-6.893-3.627-10.34 13.24 1.371 26.516 3.097 39.806 3.767 1.752.089 1.655-2.461 0-2.667-13.433-1.661-27.04-2.24-40.541-3.202-3.609-10.288-7.22-20.579-10.828-30.868 10.189.535 20.243 1.875 30.216 4.232 1.968.464 2.802-2.516.837-3.037-10.573-2.811-21.328-4.175-32.222-4.516-3.201-9.126-6.463-18.228-9.673-27.348 13.232 2.132 26.457 4.385 39.8 5.618 1.87.173 2.285-2.904.444-3.285-13.785-2.863-27.789-4.594-41.732-6.536-3.653-10.364-7.374-20.708-11.048-31.064 13.417 1.108 26.83 2.245 40.286 2.79 2.067.083 1.963-2.923 0-3.152-13.866-1.604-27.778-2.581-41.696-3.611-3.669-10.325-7.39-20.629-11.092-30.941 10.443 2.153 21.51 2.995 32.104 3.733 2.31.162 2.894-3.767.555-4.093-10.906-1.525-22.29-3.139-33.305-3.092-.214.002-.34.143-.517.213-3.079-8.565-6.288-17.083-9.402-25.637 13.7.425 27.312 1.736 40.948 3.121 2.167.219 2.652-3.379.517-3.81-14.22-2.865-28.569-3.665-43.045-3.621-2.852-7.819-5.733-15.631-8.598-23.448 14.397 3.877 29.342 6.597 43.93 9.108 2.443.419 3.538-3.163 1.043-3.786-15.253-3.812-30.964-7.546-46.61-9.788-1.19-3.22-2.334-6.456-3.547-9.668a3.95 3.95 0 002.117.475c48.342-2.496 86.18-6.334 105.127 46.835 11.793 33.092 23.583 66.184 35.397 99.265 1.794 5.025 9.485 5.768 10.964 0 1.501-5.848 3.089-11.673 4.612-17.513 5.673.008 11.347.057 17.023-.029 1.935-.028 1.937-2.975 0-3.006-5.407-.081-10.812-.031-16.217-.026 2.349-8.987 4.797-17.949 7.198-26.921 8.174.071 16.322.444 24.506.749 1.468.055 1.862-2.399.355-2.618-7.963-1.16-16.011-1.288-24.05-1.152 2.595-9.674 5.416-19.281 8.072-28.936 8.615.492 17.391.693 25.993.349 2.558-.102 2.563-3.872 0-3.976-8.294-.331-16.747-.143-25.067.31 2.795-10.129 5.749-20.212 8.599-30.323 11.211 1.734 22.452 3.411 33.741 4.313 2.128.169 2.641-3.387.509-3.76-10.982-1.932-22.095-3.126-33.202-4.25 3.616-12.781 7.337-25.533 11.047-38.288 12.938.714 25.883 1.593 38.844 1.535 2.185-.01 2.115-3.16 0-3.345-12.58-1.103-25.218-1.322-37.84-1.668 2.991-10.25 6.203-20.437 9.274-30.662 10.649.797 21.346 1.491 32.01 1.402 2.3-.018 2.253-3.379 0-3.538-10.353-.73-20.788-.719-31.183-.597 2.824-9.376 5.616-18.762 8.502-28.117 13.845 1.03 27.75 2.281 41.605 2.26 2.902-.005 2.759-4.106 0-4.411-13.336-1.471-26.845-1.765-40.283-2.216.144-.454.269-.91.412-1.364 2.472-7.788 5.022-18.887 7.872-31.144 6.666 1.09 13.326 2.208 20.034 3.009 1.859.221 2.297-2.952.446-3.286-6.55-1.176-13.141-2.033-19.732-2.928 5.817-24.918 12.966-53.807 23.301-70.123 11.254 1.3 22.264 3.65 33.176 6.841 3.04.89 4.284-3.752 1.301-4.722-10.302-3.35-20.796-5.28-31.491-6.16.756-.955 1.473-2.066 2.263-2.882 19.667-20.31 76.749 1.194 106.746 9.115-61.694 123.636-105.252 259.808-141.301 392.609z" fill="#FFB229"/><path d="M282.919 66.086c-12.953-1.09-25.619.034-38.408 2.203-2.485.423-1.387 4.07 1.03 3.74 12.387-1.693 24.889-2.063 37.378-2.259 2.404-.036 2.337-3.486 0-3.684z" fill="#FFB229"/><path d="M223.678 490.68c-.136.189-.265.378-.401.567-2.815 3.99 3.685 8.782 6.865 5.113.363-.418.703-.863 1.064-1.282 32.791 17.718 66.483 33.824 99.824 50.472 2.98 1.487 6.165.504 7.968-2.25 64.605-98.7 124.829-199.996 180.949-303.733l.033.008c2.313 22.405 4.626 44.809 6.947 67.213 1.873 18.092-1.314 56.626 8.76 73.038 15.318 24.966 66.265 20.535 93.255 24.554 2.132.318 3.716-.796 4.541-2.292.105.861.193 1.725.298 2.586.388 3.189 5.306 3.186 5.088-.141-.337-5.187-.699-10.405-1.037-15.601 1.102-.384 1.493-2.223.282-2.946-.161-.096-.334-.181-.495-.277-5.767-88.235-12.049-177.211-22.717-264.871-6.896-56.664-70.02-42.242-117.497-47.802-2.278-.266-4.643.318-5.808 2.52-76.394 144.263-168.439 274.234-262.22 407.045-5.092-1.621-9.093 4.532-5.699 8.079zm245.405-351.292c6.672-12.028 12.718-32.212 22.752-41.863 18.468-17.763 36.002-10.574 57.634-8.099 20.72 2.371 43.06-.704 54.426 21.912.988 1.964 1.706 4.754 2.325 7.825-14.356-6.39-28.967-12.373-43.587-18.114-1.562-.613-2.646 2.101-1.093 2.77 14.93 6.435 30.038 12.693 45.257 18.421 1.08 6.968 1.529 15.52 1.8 23.712-15.08-6.029-30.433-11.55-45.797-16.789-2.274-.775-3.042 2.747-.881 3.577 15.44 5.935 31.056 11.676 46.795 16.774.234 8.226.347 15.786.803 20.5l1.051 10.908c-12.529-4.496-25.008-9.345-37.752-13.171-1.681-.505-2.196 1.994-.638 2.59 12.647 4.822 25.722 8.637 38.601 12.797l3.138 32.561c-9.767-2.954-19.209-6.658-28.329-11.33-1.801-.921-3.323 1.774-1.539 2.75 9.595 5.256 19.712 9.15 30.208 12.085.928 9.626 1.92 19.244 2.857 28.867-12.339-5.233-24.641-10.581-37.304-14.967-1.774-.614-2.912 2.274-1.216 3.084 12.702 6.074 25.886 11.102 38.962 16.32 1.07 10.937 2.211 21.87 3.303 32.804-12.764-4.283-25.515-8.592-38.452-12.337-1.987-.575-2.604 2.369-.753 3.061 13.081 4.871 26.357 9.145 39.625 13.471 1.095 10.903 2.245 21.797 3.376 32.695-9.625-4.586-20.171-8.049-30.281-11.297-2.205-.709-3.711 2.966-1.518 3.842 10.226 4.087 20.894 8.375 31.602 10.962.208.049.363-.058.552-.084.943 9.052 2.024 18.091 3.003 27.141-13.201-3.686-26.106-8.213-39.016-12.816-2.051-.73-3.382 2.648-1.411 3.576 13.123 6.18 26.864 10.387 40.931 13.803.901 8.274 1.832 16.548 2.746 24.823-13.054-7.205-26.916-13.418-40.481-19.342-2.272-.991-4.191 2.226-1.917 3.427 13.899 7.347 28.263 14.727 42.921 20.643.385 3.411.723 6.827 1.132 10.236a3.939 3.939 0 00-1.942-.967c-47.538-9.13-85.196-14.446-90.888-70.602-3.543-34.951-7.083-69.902-10.648-104.848-.541-5.307-7.832-7.867-10.646-2.62-2.856 5.32-5.79 10.596-8.664 15.903-5.508-1.363-11.005-2.767-16.537-4.04-1.885-.435-2.592 2.426-.718 2.919 5.231 1.371 10.491 2.614 15.741 3.901-4.429 8.166-8.948 16.282-13.424 24.42-7.92-2.022-15.743-4.331-23.617-6.583-1.412-.404-2.381 1.884-.97 2.457 7.455 3.03 15.24 5.077 23.078 6.867-4.831 8.773-9.867 17.428-14.754 26.168-8.247-2.537-16.721-4.829-25.156-6.551-2.508-.512-3.414 3.147-.95 3.861 7.975 2.304 16.227 4.141 24.415 5.689-5.135 9.168-10.413 18.252-15.597 27.39-10.472-4.363-20.986-8.677-31.733-12.251-2.025-.674-3.374 2.657-1.392 3.529 10.202 4.5 20.707 8.316 31.224 12.061-6.566 11.547-13.226 23.04-19.877 34.539-12.392-3.786-24.752-7.732-37.352-10.774-2.124-.512-2.808 2.563-.799 3.248 11.952 4.077 24.171 7.31 36.345 10.663-5.354 9.238-10.907 18.362-16.333 27.558-10.15-3.32-20.372-6.55-30.748-9.012-2.237-.532-2.995 2.742-.845 3.435 9.879 3.183 20.014 5.667 30.137 8.032-4.983 8.43-9.937 16.877-14.976 25.271-13.197-4.309-26.4-8.847-39.859-12.138-2.819-.688-3.66 3.328-1.054 4.284 12.599 4.615 25.645 8.129 38.586 11.779-.248.406-.478.819-.726 1.225-4.261 6.972-9.39 17.14-15.086 28.361-6.213-2.652-12.412-5.329-18.735-7.71-1.752-.659-2.936 2.317-1.218 3.084 6.079 2.707 12.274 5.115 18.46 7.559-11.603 22.806-25.449 49.149-39.384 62.523-10.616-3.953-20.747-8.865-30.579-14.572-2.74-1.59-5.057 2.62-2.392 4.274 9.202 5.715 18.931 10.097 29.106 13.509-.962.745-1.924 1.653-2.886 2.256-23.951 15.023-74.239-19.501-101.474-34.361 89.453-105.31 164.291-227.127 231.032-347.464z" fill="#000"/><path d="M311.729 483.345c12.318 4.153 24.886 6.089 37.822 7.039 2.514.184 2.32-3.62-.106-3.877-12.433-1.317-24.661-3.945-36.835-6.74-2.343-.539-3.102 2.827-.881 3.578z" fill="#000"/></svg>