<svg width="1900" height="350" viewBox="0 0 1900 350" fill="none" xmlns="http://www.w3.org/2000/svg">
<rect width="1900" height="350" fill="#FAFAFA"/>
<path d="M338.887 265.056C327.089 265.056 316.639 263.034 307.537 258.989C298.436 254.944 290.767 249.466 284.531 242.555C278.294 235.645 273.491 227.892 270.12 219.296C266.918 210.7 265.316 201.851 265.316 192.75V187.694C265.316 178.255 266.918 169.238 270.12 160.642C273.491 151.877 278.21 144.124 284.278 137.382C290.514 130.64 298.099 125.331 307.032 121.455C315.965 117.41 326.077 115.387 337.37 115.387C352.371 115.387 365.096 118.758 375.546 125.5C385.996 132.242 394.002 141.175 399.564 152.299C405.126 163.254 407.907 175.221 407.907 188.199V202.863H284.531V178.086H381.361L365.433 189.21C365.433 181.289 364.337 174.631 362.146 169.238C360.124 163.676 357.006 159.462 352.792 156.597C348.747 153.731 343.606 152.299 337.37 152.299C331.302 152.299 325.993 153.731 321.442 156.597C317.06 159.293 313.689 163.507 311.33 169.238C308.97 174.8 307.79 181.879 307.79 190.475C307.79 198.228 308.886 204.97 311.077 210.7C313.268 216.262 316.639 220.56 321.19 223.594C325.74 226.628 331.639 228.145 338.887 228.145C345.292 228.145 350.517 227.049 354.562 224.858C358.775 222.667 361.725 219.717 363.41 216.009H405.379C403.356 225.448 399.311 233.875 393.243 241.291C387.344 248.707 379.759 254.522 370.489 258.736C361.388 262.95 350.854 265.056 338.887 265.056ZM432.16 260V120.443H468.566V180.615H466.543C466.543 166.12 468.313 154.153 471.852 144.714C475.56 135.107 480.954 127.944 488.033 123.224C495.112 118.337 503.792 115.893 514.073 115.893H516.096C526.546 115.893 535.226 118.337 542.136 123.224C549.215 127.944 554.525 135.107 558.064 144.714C561.772 154.153 563.626 166.12 563.626 180.615H553.008C553.008 166.12 554.777 154.153 558.317 144.714C562.025 135.107 567.418 127.944 574.497 123.224C581.576 118.337 590.256 115.893 600.538 115.893H602.56C613.01 115.893 621.775 118.337 628.854 123.224C636.101 127.944 641.579 135.107 645.287 144.714C649.163 154.153 651.102 166.12 651.102 180.615V260H605.089V179.35C605.089 172.946 603.319 167.636 599.779 163.423C596.408 159.041 591.52 156.849 585.116 156.849C578.711 156.849 573.655 159.041 569.947 163.423C566.407 167.636 564.637 173.114 564.637 179.856V260H518.624V179.35C518.624 172.946 516.854 167.636 513.315 163.423C509.944 159.041 505.056 156.849 498.651 156.849C492.247 156.849 487.19 159.041 483.482 163.423C479.943 167.636 478.173 173.114 478.173 179.856V260H432.16ZM682.017 310.564V120.443H718.423V180.615H714.378C714.883 166.962 717.58 155.333 722.468 145.725C727.524 136.118 734.351 128.871 742.946 123.983C751.542 118.926 761.402 116.398 772.526 116.398C782.134 116.398 790.814 118.168 798.567 121.708C806.32 125.078 812.978 129.966 818.54 136.371C824.102 142.607 828.315 150.023 831.181 158.619C834.214 167.215 835.731 176.654 835.731 186.935V193.003C835.731 203.284 834.383 212.807 831.686 221.571C828.989 230.167 824.944 237.752 819.551 244.325C814.157 250.73 807.5 255.702 799.578 259.242C791.825 262.781 782.892 264.551 772.779 264.551C761.992 264.551 752.469 262.444 744.211 258.23C735.952 253.848 729.378 247.359 724.491 238.763C719.771 229.999 717.243 219.043 716.906 205.897L728.03 219.549V310.564H682.017ZM758.874 226.628C764.942 226.628 770.251 225.111 774.802 222.077C779.521 218.875 783.145 214.492 785.673 208.93C788.37 203.368 789.718 197.048 789.718 189.969C789.718 182.721 788.37 176.485 785.673 171.26C783.145 165.867 779.605 161.737 775.055 158.872C770.504 155.838 765.11 154.321 758.874 154.321C753.312 154.321 748.087 155.585 743.199 158.114C738.48 160.642 734.603 164.35 731.57 169.238C728.536 174.126 727.019 180.025 727.019 186.935V195.531C727.019 202.104 728.62 207.751 731.822 212.47C735.025 217.021 739.07 220.56 743.958 223.088C748.846 225.448 753.818 226.628 758.874 226.628ZM945.457 260V219.043H937.873V175.305C937.873 168.901 936.356 164.181 933.322 161.147C930.456 157.945 925.653 156.344 918.911 156.344C915.709 156.344 910.989 156.428 904.753 156.597C898.517 156.765 891.944 157.018 885.033 157.355C878.123 157.692 871.802 158.029 866.072 158.366V119.938C870.117 119.601 874.92 119.264 880.482 118.926C886.044 118.589 891.775 118.337 897.674 118.168C903.742 117.999 909.304 117.915 914.36 117.915C928.687 117.915 940.822 120.022 950.766 124.236C960.879 128.449 968.548 134.77 973.773 143.197C979.166 151.625 981.863 162.327 981.863 175.305V260H945.457ZM901.214 263.539C891.438 263.539 882.758 261.77 875.173 258.23C867.589 254.691 861.605 249.634 857.223 243.061C853.009 236.319 850.902 228.313 850.902 219.043C850.902 208.593 853.683 200.166 859.246 193.761C864.808 187.188 872.476 182.384 882.252 179.35C892.028 176.317 903.236 174.8 915.877 174.8H942.929V198.565H915.877C909.641 198.565 904.837 200.166 901.466 203.368C898.096 206.402 896.41 210.532 896.41 215.757C896.41 220.813 898.096 224.942 901.466 228.145C904.837 231.179 909.641 232.695 915.877 232.695C919.922 232.695 923.462 232.021 926.496 230.673C929.698 229.156 932.31 226.628 934.333 223.088C936.356 219.549 937.535 214.661 937.873 208.425L948.491 218.538C947.648 228.145 945.289 236.319 941.412 243.061C937.704 249.634 932.479 254.691 925.737 258.23C919.164 261.77 910.989 263.539 901.214 263.539ZM1079.1 262.023C1063.93 262.023 1051.8 260.169 1042.69 256.461C1033.76 252.752 1027.27 246.601 1023.23 238.005C1019.18 229.409 1017.16 217.779 1017.16 203.116L1017.41 84.0373H1059.89L1059.63 204.38C1059.63 210.616 1061.23 215.419 1064.44 218.79C1067.81 221.993 1072.61 223.594 1078.85 223.594H1098.06V262.023H1079.1ZM996.934 153.816V120.443H1098.06V153.816H996.934ZM1122.72 260V75.4415H1168.74V180.615H1162.67C1162.67 166.457 1164.44 154.574 1167.98 144.967C1171.52 135.36 1176.66 128.112 1183.4 123.224C1190.31 118.337 1198.82 115.893 1208.93 115.893H1210.96C1226.13 115.893 1237.67 121.37 1245.59 132.326C1253.68 143.281 1257.73 159.378 1257.73 180.615V260H1211.72V178.845C1211.72 172.44 1209.78 167.215 1205.9 163.17C1202.02 158.956 1196.88 156.849 1190.48 156.849C1184.07 156.849 1178.85 158.956 1174.8 163.17C1170.76 167.215 1168.74 172.609 1168.74 179.35V260H1122.72ZM1295.21 260V120.443H1341.22V260H1295.21ZM1277.51 153.816V120.443H1341.22V153.816H1277.51ZM1314.17 109.319C1305.74 109.319 1299.51 107.213 1295.46 102.999C1291.59 98.6166 1289.65 93.0546 1289.65 86.3127C1289.65 79.5709 1291.59 74.0931 1295.46 69.8794C1299.51 65.4972 1305.66 63.3061 1313.92 63.3061C1322.35 63.3061 1328.5 65.4972 1332.37 69.8794C1336.25 74.0931 1338.19 79.5709 1338.19 86.3127C1338.19 93.0546 1336.25 98.6166 1332.37 102.999C1328.5 107.213 1322.43 109.319 1314.17 109.319ZM1365.95 260V231.431L1427.89 156.849V160.895L1421.32 152.804L1426.37 155.333H1366.45V120.443H1479.72V149.012L1417.78 223.594V219.549L1424.35 227.639L1419.29 225.111H1481.23V260H1365.95ZM1566.69 265.056C1554.89 265.056 1544.44 263.034 1535.34 258.989C1526.24 254.944 1518.57 249.466 1512.34 242.555C1506.1 235.645 1501.3 227.892 1497.93 219.296C1494.72 210.7 1493.12 201.851 1493.12 192.75V187.694C1493.12 178.255 1494.72 169.238 1497.93 160.642C1501.3 151.877 1506.02 144.124 1512.08 137.382C1518.32 130.64 1525.9 125.331 1534.84 121.455C1543.77 117.41 1553.88 115.387 1565.18 115.387C1580.18 115.387 1592.9 118.758 1603.35 125.5C1613.8 132.242 1621.81 141.175 1627.37 152.299C1632.93 163.254 1635.71 175.221 1635.71 188.199V202.863H1512.34V178.086H1609.17L1593.24 189.21C1593.24 181.289 1592.14 174.631 1589.95 169.238C1587.93 163.676 1584.81 159.462 1580.6 156.597C1576.55 153.731 1571.41 152.299 1565.18 152.299C1559.11 152.299 1553.8 153.731 1549.25 156.597C1544.87 159.293 1541.5 163.507 1539.14 169.238C1536.78 174.8 1535.6 181.879 1535.6 190.475C1535.6 198.228 1536.69 204.97 1538.88 210.7C1541.07 216.262 1544.44 220.56 1549 223.594C1553.55 226.628 1559.45 228.145 1566.69 228.145C1573.1 228.145 1578.32 227.049 1582.37 224.858C1586.58 222.667 1589.53 219.717 1591.22 216.009H1633.18C1631.16 225.448 1627.12 233.875 1621.05 241.291C1615.15 248.707 1607.57 254.522 1598.3 258.736C1589.19 262.95 1578.66 265.056 1566.69 265.056Z" fill="#E1E1E1"/>
</svg>
