<svg width="1900" height="350" viewBox="0 0 1900 350" fill="none" xmlns="http://www.w3.org/2000/svg">
<rect width="1900" height="350" fill="#FAFAFA"/>
<path d="M200.173 61.389V68.4827H197.581C196.398 68.4827 195.444 68.6419 194.716 68.9602C194.034 69.2785 193.511 69.8924 193.147 70.8018C192.829 71.6658 192.67 72.9163 192.67 74.5533V79.5326L190.419 74.8944C190.737 74.6215 191.215 74.3942 191.851 74.2123C192.488 73.9849 193.193 73.8712 193.966 73.8712C195.694 73.8712 197.126 74.3942 198.263 75.4401C199.445 76.4859 200.036 77.9638 200.036 79.8736C200.036 81.6471 199.468 83.1704 198.331 84.4436C197.24 85.7169 195.603 86.3535 193.42 86.3535C192.01 86.3535 190.714 86.0352 189.532 85.3985C188.395 84.7165 187.463 83.6251 186.736 82.1245C186.053 80.5785 185.712 78.5094 185.712 75.9175V75.0308C185.712 71.8477 186.19 69.2558 187.145 67.255C188.1 65.2542 189.509 63.7763 191.374 62.8214C193.238 61.8665 195.557 61.389 198.331 61.389H200.173ZM183.257 61.389V68.4827H180.665C179.483 68.4827 178.528 68.6419 177.8 68.9602C177.118 69.2785 176.595 69.8924 176.231 70.8018C175.913 71.6658 175.754 72.9163 175.754 74.5533V79.5326L173.503 74.8944C173.821 74.6215 174.299 74.3942 174.935 74.2123C175.572 73.9849 176.277 73.8712 177.05 73.8712C178.778 73.8712 180.21 74.3942 181.347 75.4401C182.529 76.4859 183.12 77.9638 183.12 79.8736C183.12 81.6471 182.552 83.1704 181.415 84.4436C180.324 85.7169 178.687 86.3535 176.504 86.3535C175.095 86.3535 173.799 86.0352 172.616 85.3985C171.48 84.7165 170.547 83.6251 169.82 82.1245C169.138 80.5785 168.797 78.5094 168.797 75.9175V75.0308C168.797 71.8477 169.274 69.2558 170.229 67.255C171.184 65.2542 172.594 63.7763 174.458 62.8214C176.322 61.8665 178.641 61.389 181.415 61.389H183.257ZM239.35 112V62.2075H252.036V112H239.35ZM207.701 112V62.2075H220.388V112H207.701ZM218.205 92.4241V81.3742H241.532V92.4241H218.205ZM280.333 113.364C277.014 113.364 274.058 112.864 271.466 111.864C268.874 110.863 266.669 109.476 264.85 107.703C263.076 105.929 261.712 103.883 260.757 101.564C259.848 99.2449 259.393 96.7667 259.393 94.1293V92.4923C259.393 89.7639 259.87 87.2174 260.825 84.8529C261.826 82.4883 263.235 80.4193 265.054 78.6459C266.873 76.8724 269.079 75.4855 271.671 74.4851C274.262 73.4847 277.15 72.9845 280.333 72.9845C283.562 72.9845 286.449 73.4847 288.996 74.4851C291.587 75.4855 293.793 76.8724 295.612 78.6459C297.431 80.4193 298.818 82.4883 299.773 84.8529C300.773 87.2174 301.273 89.7639 301.273 92.4923V94.1293C301.273 96.7667 300.796 99.2449 299.841 101.564C298.931 103.883 297.567 105.929 295.748 107.703C293.975 109.476 291.792 110.863 289.2 111.864C286.608 112.864 283.653 113.364 280.333 113.364ZM280.333 102.996C282.243 102.996 283.812 102.587 285.039 101.769C286.313 100.95 287.268 99.8134 287.904 98.3582C288.541 96.8576 288.859 95.1751 288.859 93.3108C288.859 91.3555 288.518 89.6502 287.836 88.1951C287.199 86.6945 286.244 85.5122 284.971 84.6482C283.698 83.7843 282.152 83.3523 280.333 83.3523C278.514 83.3523 276.968 83.7843 275.695 84.6482C274.422 85.5122 273.444 86.6945 272.762 88.1951C272.125 89.6502 271.807 91.3555 271.807 93.3108C271.807 95.1751 272.125 96.8576 272.762 98.3582C273.398 99.8134 274.353 100.95 275.627 101.769C276.9 102.587 278.469 102.996 280.333 102.996ZM321.87 112L328.555 75.5765H341.514L349.154 112H339.741L331.829 75.8493H337.558L330.328 112H321.87ZM319.551 112L319.483 101.632H326.986L327.054 112H319.551ZM313.48 112L303.59 74.3487H315.731L324.871 112H313.48ZM343.083 112L343.151 101.632H350.654L350.586 112H343.083ZM346.084 112L354.338 74.3487H365.66L356.657 112H346.084ZM385.604 112V74.3487H395.426V90.5824H394.88C394.88 86.6718 395.358 83.4432 396.313 80.8968C397.313 78.3048 398.768 76.3722 400.678 75.099C402.588 73.7803 404.93 73.1209 407.703 73.1209H408.249C411.068 73.1209 413.41 73.7803 415.275 75.099C417.185 76.3722 418.617 78.3048 419.572 80.8968C420.572 83.4432 421.072 86.6718 421.072 90.5824H418.208C418.208 86.6718 418.685 83.4432 419.64 80.8968C420.64 78.3048 422.096 76.3722 424.005 75.099C425.915 73.7803 428.257 73.1209 431.031 73.1209H431.577C434.396 73.1209 436.76 73.7803 438.67 75.099C440.626 76.3722 442.103 78.3048 443.104 80.8968C444.15 83.4432 444.673 86.6718 444.673 90.5824V112H432.259V90.2414C432.259 88.5134 431.781 87.081 430.826 85.9442C429.917 84.7619 428.598 84.1708 426.87 84.1708C425.142 84.1708 423.778 84.7619 422.778 85.9442C421.823 87.081 421.345 88.5589 421.345 90.3778V112H408.931V90.2414C408.931 88.5134 408.454 87.081 407.499 85.9442C406.589 84.7619 405.271 84.1708 403.543 84.1708C401.815 84.1708 400.451 84.7619 399.45 85.9442C398.495 87.081 398.018 88.5589 398.018 90.3778V112H385.604ZM454.787 112V74.3487H467.201V112H454.787ZM450.012 83.3523V74.3487H467.201V83.3523H450.012ZM459.902 71.3475C457.629 71.3475 455.946 70.7791 454.855 69.6423C453.809 68.46 453.286 66.9594 453.286 65.1405C453.286 63.3216 453.809 61.8438 454.855 60.7069C455.946 59.5247 457.606 58.9335 459.834 58.9335C462.108 58.9335 463.768 59.5247 464.813 60.7069C465.859 61.8438 466.382 63.3216 466.382 65.1405C466.382 66.9594 465.859 68.46 464.813 69.6423C463.768 70.7791 462.131 71.3475 459.902 71.3475ZM491.401 127.074C489.537 127.074 487.604 127.006 485.603 126.87C483.648 126.733 481.875 126.551 480.283 126.324V115.956C481.875 116.138 483.648 116.297 485.603 116.434C487.559 116.615 489.355 116.706 490.992 116.706C493.811 116.706 496.107 116.411 497.881 115.82C499.7 115.229 501.041 114.319 501.905 113.091C502.769 111.864 503.201 110.295 503.201 108.385V100.746L505.111 96.653C505.02 99.8361 504.406 102.61 503.269 104.974C502.133 107.294 500.496 109.09 498.358 110.363C496.267 111.636 493.72 112.273 490.719 112.273C488.173 112.273 485.876 111.818 483.83 110.909C481.784 109.999 480.033 108.726 478.578 107.089C477.168 105.406 476.077 103.428 475.304 101.155C474.531 98.8812 474.144 96.4029 474.144 93.72V92.083C474.144 89.4001 474.553 86.9219 475.372 84.6482C476.191 82.3291 477.373 80.3284 478.919 78.6459C480.465 76.9179 482.284 75.5992 484.376 74.6898C486.513 73.7348 488.877 73.2574 491.469 73.2574C494.47 73.2574 497.062 73.9395 499.245 75.3036C501.428 76.6223 503.133 78.5549 504.361 81.1014C505.589 83.6479 506.248 86.74 506.339 90.3778L504.975 90.8553V74.3487H514.797V107.566C514.797 112.205 513.933 115.956 512.205 118.821C510.477 121.686 507.862 123.777 504.361 125.096C500.905 126.415 496.585 127.074 491.401 127.074ZM494.88 102.042C496.38 102.042 497.722 101.7 498.904 101.018C500.132 100.336 501.109 99.3586 501.837 98.0854C502.565 96.7667 502.928 95.1979 502.928 93.379V91.742C502.928 89.9685 502.542 88.4679 501.769 87.2402C501.041 86.0124 500.064 85.0802 498.836 84.4436C497.608 83.807 496.289 83.4887 494.88 83.4887C493.243 83.4887 491.788 83.8752 490.514 84.6482C489.287 85.4213 488.309 86.5126 487.581 87.9223C486.899 89.3319 486.558 90.9917 486.558 92.9015C486.558 94.8114 486.899 96.4484 487.581 97.8126C488.309 99.1767 489.287 100.223 490.514 100.95C491.788 101.678 493.243 102.042 494.88 102.042ZM523.42 112V62.2075H535.834V90.5824H534.197C534.197 86.7627 534.675 83.5569 535.63 80.965C536.585 78.373 537.972 76.4177 539.79 75.099C541.655 73.7803 543.951 73.1209 546.68 73.1209H547.225C551.318 73.1209 554.433 74.5988 556.57 77.5545C558.753 80.5102 559.844 84.8529 559.844 90.5824V112H547.43V90.105C547.43 88.377 546.907 86.9673 545.861 85.876C544.815 84.7392 543.428 84.1708 541.7 84.1708C539.972 84.1708 538.563 84.7392 537.471 85.876C536.38 86.9673 535.834 88.4225 535.834 90.2414V112H523.42ZM586.121 112.546C582.029 112.546 578.755 112.045 576.299 111.045C573.889 110.045 572.139 108.385 571.047 106.066C569.956 103.747 569.41 100.609 569.41 96.653L569.478 64.5266H580.937L580.869 96.9941C580.869 98.6765 581.301 99.9725 582.165 100.882C583.075 101.746 584.371 102.178 586.053 102.178H591.237V112.546H586.121ZM563.953 83.3523V74.3487H591.237V83.3523H563.953ZM626.545 112L633.23 75.5765H646.189L653.829 112H644.416L636.504 75.8493H642.233L635.003 112H626.545ZM624.226 112L624.158 101.632H631.661L631.729 112H624.226ZM618.156 112L608.265 74.3487H620.406L629.546 112H618.156ZM647.758 112L647.826 101.632H655.329L655.261 112H647.758ZM650.759 112L659.013 74.3487H670.335L661.332 112H650.759ZM693.091 113.364C689.908 113.364 687.089 112.819 684.633 111.727C682.177 110.636 680.108 109.158 678.426 107.294C676.744 105.429 675.448 103.337 674.538 101.018C673.674 98.6993 673.242 96.312 673.242 93.8564V92.4923C673.242 89.9458 673.674 87.513 674.538 85.1939C675.448 82.8293 676.721 80.7376 678.358 78.9187C680.04 77.0998 682.087 75.6674 684.497 74.6215C686.907 73.5302 689.635 72.9845 692.682 72.9845C696.729 72.9845 700.162 73.894 702.981 75.7129C705.8 77.5318 707.96 79.9418 709.461 82.943C710.962 85.8987 711.712 89.1273 711.712 92.6287V96.5848H678.426V89.9003H704.55L700.253 92.9015C700.253 90.7643 699.957 88.9681 699.366 87.513C698.82 86.0124 697.979 84.8756 696.842 84.1026C695.751 83.3295 694.364 82.943 692.682 82.943C691.045 82.943 689.612 83.3295 688.385 84.1026C687.202 84.8301 686.293 85.967 685.656 87.513C685.02 89.0136 684.701 90.9235 684.701 93.2426C684.701 95.3343 684.997 97.1532 685.588 98.6993C686.179 100.2 687.089 101.359 688.316 102.178C689.544 102.996 691.136 103.406 693.091 103.406C694.819 103.406 696.229 103.11 697.32 102.519C698.457 101.928 699.252 101.132 699.707 100.132H711.03C710.484 102.678 709.393 104.952 707.756 106.953C706.164 108.953 704.118 110.522 701.617 111.659C699.162 112.796 696.319 113.364 693.091 113.364ZM747.66 113.228C745.023 113.228 742.613 112.75 740.43 111.795C738.293 110.84 736.428 109.522 734.837 107.839C733.291 106.111 732.086 104.088 731.222 101.769C730.403 99.4496 729.994 96.9258 729.994 94.1975V92.5605C729.994 89.8321 730.381 87.3084 731.154 84.9893C731.972 82.6247 733.132 80.5785 734.632 78.8505C736.133 77.0771 737.952 75.7129 740.089 74.758C742.226 73.7576 744.613 73.2574 747.251 73.2574C750.298 73.2574 752.889 73.9395 755.027 75.3036C757.209 76.6223 758.869 78.5549 760.006 81.1014C761.188 83.6479 761.825 86.74 761.916 90.3778L759.051 88.2633V62.2075H771.465V112H761.643V96.7212H763.007C762.916 100.086 762.234 103.019 760.961 105.52C759.688 107.976 757.914 109.886 755.641 111.25C753.412 112.568 750.752 113.228 747.66 113.228ZM751.002 102.996C752.503 102.996 753.867 102.655 755.095 101.973C756.368 101.291 757.391 100.291 758.164 98.9721C758.937 97.6534 759.324 96.0619 759.324 94.1975V91.8784C759.324 90.0595 758.915 88.5362 758.096 87.3084C757.323 86.0806 756.3 85.1484 755.027 84.5118C753.799 83.8297 752.457 83.4887 751.002 83.4887C749.365 83.4887 747.887 83.9207 746.569 84.7847C745.296 85.6032 744.272 86.7627 743.499 88.2633C742.772 89.7184 742.408 91.4237 742.408 93.379C742.408 95.3343 742.772 97.0395 743.499 98.4946C744.272 99.9043 745.296 101.018 746.569 101.837C747.887 102.61 749.365 102.996 751.002 102.996ZM798.135 113.364C794.952 113.364 792.133 112.819 789.677 111.727C787.222 110.636 785.153 109.158 783.47 107.294C781.788 105.429 780.492 103.337 779.582 101.018C778.718 98.6993 778.286 96.312 778.286 93.8564V92.4923C778.286 89.9458 778.718 87.513 779.582 85.1939C780.492 82.8293 781.765 80.7376 783.402 78.9187C785.085 77.0998 787.131 75.6674 789.541 74.6215C791.951 73.5302 794.679 72.9845 797.726 72.9845C801.773 72.9845 805.206 73.894 808.026 75.7129C810.845 77.5318 813.005 79.9418 814.505 82.943C816.006 85.8987 816.756 89.1273 816.756 92.6287V96.5848H783.47V89.9003H809.594L805.297 92.9015C805.297 90.7643 805.002 88.9681 804.41 87.513C803.865 86.0124 803.024 84.8756 801.887 84.1026C800.795 83.3295 799.408 82.943 797.726 82.943C796.089 82.943 794.657 83.3295 793.429 84.1026C792.247 84.8301 791.337 85.967 790.7 87.513C790.064 89.0136 789.746 90.9235 789.746 93.2426C789.746 95.3343 790.041 97.1532 790.632 98.6993C791.223 100.2 792.133 101.359 793.361 102.178C794.588 102.996 796.18 103.406 798.135 103.406C799.863 103.406 801.273 103.11 802.364 102.519C803.501 101.928 804.297 101.132 804.751 100.132H816.074C815.528 102.678 814.437 104.952 812.8 106.953C811.209 108.953 809.162 110.522 806.661 111.659C804.206 112.796 801.364 113.364 798.135 113.364ZM838.237 113.228C832.781 113.228 828.483 112.114 825.346 109.886C822.208 107.612 820.526 104.429 820.298 100.336H831.212C831.394 101.473 832.098 102.451 833.326 103.269C834.554 104.088 836.282 104.497 838.51 104.497C840.102 104.497 841.466 104.27 842.603 103.815C843.785 103.315 844.376 102.519 844.376 101.428C844.376 100.473 843.921 99.6997 843.012 99.1085C842.102 98.4719 840.443 98.0399 838.033 97.8126L835.441 97.5397C830.621 97.0395 827.074 95.7208 824.8 93.5836C822.526 91.4464 821.39 88.7635 821.39 85.535C821.39 82.7611 822.072 80.4875 823.436 78.7141C824.8 76.8952 826.687 75.531 829.097 74.6215C831.507 73.7121 834.258 73.2574 837.351 73.2574C842.398 73.2574 846.468 74.3714 849.56 76.5996C852.652 78.7823 854.289 81.9426 854.471 86.0806H843.558C843.376 84.9438 842.762 83.9889 841.716 83.2159C840.67 82.3974 839.169 81.9881 837.214 81.9881C835.804 81.9881 834.645 82.2382 833.735 82.7384C832.871 83.2386 832.44 83.9434 832.44 84.8529C832.44 85.8078 832.849 86.5126 833.667 86.9673C834.531 87.4221 835.895 87.7631 837.76 87.9905L840.352 88.2633C845.172 88.7635 848.878 90.105 851.47 92.2876C854.107 94.4249 855.426 97.2442 855.426 100.746C855.426 103.337 854.721 105.566 853.311 107.43C851.947 109.294 849.969 110.727 847.377 111.727C844.831 112.728 841.784 113.228 838.237 113.228ZM863.374 112V74.3487H875.788V112H863.374ZM858.599 83.3523V74.3487H875.788V83.3523H858.599ZM868.489 71.3475C866.216 71.3475 864.533 70.7791 863.442 69.6423C862.396 68.46 861.873 66.9594 861.873 65.1405C861.873 63.3216 862.396 61.8438 863.442 60.7069C864.533 59.5247 866.193 58.9335 868.421 58.9335C870.695 58.9335 872.355 59.5247 873.4 60.7069C874.446 61.8438 874.969 63.3216 874.969 65.1405C874.969 66.9594 874.446 68.46 873.4 69.6423C872.355 70.7791 870.718 71.3475 868.489 71.3475ZM899.988 127.074C898.124 127.074 896.191 127.006 894.19 126.87C892.235 126.733 890.462 126.551 888.87 126.324V115.956C890.462 116.138 892.235 116.297 894.19 116.434C896.146 116.615 897.942 116.706 899.579 116.706C902.398 116.706 904.695 116.411 906.468 115.82C908.287 115.229 909.628 114.319 910.492 113.091C911.356 111.864 911.788 110.295 911.788 108.385V100.746L913.698 96.653C913.607 99.8361 912.993 102.61 911.856 104.974C910.72 107.294 909.083 109.09 906.945 110.363C904.854 111.636 902.307 112.273 899.306 112.273C896.76 112.273 894.463 111.818 892.417 110.909C890.371 109.999 888.62 108.726 887.165 107.089C885.755 105.406 884.664 103.428 883.891 101.155C883.118 98.8812 882.731 96.4029 882.731 93.72V92.083C882.731 89.4001 883.141 86.9219 883.959 84.6482C884.778 82.3291 885.96 80.3284 887.506 78.6459C889.052 76.9179 890.871 75.5992 892.963 74.6898C895.1 73.7348 897.464 73.2574 900.056 73.2574C903.058 73.2574 905.649 73.9395 907.832 75.3036C910.015 76.6223 911.72 78.5549 912.948 81.1014C914.176 83.6479 914.835 86.74 914.926 90.3778L913.562 90.8553V74.3487H923.384V107.566C923.384 112.205 922.52 115.956 920.792 118.821C919.064 121.686 916.449 123.777 912.948 125.096C909.492 126.415 905.172 127.074 899.988 127.074ZM903.467 102.042C904.967 102.042 906.309 101.7 907.491 101.018C908.719 100.336 909.697 99.3586 910.424 98.0854C911.152 96.7667 911.515 95.1979 911.515 93.379V91.742C911.515 89.9685 911.129 88.4679 910.356 87.2402C909.628 86.0124 908.651 85.0802 907.423 84.4436C906.195 83.807 904.876 83.4887 903.467 83.4887C901.83 83.4887 900.375 83.8752 899.101 84.6482C897.874 85.4213 896.896 86.5126 896.168 87.9223C895.486 89.3319 895.145 90.9917 895.145 92.9015C895.145 94.8114 895.486 96.4484 896.168 97.8126C896.896 99.1767 897.874 100.223 899.101 100.95C900.375 101.678 901.83 102.042 903.467 102.042ZM932.007 112V74.3487H941.829V90.5142H941.284C941.284 86.6036 941.784 83.375 942.784 80.8286C943.785 78.2366 945.263 76.304 947.218 75.0308C949.219 73.7576 951.629 73.1209 954.448 73.1209H954.994C959.268 73.1209 962.565 74.5533 964.884 77.4181C967.249 80.2374 968.431 84.58 968.431 90.446V112H956.017V90.105C956.017 88.377 955.494 86.9673 954.448 85.876C953.448 84.7392 952.061 84.1708 950.287 84.1708C948.514 84.1708 947.081 84.7392 945.99 85.876C944.944 86.9673 944.421 88.4225 944.421 90.2414V112H932.007ZM1013.47 112V100.95H1011.43V89.15C1011.43 87.4221 1011.02 86.1488 1010.2 85.3303C1009.43 84.4664 1008.13 84.0344 1006.31 84.0344C1005.45 84.0344 1004.17 84.0571 1002.49 84.1026C1000.81 84.148 999.035 84.2163 997.171 84.3072C995.306 84.3981 993.601 84.4891 992.055 84.58V74.2123C993.146 74.1213 994.442 74.0304 995.943 73.9395C997.444 73.8485 998.99 73.7803 1000.58 73.7348C1002.22 73.6894 1003.72 73.6666 1005.08 73.6666C1008.95 73.6666 1012.22 74.235 1014.91 75.3718C1017.63 76.5087 1019.7 78.2139 1021.11 80.4875C1022.57 82.7611 1023.29 85.6486 1023.29 89.15V112H1013.47ZM1001.54 112.955C998.899 112.955 996.557 112.477 994.511 111.523C992.464 110.568 990.85 109.203 989.668 107.43C988.531 105.611 987.963 103.451 987.963 100.95C987.963 98.1309 988.713 95.8572 990.213 94.1293C991.714 92.3558 993.783 91.0599 996.42 90.2414C999.058 89.4229 1002.08 89.0136 1005.49 89.0136H1012.79V95.4252H1005.49C1003.81 95.4252 1002.51 95.8572 1001.6 96.7212C1000.69 97.5397 1000.24 98.6538 1000.24 100.063C1000.24 101.428 1000.69 102.542 1001.6 103.406C1002.51 104.224 1003.81 104.633 1005.49 104.633C1006.58 104.633 1007.54 104.452 1008.36 104.088C1009.22 103.679 1009.93 102.996 1010.47 102.042C1011.02 101.087 1011.34 99.7679 1011.43 98.0854L1014.29 100.814C1014.06 103.406 1013.43 105.611 1012.38 107.43C1011.38 109.203 1009.97 110.568 1008.15 111.523C1006.38 112.477 1004.17 112.955 1001.54 112.955ZM1060.24 112L1066.93 75.5765H1079.89L1087.53 112H1078.11L1070.2 75.8493H1075.93L1068.7 112H1060.24ZM1057.93 112L1057.86 101.632H1065.36L1065.43 112H1057.93ZM1051.85 112L1041.96 74.3487H1054.11L1063.25 112H1051.85ZM1081.46 112L1081.53 101.632H1089.03L1088.96 112H1081.46ZM1084.46 112L1092.71 74.3487H1104.03L1095.03 112H1084.46ZM1126.79 113.364C1123.61 113.364 1120.79 112.819 1118.33 111.727C1115.88 110.636 1113.81 109.158 1112.13 107.294C1110.44 105.429 1109.15 103.337 1108.24 101.018C1107.37 98.6993 1106.94 96.312 1106.94 93.8564V92.4923C1106.94 89.9458 1107.37 87.513 1108.24 85.1939C1109.15 82.8293 1110.42 80.7376 1112.06 78.9187C1113.74 77.0998 1115.79 75.6674 1118.2 74.6215C1120.61 73.5302 1123.33 72.9845 1126.38 72.9845C1130.43 72.9845 1133.86 73.894 1136.68 75.7129C1139.5 77.5318 1141.66 79.9418 1143.16 82.943C1144.66 85.8987 1145.41 89.1273 1145.41 92.6287V96.5848H1112.13V89.9003H1138.25L1133.95 92.9015C1133.95 90.7643 1133.66 88.9681 1133.07 87.513C1132.52 86.0124 1131.68 84.8756 1130.54 84.1026C1129.45 83.3295 1128.06 82.943 1126.38 82.943C1124.74 82.943 1123.31 83.3295 1122.08 84.1026C1120.9 84.8301 1119.99 85.967 1119.36 87.513C1118.72 89.0136 1118.4 90.9235 1118.4 93.2426C1118.4 95.3343 1118.7 97.1532 1119.29 98.6993C1119.88 100.2 1120.79 101.359 1122.02 102.178C1123.24 102.996 1124.83 103.406 1126.79 103.406C1128.52 103.406 1129.93 103.11 1131.02 102.519C1132.16 101.928 1132.95 101.132 1133.41 100.132H1144.73C1144.18 102.678 1143.09 104.952 1141.45 106.953C1139.86 108.953 1137.82 110.522 1135.32 111.659C1132.86 112.796 1130.02 113.364 1126.79 113.364ZM1176.24 113.228C1173.14 113.228 1170.44 112.591 1168.12 111.318C1165.85 110.045 1164.05 108.18 1162.73 105.725C1161.46 103.269 1160.78 100.268 1160.68 96.7212H1161.78V112H1151.95V62.2075H1164.37V87.8541L1161.64 90.5824C1161.78 86.8991 1162.48 83.7615 1163.75 81.1696C1165.03 78.5777 1166.78 76.6223 1169.01 75.3036C1171.28 73.9395 1173.89 73.2574 1176.85 73.2574C1179.4 73.2574 1181.69 73.7348 1183.74 74.6898C1185.79 75.5992 1187.51 76.9179 1188.92 78.6459C1190.38 80.3284 1191.49 82.3291 1192.27 84.6482C1193.04 86.9673 1193.43 89.5138 1193.43 92.2876V93.9247C1193.43 96.6985 1193.04 99.2677 1192.27 101.632C1191.49 103.951 1190.36 105.998 1188.86 107.771C1187.35 109.499 1185.54 110.84 1183.4 111.795C1181.31 112.75 1178.92 113.228 1176.24 113.228ZM1172.69 102.996C1174.33 102.996 1175.76 102.587 1176.99 101.769C1178.26 100.905 1179.24 99.7224 1179.92 98.2218C1180.65 96.7212 1181.01 95.016 1181.01 93.1061C1181.01 91.1508 1180.65 89.4683 1179.92 88.0587C1179.24 86.6036 1178.28 85.4895 1177.06 84.7165C1175.83 83.898 1174.37 83.4887 1172.69 83.4887C1171.19 83.4887 1169.78 83.8297 1168.46 84.5118C1167.19 85.1939 1166.14 86.1943 1165.32 87.513C1164.5 88.8317 1164.1 90.4233 1164.1 92.2876V94.6067C1164.1 96.3802 1164.53 97.9035 1165.39 99.1767C1166.26 100.404 1167.35 101.359 1168.67 102.042C1169.98 102.678 1171.33 102.996 1172.69 102.996ZM1238.45 113.228C1235.36 113.228 1232.65 112.591 1230.33 111.318C1228.06 110.045 1226.26 108.18 1224.95 105.725C1223.67 103.269 1222.99 100.268 1222.9 96.7212H1223.99V112H1214.17V62.2075H1226.58V87.8541L1223.85 90.5824C1223.99 86.8991 1224.7 83.7615 1225.97 81.1696C1227.24 78.5777 1228.99 76.6223 1231.22 75.3036C1233.49 73.9395 1236.11 73.2574 1239.06 73.2574C1241.61 73.2574 1243.91 73.7348 1245.95 74.6898C1248 75.5992 1249.73 76.9179 1251.14 78.6459C1252.59 80.3284 1253.71 82.3291 1254.48 84.6482C1255.25 86.9673 1255.64 89.5138 1255.64 92.2876V93.9247C1255.64 96.6985 1255.25 99.2677 1254.48 101.632C1253.71 103.951 1252.57 105.998 1251.07 107.771C1249.57 109.499 1247.75 110.84 1245.61 111.795C1243.52 112.75 1241.13 113.228 1238.45 113.228ZM1234.9 102.996C1236.54 102.996 1237.97 102.587 1239.2 101.769C1240.47 100.905 1241.45 99.7224 1242.13 98.2218C1242.86 96.7212 1243.23 95.016 1243.23 93.1061C1243.23 91.1508 1242.86 89.4683 1242.13 88.0587C1241.45 86.6036 1240.5 85.4895 1239.27 84.7165C1238.04 83.898 1236.59 83.4887 1234.9 83.4887C1233.4 83.4887 1231.99 83.8297 1230.67 84.5118C1229.4 85.1939 1228.36 86.1943 1227.54 87.513C1226.72 88.8317 1226.31 90.4233 1226.31 92.2876V94.6067C1226.31 96.3802 1226.74 97.9035 1227.61 99.1767C1228.47 100.404 1229.56 101.359 1230.88 102.042C1232.2 102.678 1233.54 102.996 1234.9 102.996ZM1285.24 112V100.95H1283.2V89.15C1283.2 87.4221 1282.79 86.1488 1281.97 85.3303C1281.2 84.4664 1279.9 84.0344 1278.08 84.0344C1277.22 84.0344 1275.94 84.0571 1274.26 84.1026C1272.58 84.148 1270.8 84.2163 1268.94 84.3072C1267.08 84.3981 1265.37 84.4891 1263.82 84.58V74.2123C1264.92 74.1213 1266.21 74.0304 1267.71 73.9395C1269.21 73.8485 1270.76 73.7803 1272.35 73.7348C1273.99 73.6894 1275.49 73.6666 1276.85 73.6666C1280.72 73.6666 1283.99 74.235 1286.67 75.3718C1289.4 76.5087 1291.47 78.2139 1292.88 80.4875C1294.34 82.7611 1295.06 85.6486 1295.06 89.15V112H1285.24ZM1273.31 112.955C1270.67 112.955 1268.33 112.477 1266.28 111.523C1264.23 110.568 1262.62 109.203 1261.44 107.43C1260.3 105.611 1259.73 103.451 1259.73 100.95C1259.73 98.1309 1260.48 95.8572 1261.98 94.1293C1263.48 92.3558 1265.55 91.0599 1268.19 90.2414C1270.83 89.4229 1273.85 89.0136 1277.26 89.0136H1284.56V95.4252H1277.26C1275.58 95.4252 1274.28 95.8572 1273.37 96.7212C1272.46 97.5397 1272.01 98.6538 1272.01 100.063C1272.01 101.428 1272.46 102.542 1273.37 103.406C1274.28 104.224 1275.58 104.633 1277.26 104.633C1278.35 104.633 1279.31 104.452 1280.13 104.088C1280.99 103.679 1281.7 102.996 1282.24 102.042C1282.79 101.087 1283.11 99.7679 1283.2 98.0854L1286.06 100.814C1285.83 103.406 1285.2 105.611 1284.15 107.43C1283.15 109.203 1281.74 110.568 1279.92 111.523C1278.15 112.477 1275.94 112.955 1273.31 112.955ZM1318.3 113.228C1312.84 113.228 1308.54 112.114 1305.41 109.886C1302.27 107.612 1300.59 104.429 1300.36 100.336H1311.27C1311.45 101.473 1312.16 102.451 1313.39 103.269C1314.61 104.088 1316.34 104.497 1318.57 104.497C1320.16 104.497 1321.53 104.27 1322.66 103.815C1323.84 103.315 1324.44 102.519 1324.44 101.428C1324.44 100.473 1323.98 99.6997 1323.07 99.1085C1322.16 98.4719 1320.5 98.0399 1318.09 97.8126L1315.5 97.5397C1310.68 97.0395 1307.13 95.7208 1304.86 93.5836C1302.59 91.4464 1301.45 88.7635 1301.45 85.535C1301.45 82.7611 1302.13 80.4875 1303.5 78.7141C1304.86 76.8952 1306.75 75.531 1309.16 74.6215C1311.57 73.7121 1314.32 73.2574 1317.41 73.2574C1322.46 73.2574 1326.53 74.3714 1329.62 76.5996C1332.71 78.7823 1334.35 81.9426 1334.53 86.0806H1323.62C1323.44 84.9438 1322.82 83.9889 1321.78 83.2159C1320.73 82.3974 1319.23 81.9881 1317.27 81.9881C1315.86 81.9881 1314.7 82.2382 1313.8 82.7384C1312.93 83.2386 1312.5 83.9434 1312.5 84.8529C1312.5 85.8078 1312.91 86.5126 1313.73 86.9673C1314.59 87.4221 1315.96 87.7631 1317.82 87.9905L1320.41 88.2633C1325.23 88.7635 1328.94 90.105 1331.53 92.2876C1334.17 94.4249 1335.49 97.2442 1335.49 100.746C1335.49 103.337 1334.78 105.566 1333.37 107.43C1332.01 109.294 1330.03 110.727 1327.44 111.727C1324.89 112.728 1321.84 113.228 1318.3 113.228ZM1359.33 113.364C1356.14 113.364 1353.32 112.819 1350.87 111.727C1348.41 110.636 1346.34 109.158 1344.66 107.294C1342.98 105.429 1341.68 103.337 1340.77 101.018C1339.91 98.6993 1339.48 96.312 1339.48 93.8564V92.4923C1339.48 89.9458 1339.91 87.513 1340.77 85.1939C1341.68 82.8293 1342.96 80.7376 1344.59 78.9187C1346.28 77.0998 1348.32 75.6674 1350.73 74.6215C1353.14 73.5302 1355.87 72.9845 1358.92 72.9845C1362.96 72.9845 1366.4 73.894 1369.22 75.7129C1372.04 77.5318 1374.2 79.9418 1375.7 82.943C1377.2 85.8987 1377.95 89.1273 1377.95 92.6287V96.5848H1344.66V89.9003H1370.79L1366.49 92.9015C1366.49 90.7643 1366.19 88.9681 1365.6 87.513C1365.06 86.0124 1364.21 84.8756 1363.08 84.1026C1361.99 83.3295 1360.6 82.943 1358.92 82.943C1357.28 82.943 1355.85 83.3295 1354.62 84.1026C1353.44 84.8301 1352.53 85.967 1351.89 87.513C1351.25 89.0136 1350.94 90.9235 1350.94 93.2426C1350.94 95.3343 1351.23 97.1532 1351.82 98.6993C1352.41 100.2 1353.32 101.359 1354.55 102.178C1355.78 102.996 1357.37 103.406 1359.33 103.406C1361.05 103.406 1362.46 103.11 1363.56 102.519C1364.69 101.928 1365.49 101.132 1365.94 100.132H1377.27C1376.72 102.678 1375.63 104.952 1373.99 106.953C1372.4 108.953 1370.35 110.522 1367.85 111.659C1365.4 112.796 1362.55 113.364 1359.33 113.364ZM1399.97 113.228C1397.34 113.228 1394.93 112.75 1392.74 111.795C1390.61 110.84 1388.74 109.522 1387.15 107.839C1385.6 106.111 1384.4 104.088 1383.54 101.769C1382.72 99.4496 1382.31 96.9258 1382.31 94.1975V92.5605C1382.31 89.8321 1382.69 87.3084 1383.47 84.9893C1384.29 82.6247 1385.45 80.5785 1386.95 78.8505C1388.45 77.0771 1390.27 75.7129 1392.4 74.758C1394.54 73.7576 1396.93 73.2574 1399.56 73.2574C1402.61 73.2574 1405.2 73.9395 1407.34 75.3036C1409.52 76.6223 1411.18 78.5549 1412.32 81.1014C1413.5 83.6479 1414.14 86.74 1414.23 90.3778L1411.36 88.2633V62.2075H1423.78V112H1413.96V96.7212H1415.32C1415.23 100.086 1414.55 103.019 1413.27 105.52C1412 107.976 1410.23 109.886 1407.95 111.25C1405.73 112.568 1403.07 113.228 1399.97 113.228ZM1403.32 102.996C1404.82 102.996 1406.18 102.655 1407.41 101.973C1408.68 101.291 1409.71 100.291 1410.48 98.9721C1411.25 97.6534 1411.64 96.0619 1411.64 94.1975V91.8784C1411.64 90.0595 1411.23 88.5362 1410.41 87.3084C1409.64 86.0806 1408.61 85.1484 1407.34 84.5118C1406.11 83.8297 1404.77 83.4887 1403.32 83.4887C1401.68 83.4887 1400.2 83.9207 1398.88 84.7847C1397.61 85.6032 1396.59 86.7627 1395.81 88.2633C1395.09 89.7184 1394.72 91.4237 1394.72 93.379C1394.72 95.3343 1395.09 97.0395 1395.81 98.4946C1396.59 99.9043 1397.61 101.018 1398.88 101.837C1400.2 102.61 1401.68 102.996 1403.32 102.996ZM1461.64 113.228C1456.19 113.228 1451.89 112.114 1448.75 109.886C1445.61 107.612 1443.93 104.429 1443.7 100.336H1454.62C1454.8 101.473 1455.5 102.451 1456.73 103.269C1457.96 104.088 1459.69 104.497 1461.91 104.497C1463.51 104.497 1464.87 104.27 1466.01 103.815C1467.19 103.315 1467.78 102.519 1467.78 101.428C1467.78 100.473 1467.33 99.6997 1466.42 99.1085C1465.51 98.4719 1463.85 98.0399 1461.44 97.8126L1458.85 97.5397C1454.03 97.0395 1450.48 95.7208 1448.21 93.5836C1445.93 91.4464 1444.79 88.7635 1444.79 85.535C1444.79 82.7611 1445.48 80.4875 1446.84 78.7141C1448.21 76.8952 1450.09 75.531 1452.5 74.6215C1454.91 73.7121 1457.66 73.2574 1460.76 73.2574C1465.8 73.2574 1469.87 74.3714 1472.96 76.5996C1476.06 78.7823 1477.69 81.9426 1477.88 86.0806H1466.96C1466.78 84.9438 1466.17 83.9889 1465.12 83.2159C1464.07 82.3974 1462.57 81.9881 1460.62 81.9881C1459.21 81.9881 1458.05 82.2382 1457.14 82.7384C1456.28 83.2386 1455.84 83.9434 1455.84 84.8529C1455.84 85.8078 1456.25 86.5126 1457.07 86.9673C1457.94 87.4221 1459.3 87.7631 1461.16 87.9905L1463.76 88.2633C1468.58 88.7635 1472.28 90.105 1474.87 92.2876C1477.51 94.4249 1478.83 97.2442 1478.83 100.746C1478.83 103.337 1478.13 105.566 1476.72 107.43C1475.35 109.294 1473.37 110.727 1470.78 111.727C1468.24 112.728 1465.19 113.228 1461.64 113.228ZM1503.76 113.364C1500.44 113.364 1497.49 112.864 1494.9 111.864C1492.3 110.863 1490.1 109.476 1488.28 107.703C1486.51 105.929 1485.14 103.883 1484.19 101.564C1483.28 99.2449 1482.82 96.7667 1482.82 94.1293V92.4923C1482.82 89.7639 1483.3 87.2174 1484.26 84.8529C1485.26 82.4883 1486.67 80.4193 1488.48 78.6459C1490.3 76.8724 1492.51 75.4855 1495.1 74.4851C1497.69 73.4847 1500.58 72.9845 1503.76 72.9845C1506.99 72.9845 1509.88 73.4847 1512.43 74.4851C1515.02 75.4855 1517.22 76.8724 1519.04 78.6459C1520.86 80.4193 1522.25 82.4883 1523.2 84.8529C1524.2 87.2174 1524.7 89.7639 1524.7 92.4923V94.1293C1524.7 96.7667 1524.23 99.2449 1523.27 101.564C1522.36 103.883 1521 105.929 1519.18 107.703C1517.4 109.476 1515.22 110.863 1512.63 111.864C1510.04 112.864 1507.08 113.364 1503.76 113.364ZM1503.76 102.996C1505.67 102.996 1507.24 102.587 1508.47 101.769C1509.74 100.95 1510.7 99.8134 1511.33 98.3582C1511.97 96.8576 1512.29 95.1751 1512.29 93.3108C1512.29 91.3555 1511.95 89.6502 1511.27 88.1951C1510.63 86.6945 1509.67 85.5122 1508.4 84.6482C1507.13 83.7843 1505.58 83.3523 1503.76 83.3523C1501.94 83.3523 1500.4 83.7843 1499.12 84.6482C1497.85 85.5122 1496.87 86.6945 1496.19 88.1951C1495.55 89.6502 1495.24 91.3555 1495.24 93.3108C1495.24 95.1751 1495.55 96.8576 1496.19 98.3582C1496.83 99.8134 1497.78 100.95 1499.06 101.769C1500.33 102.587 1501.9 102.996 1503.76 102.996ZM1532.32 112V74.4851C1532.32 70.0743 1533.59 66.8003 1536.14 64.6631C1538.68 62.4804 1542.46 61.389 1547.46 61.389H1552.3V70.529H1547.19C1546.1 70.529 1545.25 70.8246 1544.66 71.4157C1544.07 72.0069 1543.78 72.8481 1543.78 73.9395V112H1532.32ZM1528.09 84.1708V75.1672H1552.85V84.1708H1528.09ZM1576.35 112.546C1572.26 112.546 1568.98 112.045 1566.53 111.045C1564.12 110.045 1562.37 108.385 1561.27 106.066C1560.18 103.747 1559.64 100.609 1559.64 96.653L1559.71 64.5266H1571.16L1571.1 96.9941C1571.1 98.6765 1571.53 99.9725 1572.39 100.882C1573.3 101.746 1574.6 102.178 1576.28 102.178H1581.46V112.546H1576.35ZM1554.18 83.3523V74.3487H1581.46V83.3523H1554.18ZM1602.85 112L1609.54 75.5765H1622.5L1630.13 112H1620.72L1612.81 75.8493H1618.54L1611.31 112H1602.85ZM1600.53 112L1600.46 101.632H1607.97L1608.03 112H1600.53ZM1594.46 112L1584.57 74.3487H1596.71L1605.85 112H1594.46ZM1624.06 112L1624.13 101.632H1631.64L1631.57 112H1624.06ZM1627.07 112L1635.32 74.3487H1646.64L1637.64 112H1627.07ZM1674.78 112V100.95H1672.73V89.15C1672.73 87.4221 1672.32 86.1488 1671.5 85.3303C1670.73 84.4664 1669.44 84.0344 1667.62 84.0344C1666.75 84.0344 1665.48 84.0571 1663.8 84.1026C1662.11 84.148 1660.34 84.2163 1658.48 84.3072C1656.61 84.3981 1654.91 84.4891 1653.36 84.58V74.2123C1654.45 74.1213 1655.75 74.0304 1657.25 73.9395C1658.75 73.8485 1660.3 73.7803 1661.89 73.7348C1663.52 73.6894 1665.03 73.6666 1666.39 73.6666C1670.25 73.6666 1673.53 74.235 1676.21 75.3718C1678.94 76.5087 1681.01 78.2139 1682.42 80.4875C1683.87 82.7611 1684.6 85.6486 1684.6 89.15V112H1674.78ZM1662.84 112.955C1660.2 112.955 1657.86 112.477 1655.82 111.523C1653.77 110.568 1652.16 109.203 1650.97 107.43C1649.84 105.611 1649.27 103.451 1649.27 100.95C1649.27 98.1309 1650.02 95.8572 1651.52 94.1293C1653.02 92.3558 1655.09 91.0599 1657.73 90.2414C1660.36 89.4229 1663.39 89.0136 1666.8 89.0136H1674.1V95.4252H1666.8C1665.12 95.4252 1663.82 95.8572 1662.91 96.7212C1662 97.5397 1661.55 98.6538 1661.55 100.063C1661.55 101.428 1662 102.542 1662.91 103.406C1663.82 104.224 1665.12 104.633 1666.8 104.633C1667.89 104.633 1668.84 104.452 1669.66 104.088C1670.53 103.679 1671.23 102.996 1671.78 102.042C1672.32 101.087 1672.64 99.7679 1672.73 98.0854L1675.6 100.814C1675.37 103.406 1674.73 105.611 1673.69 107.43C1672.69 109.203 1671.28 110.568 1669.46 111.523C1667.69 112.477 1665.48 112.955 1662.84 112.955ZM1692.9 112V74.3487H1702.72V90.7188H1702.58C1702.58 85.444 1703.67 81.306 1705.86 78.3048C1708.08 75.3036 1711.27 73.803 1715.4 73.803H1716.91V84.4436H1714.04C1711.27 84.4436 1709.11 85.1939 1707.56 86.6945C1706.06 88.1951 1705.31 90.3551 1705.31 93.1744V112H1692.9ZM1739.34 113.364C1736.15 113.364 1733.34 112.819 1730.88 111.727C1728.42 110.636 1726.36 109.158 1724.67 107.294C1722.99 105.429 1721.69 103.337 1720.78 101.018C1719.92 98.6993 1719.49 96.312 1719.49 93.8564V92.4923C1719.49 89.9458 1719.92 87.513 1720.78 85.1939C1721.69 82.8293 1722.97 80.7376 1724.6 78.9187C1726.29 77.0998 1728.33 75.6674 1730.74 74.6215C1733.15 73.5302 1735.88 72.9845 1738.93 72.9845C1742.98 72.9845 1746.41 73.894 1749.23 75.7129C1752.05 77.5318 1754.21 79.9418 1755.71 82.943C1757.21 85.8987 1757.96 89.1273 1757.96 92.6287V96.5848H1724.67V89.9003H1750.8L1746.5 92.9015C1746.5 90.7643 1746.2 88.9681 1745.61 87.513C1745.07 86.0124 1744.23 84.8756 1743.09 84.1026C1742 83.3295 1740.61 82.943 1738.93 82.943C1737.29 82.943 1735.86 83.3295 1734.63 84.1026C1733.45 84.8301 1732.54 85.967 1731.9 87.513C1731.27 89.0136 1730.95 90.9235 1730.95 93.2426C1730.95 95.3343 1731.24 97.1532 1731.83 98.6993C1732.43 100.2 1733.34 101.359 1734.56 102.178C1735.79 102.996 1737.38 103.406 1739.34 103.406C1741.07 103.406 1742.48 103.11 1743.57 102.519C1744.7 101.928 1745.5 101.132 1745.95 100.132H1757.28C1756.73 102.678 1755.64 104.952 1754 106.953C1752.41 108.953 1750.36 110.522 1747.86 111.659C1745.41 112.796 1742.57 113.364 1739.34 113.364ZM173.671 198.546C169.578 198.546 166.304 198.045 163.849 197.045C161.439 196.045 159.688 194.385 158.597 192.066C157.505 189.747 156.96 186.609 156.96 182.653L157.028 150.527H168.487L168.419 182.994C168.419 184.677 168.851 185.973 169.715 186.882C170.624 187.746 171.92 188.178 173.603 188.178H178.787V198.546H173.671ZM151.503 169.352V160.349H178.787V169.352H151.503ZM185.44 198V148.208H197.854V176.582H196.217C196.217 172.763 196.695 169.557 197.65 166.965C198.604 164.373 199.991 162.418 201.81 161.099C203.675 159.78 205.971 159.121 208.699 159.121H209.245C213.338 159.121 216.452 160.599 218.59 163.555C220.772 166.51 221.864 170.853 221.864 176.582V198H209.45V176.105C209.45 174.377 208.927 172.967 207.881 171.876C206.835 170.739 205.448 170.171 203.72 170.171C201.992 170.171 200.583 170.739 199.491 171.876C198.4 172.967 197.854 174.422 197.854 176.241V198H185.44ZM252.984 198V186.95H250.938V175.15C250.938 173.422 250.528 172.149 249.71 171.33C248.937 170.466 247.641 170.034 245.822 170.034C244.958 170.034 243.685 170.057 242.002 170.103C240.32 170.148 238.546 170.216 236.682 170.307C234.818 170.398 233.112 170.489 231.566 170.58V160.212C232.658 160.121 233.954 160.03 235.454 159.939C236.955 159.849 238.501 159.78 240.093 159.735C241.73 159.689 243.23 159.667 244.594 159.667C248.459 159.667 251.733 160.235 254.416 161.372C257.145 162.509 259.214 164.214 260.623 166.488C262.078 168.761 262.806 171.649 262.806 175.15V198H252.984ZM241.047 198.955C238.41 198.955 236.068 198.477 234.022 197.523C231.976 196.568 230.361 195.203 229.179 193.43C228.042 191.611 227.474 189.451 227.474 186.95C227.474 184.131 228.224 181.857 229.725 180.129C231.225 178.356 233.294 177.06 235.932 176.241C238.569 175.423 241.593 175.014 245.004 175.014H252.302V181.425H245.004C243.321 181.425 242.025 181.857 241.116 182.721C240.206 183.54 239.751 184.654 239.751 186.063C239.751 187.428 240.206 188.542 241.116 189.406C242.025 190.224 243.321 190.633 245.004 190.633C246.095 190.633 247.05 190.452 247.868 190.088C248.732 189.679 249.437 188.996 249.983 188.042C250.528 187.087 250.847 185.768 250.938 184.085L253.802 186.814C253.575 189.406 252.939 191.611 251.893 193.43C250.892 195.203 249.483 196.568 247.664 197.523C245.89 198.477 243.685 198.955 241.047 198.955ZM289.04 198.546C284.947 198.546 281.673 198.045 279.218 197.045C276.808 196.045 275.057 194.385 273.966 192.066C272.874 189.747 272.329 186.609 272.329 182.653L272.397 150.527H283.856L283.788 182.994C283.788 184.677 284.22 185.973 285.084 186.882C285.993 187.746 287.289 188.178 288.972 188.178H294.155V198.546H289.04ZM266.872 169.352V160.349H294.155V169.352H266.872ZM314.731 198V148.208H327.145V176.582H325.508C325.508 172.763 325.985 169.557 326.94 166.965C327.895 164.373 329.282 162.418 331.101 161.099C332.965 159.78 335.261 159.121 337.99 159.121H338.535C342.628 159.121 345.743 160.599 347.88 163.555C350.063 166.51 351.154 170.853 351.154 176.582V198H338.74V176.105C338.74 174.377 338.217 172.967 337.171 171.876C336.125 170.739 334.739 170.171 333.011 170.171C331.283 170.171 329.873 170.739 328.782 171.876C327.69 172.967 327.145 174.422 327.145 176.241V198H314.731ZM377.159 199.364C373.976 199.364 371.156 198.819 368.701 197.727C366.245 196.636 364.176 195.158 362.494 193.294C360.811 191.429 359.515 189.337 358.606 187.018C357.742 184.699 357.31 182.312 357.31 179.856V178.492C357.31 175.946 357.742 173.513 358.606 171.194C359.515 168.829 360.789 166.738 362.426 164.919C364.108 163.1 366.154 161.667 368.564 160.622C370.974 159.53 373.703 158.985 376.749 158.985C380.797 158.985 384.23 159.894 387.049 161.713C389.868 163.532 392.028 165.942 393.529 168.943C395.029 171.899 395.78 175.127 395.78 178.629V182.585H362.494V175.9H388.618L384.321 178.902C384.321 176.764 384.025 174.968 383.434 173.513C382.888 172.012 382.047 170.876 380.91 170.103C379.819 169.33 378.432 168.943 376.749 168.943C375.112 168.943 373.68 169.33 372.452 170.103C371.27 170.83 370.361 171.967 369.724 173.513C369.087 175.014 368.769 176.923 368.769 179.243C368.769 181.334 369.065 183.153 369.656 184.699C370.247 186.2 371.156 187.359 372.384 188.178C373.612 188.996 375.203 189.406 377.159 189.406C378.887 189.406 380.296 189.11 381.388 188.519C382.525 187.928 383.32 187.132 383.775 186.132H395.098C394.552 188.678 393.461 190.952 391.824 192.953C390.232 194.953 388.186 196.522 385.685 197.659C383.229 198.796 380.387 199.364 377.159 199.364ZM402.869 198V148.208H415.283V198H402.869ZM398.64 157.211V148.208H415.283V157.211H398.64ZM424.438 211.642V160.349H434.26V176.582H433.168C433.305 172.899 434.032 169.762 435.351 167.17C436.715 164.578 438.557 162.622 440.876 161.304C443.195 159.939 445.855 159.257 448.856 159.257C451.448 159.257 453.79 159.735 455.882 160.69C457.974 161.599 459.77 162.918 461.27 164.646C462.771 166.328 463.908 168.329 464.681 170.648C465.499 172.967 465.909 175.514 465.909 178.288V179.925C465.909 182.698 465.545 185.268 464.817 187.632C464.09 189.951 462.998 191.998 461.543 193.771C460.088 195.499 458.292 196.84 456.155 197.795C454.063 198.75 451.653 199.228 448.925 199.228C446.014 199.228 443.445 198.659 441.217 197.523C438.989 196.34 437.215 194.59 435.897 192.27C434.623 189.906 433.941 186.95 433.85 183.403L436.852 187.087V211.642H424.438ZM445.173 188.996C446.81 188.996 448.242 188.587 449.47 187.769C450.743 186.905 451.721 185.722 452.403 184.222C453.131 182.721 453.495 181.016 453.495 179.106C453.495 177.151 453.131 175.468 452.403 174.059C451.721 172.604 450.766 171.489 449.538 170.716C448.311 169.898 446.856 169.489 445.173 169.489C443.673 169.489 442.263 169.83 440.944 170.512C439.671 171.194 438.625 172.194 437.807 173.513C436.988 174.832 436.579 176.423 436.579 178.288V180.607C436.579 182.38 437.011 183.904 437.875 185.177C438.739 186.404 439.83 187.359 441.149 188.042C442.467 188.678 443.809 188.996 445.173 188.996ZM487.668 199.228C482.211 199.228 477.914 198.114 474.776 195.886C471.639 193.612 469.956 190.429 469.729 186.336H480.642C480.824 187.473 481.529 188.451 482.757 189.269C483.984 190.088 485.712 190.497 487.941 190.497C489.532 190.497 490.896 190.27 492.033 189.815C493.215 189.315 493.807 188.519 493.807 187.428C493.807 186.473 493.352 185.7 492.442 185.109C491.533 184.472 489.873 184.04 487.463 183.813L484.871 183.54C480.051 183.04 476.504 181.721 474.231 179.584C471.957 177.446 470.82 174.764 470.82 171.535C470.82 168.761 471.502 166.488 472.866 164.714C474.231 162.895 476.118 161.531 478.528 160.622C480.938 159.712 483.689 159.257 486.781 159.257C491.828 159.257 495.898 160.371 498.99 162.6C502.083 164.782 503.72 167.943 503.901 172.081H492.988C492.806 170.944 492.192 169.989 491.146 169.216C490.101 168.397 488.6 167.988 486.645 167.988C485.235 167.988 484.075 168.238 483.166 168.738C482.302 169.239 481.87 169.943 481.87 170.853C481.87 171.808 482.279 172.513 483.098 172.967C483.962 173.422 485.326 173.763 487.19 173.99L489.782 174.263C494.602 174.764 498.308 176.105 500.9 178.288C503.538 180.425 504.856 183.244 504.856 186.746C504.856 189.337 504.152 191.566 502.742 193.43C501.378 195.294 499.4 196.727 496.808 197.727C494.261 198.728 491.215 199.228 487.668 199.228ZM542.891 198.546C538.799 198.546 535.525 198.045 533.069 197.045C530.659 196.045 528.909 194.385 527.817 192.066C526.726 189.747 526.18 186.609 526.18 182.653L526.248 150.527H537.707L537.639 182.994C537.639 184.677 538.071 185.973 538.935 186.882C539.845 187.746 541.141 188.178 542.823 188.178H548.007V198.546H542.891ZM520.723 169.352V160.349H548.007V169.352H520.723ZM554.661 198V148.208H567.075V176.582H565.438C565.438 172.763 565.915 169.557 566.87 166.965C567.825 164.373 569.212 162.418 571.031 161.099C572.895 159.78 575.191 159.121 577.92 159.121H578.465C582.558 159.121 585.673 160.599 587.81 163.555C589.993 166.51 591.084 170.853 591.084 176.582V198H578.67V176.105C578.67 174.377 578.147 172.967 577.101 171.876C576.055 170.739 574.668 170.171 572.941 170.171C571.213 170.171 569.803 170.739 568.712 171.876C567.62 172.967 567.075 174.422 567.075 176.241V198H554.661ZM617.089 199.364C613.906 199.364 611.086 198.819 608.631 197.727C606.175 196.636 604.106 195.158 602.424 193.294C600.741 191.429 599.445 189.337 598.536 187.018C597.672 184.699 597.24 182.312 597.24 179.856V178.492C597.24 175.946 597.672 173.513 598.536 171.194C599.445 168.829 600.719 166.738 602.356 164.919C604.038 163.1 606.084 161.667 608.494 160.622C610.904 159.53 613.633 158.985 616.679 158.985C620.727 158.985 624.16 159.894 626.979 161.713C629.798 163.532 631.958 165.942 633.459 168.943C634.959 171.899 635.71 175.127 635.71 178.629V182.585H602.424V175.9H628.548L624.251 178.902C624.251 176.764 623.955 174.968 623.364 173.513C622.818 172.012 621.977 170.876 620.84 170.103C619.749 169.33 618.362 168.943 616.679 168.943C615.042 168.943 613.61 169.33 612.382 170.103C611.2 170.83 610.291 171.967 609.654 173.513C609.017 175.014 608.699 176.923 608.699 179.243C608.699 181.334 608.995 183.153 609.586 184.699C610.177 186.2 611.086 187.359 612.314 188.178C613.542 188.996 615.133 189.406 617.089 189.406C618.817 189.406 620.226 189.11 621.318 188.519C622.454 187.928 623.25 187.132 623.705 186.132H635.028C634.482 188.678 633.391 190.952 631.754 192.953C630.162 194.953 628.116 196.522 625.615 197.659C623.159 198.796 620.317 199.364 617.089 199.364ZM680.457 199.228C677.365 199.228 674.659 198.591 672.34 197.318C670.066 196.045 668.27 194.18 666.952 191.725C665.678 189.269 664.996 186.268 664.905 182.721H665.997V198H656.175V148.208H668.589V173.854L665.86 176.582C665.997 172.899 666.701 169.762 667.975 167.17C669.248 164.578 670.999 162.622 673.227 161.304C675.5 159.939 678.115 159.257 681.071 159.257C683.617 159.257 685.914 159.735 687.96 160.69C690.006 161.599 691.734 162.918 693.144 164.646C694.599 166.328 695.713 168.329 696.486 170.648C697.259 172.967 697.645 175.514 697.645 178.288V179.925C697.645 182.698 697.259 185.268 696.486 187.632C695.713 189.951 694.576 191.998 693.076 193.771C691.575 195.499 689.756 196.84 687.619 197.795C685.527 198.75 683.14 199.228 680.457 199.228ZM676.91 188.996C678.547 188.996 679.979 188.587 681.207 187.769C682.48 186.905 683.458 185.722 684.14 184.222C684.868 182.721 685.231 181.016 685.231 179.106C685.231 177.151 684.868 175.468 684.14 174.059C683.458 172.604 682.503 171.489 681.275 170.716C680.048 169.898 678.592 169.489 676.91 169.489C675.409 169.489 674 169.83 672.681 170.512C671.408 171.194 670.362 172.194 669.543 173.513C668.725 174.832 668.316 176.423 668.316 178.288V180.607C668.316 182.38 668.748 183.904 669.612 185.177C670.476 186.404 671.567 187.359 672.886 188.042C674.204 188.678 675.546 188.996 676.91 188.996ZM717.086 199.228C712.811 199.228 709.492 197.841 707.127 195.067C704.808 192.248 703.648 187.951 703.648 182.176V160.349H716.062V182.517C716.062 184.199 716.563 185.563 717.563 186.609C718.563 187.655 719.905 188.178 721.587 188.178C723.27 188.178 724.634 187.655 725.68 186.609C726.726 185.563 727.249 184.154 727.249 182.38V160.349H739.663V198H729.841V182.176H730.523C730.523 186.041 730.023 189.247 729.022 191.793C728.067 194.294 726.635 196.158 724.725 197.386C722.815 198.614 720.451 199.228 717.631 199.228H717.086ZM763.767 199.228C758.31 199.228 754.013 198.114 750.876 195.886C747.738 193.612 746.055 190.429 745.828 186.336H756.742C756.923 187.473 757.628 188.451 758.856 189.269C760.084 190.088 761.812 190.497 764.04 190.497C765.631 190.497 766.996 190.27 768.132 189.815C769.315 189.315 769.906 188.519 769.906 187.428C769.906 186.473 769.451 185.7 768.542 185.109C767.632 184.472 765.972 184.04 763.562 183.813L760.97 183.54C756.15 183.04 752.604 181.721 750.33 179.584C748.056 177.446 746.919 174.764 746.919 171.535C746.919 168.761 747.602 166.488 748.966 164.714C750.33 162.895 752.217 161.531 754.627 160.622C757.037 159.712 759.788 159.257 762.88 159.257C767.928 159.257 771.998 160.371 775.09 162.6C778.182 164.782 779.819 167.943 780.001 172.081H769.087C768.905 170.944 768.292 169.989 767.246 169.216C766.2 168.397 764.699 167.988 762.744 167.988C761.334 167.988 760.175 168.238 759.265 168.738C758.401 169.239 757.969 169.943 757.969 170.853C757.969 171.808 758.379 172.513 759.197 172.967C760.061 173.422 761.425 173.763 763.29 173.99L765.882 174.263C770.702 174.764 774.408 176.105 777 178.288C779.637 180.425 780.956 183.244 780.956 186.746C780.956 189.337 780.251 191.566 778.841 193.43C777.477 195.294 775.499 196.727 772.907 197.727C770.361 198.728 767.314 199.228 763.767 199.228ZM788.904 198V160.349H801.318V198H788.904ZM784.129 169.352V160.349H801.318V169.352H784.129ZM794.019 157.348C791.746 157.348 790.063 156.779 788.972 155.642C787.926 154.46 787.403 152.959 787.403 151.141C787.403 149.322 787.926 147.844 788.972 146.707C790.063 145.525 791.723 144.934 793.951 144.934C796.225 144.934 797.884 145.525 798.93 146.707C799.976 147.844 800.499 149.322 800.499 151.141C800.499 152.959 799.976 154.46 798.93 155.642C797.884 156.779 796.247 157.348 794.019 157.348ZM810.444 198V160.349H820.266V176.514H819.72C819.72 172.604 820.22 169.375 821.221 166.829C822.221 164.237 823.699 162.304 825.654 161.031C827.655 159.758 830.065 159.121 832.884 159.121H833.43C837.705 159.121 841.001 160.553 843.32 163.418C845.685 166.237 846.867 170.58 846.867 176.446V198H834.453V176.105C834.453 174.377 833.93 172.967 832.884 171.876C831.884 170.739 830.497 170.171 828.724 170.171C826.95 170.171 825.518 170.739 824.427 171.876C823.381 172.967 822.858 174.422 822.858 176.241V198H810.444ZM872.872 199.364C869.689 199.364 866.87 198.819 864.414 197.727C861.959 196.636 859.889 195.158 858.207 193.294C856.525 191.429 855.229 189.337 854.319 187.018C853.455 184.699 853.023 182.312 853.023 179.856V178.492C853.023 175.946 853.455 173.513 854.319 171.194C855.229 168.829 856.502 166.738 858.139 164.919C859.821 163.1 861.868 161.667 864.278 160.622C866.688 159.53 869.416 158.985 872.463 158.985C876.51 158.985 879.943 159.894 882.762 161.713C885.582 163.532 887.741 165.942 889.242 168.943C890.743 171.899 891.493 175.127 891.493 178.629V182.585H858.207V175.9H884.331L880.034 178.902C880.034 176.764 879.738 174.968 879.147 173.513C878.601 172.012 877.76 170.876 876.623 170.103C875.532 169.33 874.145 168.943 872.463 168.943C870.826 168.943 869.393 169.33 868.166 170.103C866.983 170.83 866.074 171.967 865.437 173.513C864.801 175.014 864.482 176.923 864.482 179.243C864.482 181.334 864.778 183.153 865.369 184.699C865.96 186.2 866.87 187.359 868.097 188.178C869.325 188.996 870.917 189.406 872.872 189.406C874.6 189.406 876.01 189.11 877.101 188.519C878.238 187.928 879.033 187.132 879.488 186.132H890.811C890.265 188.678 889.174 190.952 887.537 192.953C885.945 194.953 883.899 196.522 881.398 197.659C878.943 198.796 876.1 199.364 872.872 199.364ZM912.974 199.228C907.517 199.228 903.22 198.114 900.082 195.886C896.945 193.612 895.262 190.429 895.035 186.336H905.948C906.13 187.473 906.835 188.451 908.063 189.269C909.291 190.088 911.019 190.497 913.247 190.497C914.838 190.497 916.203 190.27 917.339 189.815C918.522 189.315 919.113 188.519 919.113 187.428C919.113 186.473 918.658 185.7 917.749 185.109C916.839 184.472 915.179 184.04 912.769 183.813L910.177 183.54C905.357 183.04 901.81 181.721 899.537 179.584C897.263 177.446 896.126 174.764 896.126 171.535C896.126 168.761 896.808 166.488 898.173 164.714C899.537 162.895 901.424 161.531 903.834 160.622C906.244 159.712 908.995 159.257 912.087 159.257C917.135 159.257 921.204 160.371 924.297 162.6C927.389 164.782 929.026 167.943 929.208 172.081H918.294C918.112 170.944 917.498 169.989 916.453 169.216C915.407 168.397 913.906 167.988 911.951 167.988C910.541 167.988 909.382 168.238 908.472 168.738C907.608 169.239 907.176 169.943 907.176 170.853C907.176 171.808 907.585 172.513 908.404 172.967C909.268 173.422 910.632 173.763 912.496 173.99L915.088 174.263C919.909 174.764 923.615 176.105 926.206 178.288C928.844 180.425 930.163 183.244 930.163 186.746C930.163 189.337 929.458 191.566 928.048 193.43C926.684 195.294 924.706 196.727 922.114 197.727C919.567 198.728 916.521 199.228 912.974 199.228ZM951.275 199.228C945.818 199.228 941.521 198.114 938.383 195.886C935.246 193.612 933.563 190.429 933.336 186.336H944.249C944.431 187.473 945.136 188.451 946.364 189.269C947.592 190.088 949.319 190.497 951.548 190.497C953.139 190.497 954.503 190.27 955.64 189.815C956.822 189.315 957.414 188.519 957.414 187.428C957.414 186.473 956.959 185.7 956.049 185.109C955.14 184.472 953.48 184.04 951.07 183.813L948.478 183.54C943.658 183.04 940.111 181.721 937.838 179.584C935.564 177.446 934.427 174.764 934.427 171.535C934.427 168.761 935.109 166.488 936.473 164.714C937.838 162.895 939.725 161.531 942.135 160.622C944.545 159.712 947.296 159.257 950.388 159.257C955.436 159.257 959.505 160.371 962.597 162.6C965.69 164.782 967.327 167.943 967.508 172.081H956.595C956.413 170.944 955.799 169.989 954.753 169.216C953.708 168.397 952.207 167.988 950.252 167.988C948.842 167.988 947.682 168.238 946.773 168.738C945.909 169.239 945.477 169.943 945.477 170.853C945.477 171.808 945.886 172.513 946.705 172.967C947.569 173.422 948.933 173.763 950.797 173.99L953.389 174.263C958.209 174.764 961.915 176.105 964.507 178.288C967.145 180.425 968.463 183.244 968.463 186.746C968.463 189.337 967.759 191.566 966.349 193.43C964.985 195.294 963.007 196.727 960.415 197.727C957.868 198.728 954.822 199.228 951.275 199.228ZM1011.34 198V186.95H1009.29V175.15C1009.29 173.422 1008.89 172.149 1008.07 171.33C1007.29 170.466 1006 170.034 1004.18 170.034C1003.32 170.034 1002.04 170.057 1000.36 170.103C998.677 170.148 996.904 170.216 995.039 170.307C993.175 170.398 991.47 170.489 989.924 170.58V160.212C991.015 160.121 992.311 160.03 993.812 159.939C995.312 159.849 996.858 159.78 998.45 159.735C1000.09 159.689 1001.59 159.667 1002.95 159.667C1006.82 159.667 1010.09 160.235 1012.77 161.372C1015.5 162.509 1017.57 164.214 1018.98 166.488C1020.44 168.761 1021.16 171.649 1021.16 175.15V198H1011.34ZM999.405 198.955C996.767 198.955 994.425 198.477 992.379 197.523C990.333 196.568 988.719 195.203 987.536 193.43C986.4 191.611 985.831 189.451 985.831 186.95C985.831 184.131 986.581 181.857 988.082 180.129C989.583 178.356 991.652 177.06 994.289 176.241C996.926 175.423 999.95 175.014 1003.36 175.014H1010.66V181.425H1003.36C1001.68 181.425 1000.38 181.857 999.473 182.721C998.563 183.54 998.109 184.654 998.109 186.063C998.109 187.428 998.563 188.542 999.473 189.406C1000.38 190.224 1001.68 190.633 1003.36 190.633C1004.45 190.633 1005.41 190.452 1006.23 190.088C1007.09 189.679 1007.79 188.996 1008.34 188.042C1008.89 187.087 1009.2 185.768 1009.29 184.085L1012.16 186.814C1011.93 189.406 1011.3 191.611 1010.25 193.43C1009.25 195.203 1007.84 196.568 1006.02 197.523C1004.25 198.477 1002.04 198.955 999.405 198.955ZM1029.46 198V160.349H1039.28V176.514H1038.73C1038.73 172.604 1039.23 169.375 1040.24 166.829C1041.24 164.237 1042.71 162.304 1044.67 161.031C1046.67 159.758 1049.08 159.121 1051.9 159.121H1052.44C1056.72 159.121 1060.02 160.553 1062.33 163.418C1064.7 166.237 1065.88 170.58 1065.88 176.446V198H1053.47V176.105C1053.47 174.377 1052.94 172.967 1051.9 171.876C1050.9 170.739 1049.51 170.171 1047.74 170.171C1045.96 170.171 1044.53 170.739 1043.44 171.876C1042.4 172.967 1041.87 174.422 1041.87 176.241V198H1029.46ZM1089.7 199.228C1087.07 199.228 1084.66 198.75 1082.47 197.795C1080.34 196.84 1078.47 195.522 1076.88 193.839C1075.33 192.111 1074.13 190.088 1073.27 187.769C1072.45 185.45 1072.04 182.926 1072.04 180.197V178.56C1072.04 175.832 1072.42 173.308 1073.2 170.989C1074.02 168.625 1075.18 166.578 1076.68 164.85C1078.18 163.077 1080 161.713 1082.13 160.758C1084.27 159.758 1086.66 159.257 1089.29 159.257C1092.34 159.257 1094.93 159.939 1097.07 161.304C1099.25 162.622 1100.91 164.555 1102.05 167.101C1103.23 169.648 1103.87 172.74 1103.96 176.378L1101.09 174.263V148.208H1113.51V198H1103.69V182.721H1105.05C1104.96 186.086 1104.28 189.019 1103 191.52C1101.73 193.976 1099.96 195.886 1097.68 197.25C1095.46 198.568 1092.8 199.228 1089.7 199.228ZM1093.05 188.996C1094.55 188.996 1095.91 188.655 1097.14 187.973C1098.41 187.291 1099.43 186.291 1100.21 184.972C1100.98 183.653 1101.37 182.062 1101.37 180.197V177.878C1101.37 176.059 1100.96 174.536 1100.14 173.308C1099.37 172.081 1098.34 171.148 1097.07 170.512C1095.84 169.83 1094.5 169.489 1093.05 169.489C1091.41 169.489 1089.93 169.921 1088.61 170.785C1087.34 171.603 1086.32 172.763 1085.54 174.263C1084.82 175.718 1084.45 177.424 1084.45 179.379C1084.45 181.334 1084.82 183.04 1085.54 184.495C1086.32 185.904 1087.34 187.018 1088.61 187.837C1089.93 188.61 1091.41 188.996 1093.05 188.996ZM1159.22 198V186.95H1157.17V175.15C1157.17 173.422 1156.76 172.149 1155.94 171.33C1155.17 170.466 1153.87 170.034 1152.05 170.034C1151.19 170.034 1149.92 170.057 1148.23 170.103C1146.55 170.148 1144.78 170.216 1142.91 170.307C1141.05 170.398 1139.34 170.489 1137.8 170.58V160.212C1138.89 160.121 1140.19 160.03 1141.69 159.939C1143.19 159.849 1144.73 159.78 1146.32 159.735C1147.96 159.689 1149.46 159.667 1150.83 159.667C1154.69 159.667 1157.97 160.235 1160.65 161.372C1163.38 162.509 1165.45 164.214 1166.86 166.488C1168.31 168.761 1169.04 171.649 1169.04 175.15V198H1159.22ZM1147.28 198.955C1144.64 198.955 1142.3 198.477 1140.25 197.523C1138.21 196.568 1136.59 195.203 1135.41 193.43C1134.27 191.611 1133.71 189.451 1133.71 186.95C1133.71 184.131 1134.46 181.857 1135.96 180.129C1137.46 178.356 1139.53 177.06 1142.16 176.241C1144.8 175.423 1147.82 175.014 1151.24 175.014H1158.53V181.425H1151.24C1149.55 181.425 1148.26 181.857 1147.35 182.721C1146.44 183.54 1145.98 184.654 1145.98 186.063C1145.98 187.428 1146.44 188.542 1147.35 189.406C1148.26 190.224 1149.55 190.633 1151.24 190.633C1152.33 190.633 1153.28 190.452 1154.1 190.088C1154.96 189.679 1155.67 188.996 1156.21 188.042C1156.76 187.087 1157.08 185.768 1157.17 184.085L1160.03 186.814C1159.81 189.406 1159.17 191.611 1158.12 193.43C1157.12 195.203 1155.71 196.568 1153.9 197.523C1152.12 198.477 1149.92 198.955 1147.28 198.955ZM1177.88 198V148.208H1190.29V198H1177.88ZM1173.65 157.211V148.208H1190.29V157.211H1173.65ZM1214.39 199.228C1208.93 199.228 1204.63 198.114 1201.49 195.886C1198.36 193.612 1196.67 190.429 1196.45 186.336H1207.36C1207.54 187.473 1208.25 188.451 1209.47 189.269C1210.7 190.088 1212.43 190.497 1214.66 190.497C1216.25 190.497 1217.61 190.27 1218.75 189.815C1219.93 189.315 1220.52 188.519 1220.52 187.428C1220.52 186.473 1220.07 185.7 1219.16 185.109C1218.25 184.472 1216.59 184.04 1214.18 183.813L1211.59 183.54C1206.77 183.04 1203.22 181.721 1200.95 179.584C1198.67 177.446 1197.54 174.764 1197.54 171.535C1197.54 168.761 1198.22 166.488 1199.58 164.714C1200.95 162.895 1202.84 161.531 1205.25 160.622C1207.66 159.712 1210.41 159.257 1213.5 159.257C1218.55 159.257 1222.62 160.371 1225.71 162.6C1228.8 164.782 1230.44 167.943 1230.62 172.081H1219.71C1219.52 170.944 1218.91 169.989 1217.86 169.216C1216.82 168.397 1215.32 167.988 1213.36 167.988C1211.95 167.988 1210.79 168.238 1209.88 168.738C1209.02 169.239 1208.59 169.943 1208.59 170.853C1208.59 171.808 1209 172.513 1209.82 172.967C1210.68 173.422 1212.04 173.763 1213.91 173.99L1216.5 174.263C1221.32 174.764 1225.03 176.105 1227.62 178.288C1230.26 180.425 1231.57 183.244 1231.57 186.746C1231.57 189.337 1230.87 191.566 1229.46 193.43C1228.1 195.294 1226.12 196.727 1223.53 197.727C1220.98 198.728 1217.93 199.228 1214.39 199.228ZM1256.51 199.364C1253.19 199.364 1250.23 198.864 1247.64 197.864C1245.05 196.863 1242.84 195.476 1241.02 193.703C1239.25 191.929 1237.88 189.883 1236.93 187.564C1236.02 185.245 1235.57 182.767 1235.57 180.129V178.492C1235.57 175.764 1236.04 173.217 1237 170.853C1238 168.488 1239.41 166.419 1241.23 164.646C1243.05 162.872 1245.25 161.486 1247.84 160.485C1250.44 159.485 1253.32 158.985 1256.51 158.985C1259.73 158.985 1262.62 159.485 1265.17 160.485C1267.76 161.486 1269.97 162.872 1271.78 164.646C1273.6 166.419 1274.99 168.488 1275.95 170.853C1276.95 173.217 1277.45 175.764 1277.45 178.492V180.129C1277.45 182.767 1276.97 185.245 1276.01 187.564C1275.1 189.883 1273.74 191.929 1271.92 193.703C1270.15 195.476 1267.96 196.863 1265.37 197.864C1262.78 198.864 1259.83 199.364 1256.51 199.364ZM1256.51 188.996C1258.42 188.996 1259.98 188.587 1261.21 187.769C1262.49 186.95 1263.44 185.813 1264.08 184.358C1264.71 182.858 1265.03 181.175 1265.03 179.311C1265.03 177.355 1264.69 175.65 1264.01 174.195C1263.37 172.695 1262.42 171.512 1261.14 170.648C1259.87 169.784 1258.32 169.352 1256.51 169.352C1254.69 169.352 1253.14 169.784 1251.87 170.648C1250.59 171.512 1249.62 172.695 1248.93 174.195C1248.3 175.65 1247.98 177.355 1247.98 179.311C1247.98 181.175 1248.3 182.858 1248.93 184.358C1249.57 185.813 1250.53 186.95 1251.8 187.769C1253.07 188.587 1254.64 188.996 1256.51 188.996ZM1299.94 198V160.349H1312.35V198H1299.94ZM1295.16 169.352V160.349H1312.35V169.352H1295.16ZM1305.05 157.348C1302.78 157.348 1301.1 156.779 1300.01 155.642C1298.96 154.46 1298.44 152.959 1298.44 151.141C1298.44 149.322 1298.96 147.844 1300.01 146.707C1301.1 145.525 1302.76 144.934 1304.98 144.934C1307.26 144.934 1308.92 145.525 1309.96 146.707C1311.01 147.844 1311.53 149.322 1311.53 151.141C1311.53 152.959 1311.01 154.46 1309.96 155.642C1308.92 156.779 1307.28 157.348 1305.05 157.348ZM1321.48 198V160.349H1331.3V176.582H1330.75C1330.75 172.672 1331.23 169.443 1332.19 166.897C1333.19 164.305 1334.64 162.372 1336.55 161.099C1338.46 159.78 1340.8 159.121 1343.58 159.121H1344.12C1346.94 159.121 1349.28 159.78 1351.15 161.099C1353.06 162.372 1354.49 164.305 1355.45 166.897C1356.45 169.443 1356.95 172.672 1356.95 176.582H1354.08C1354.08 172.672 1354.56 169.443 1355.51 166.897C1356.51 164.305 1357.97 162.372 1359.88 161.099C1361.79 159.78 1364.13 159.121 1366.9 159.121H1367.45C1370.27 159.121 1372.63 159.78 1374.54 161.099C1376.5 162.372 1377.98 164.305 1378.98 166.897C1380.02 169.443 1380.55 172.672 1380.55 176.582V198H1368.13V176.241C1368.13 174.513 1367.65 173.081 1366.7 171.944C1365.79 170.762 1364.47 170.171 1362.74 170.171C1361.02 170.171 1359.65 170.762 1358.65 171.944C1357.7 173.081 1357.22 174.559 1357.22 176.378V198H1344.8V176.241C1344.8 174.513 1344.33 173.081 1343.37 171.944C1342.46 170.762 1341.14 170.171 1339.42 170.171C1337.69 170.171 1336.32 170.762 1335.32 171.944C1334.37 173.081 1333.89 174.559 1333.89 176.378V198H1321.48ZM1388.89 211.642V160.349H1398.71V176.582H1397.62C1397.75 172.899 1398.48 169.762 1399.8 167.17C1401.16 164.578 1403.01 162.622 1405.33 161.304C1407.64 159.939 1410.3 159.257 1413.31 159.257C1415.9 159.257 1418.24 159.735 1420.33 160.69C1422.42 161.599 1424.22 162.918 1425.72 164.646C1427.22 166.328 1428.36 168.329 1429.13 170.648C1429.95 172.967 1430.36 175.514 1430.36 178.288V179.925C1430.36 182.698 1429.99 185.268 1429.27 187.632C1428.54 189.951 1427.45 191.998 1425.99 193.771C1424.54 195.499 1422.74 196.84 1420.6 197.795C1418.51 198.75 1416.1 199.228 1413.37 199.228C1410.46 199.228 1407.89 198.659 1405.67 197.523C1403.44 196.34 1401.66 194.59 1400.35 192.27C1399.07 189.906 1398.39 186.95 1398.3 183.403L1401.3 187.087V211.642H1388.89ZM1409.62 188.996C1411.26 188.996 1412.69 188.587 1413.92 187.769C1415.19 186.905 1416.17 185.722 1416.85 184.222C1417.58 182.721 1417.94 181.016 1417.94 179.106C1417.94 177.151 1417.58 175.468 1416.85 174.059C1416.17 172.604 1415.22 171.489 1413.99 170.716C1412.76 169.898 1411.3 169.489 1409.62 169.489C1408.12 169.489 1406.71 169.83 1405.39 170.512C1404.12 171.194 1403.07 172.194 1402.26 173.513C1401.44 174.832 1401.03 176.423 1401.03 178.288V180.607C1401.03 182.38 1401.46 183.904 1402.32 185.177C1403.19 186.404 1404.28 187.359 1405.6 188.042C1406.92 188.678 1408.26 188.996 1409.62 188.996ZM1437.18 198V160.349H1447V176.719H1446.86C1446.86 171.444 1447.96 167.306 1450.14 164.305C1452.37 161.304 1455.55 159.803 1459.69 159.803H1461.19V170.444H1458.32C1455.55 170.444 1453.39 171.194 1451.84 172.695C1450.34 174.195 1449.59 176.355 1449.59 179.174V198H1437.18ZM1484.71 199.364C1481.39 199.364 1478.44 198.864 1475.85 197.864C1473.25 196.863 1471.05 195.476 1469.23 193.703C1467.46 191.929 1466.09 189.883 1465.14 187.564C1464.23 185.245 1463.77 182.767 1463.77 180.129V178.492C1463.77 175.764 1464.25 173.217 1465.2 170.853C1466.2 168.488 1467.61 166.419 1469.43 164.646C1471.25 162.872 1473.46 161.486 1476.05 160.485C1478.64 159.485 1481.53 158.985 1484.71 158.985C1487.94 158.985 1490.83 159.485 1493.37 160.485C1495.97 161.486 1498.17 162.872 1499.99 164.646C1501.81 166.419 1503.2 168.488 1504.15 170.853C1505.15 173.217 1505.65 175.764 1505.65 178.492V180.129C1505.65 182.767 1505.17 185.245 1504.22 187.564C1503.31 189.883 1501.95 191.929 1500.13 193.703C1498.35 195.476 1496.17 196.863 1493.58 197.864C1490.99 198.864 1488.03 199.364 1484.71 199.364ZM1484.71 188.996C1486.62 188.996 1488.19 188.587 1489.42 187.769C1490.69 186.95 1491.65 185.813 1492.28 184.358C1492.92 182.858 1493.24 181.175 1493.24 179.311C1493.24 177.355 1492.9 175.65 1492.22 174.195C1491.58 172.695 1490.62 171.512 1489.35 170.648C1488.08 169.784 1486.53 169.352 1484.71 169.352C1482.89 169.352 1481.35 169.784 1480.07 170.648C1478.8 171.512 1477.82 172.695 1477.14 174.195C1476.5 175.65 1476.19 177.355 1476.19 179.311C1476.19 181.175 1476.5 182.858 1477.14 184.358C1477.78 185.813 1478.73 186.95 1480.01 187.769C1481.28 188.587 1482.85 188.996 1484.71 188.996ZM1518.61 198L1507.83 160.349H1520.52L1530.55 198H1518.61ZM1522.57 198V187.632H1534.64V198H1522.57ZM1526.93 198L1535.46 160.349H1547.33L1538.05 198H1526.93ZM1569.81 199.364C1566.63 199.364 1563.81 198.819 1561.36 197.727C1558.9 196.636 1556.83 195.158 1555.15 193.294C1553.47 191.429 1552.17 189.337 1551.26 187.018C1550.4 184.699 1549.97 182.312 1549.97 179.856V178.492C1549.97 175.946 1550.4 173.513 1551.26 171.194C1552.17 168.829 1553.44 166.738 1555.08 164.919C1556.76 163.1 1558.81 161.667 1561.22 160.622C1563.63 159.53 1566.36 158.985 1569.41 158.985C1573.45 158.985 1576.89 159.894 1579.7 161.713C1582.52 163.532 1584.68 165.942 1586.18 168.943C1587.69 171.899 1588.44 175.127 1588.44 178.629V182.585H1555.15V175.9H1581.27L1576.98 178.902C1576.98 176.764 1576.68 174.968 1576.09 173.513C1575.54 172.012 1574.7 170.876 1573.57 170.103C1572.47 169.33 1571.09 168.943 1569.41 168.943C1567.77 168.943 1566.34 169.33 1565.11 170.103C1563.93 170.83 1563.02 171.967 1562.38 173.513C1561.74 175.014 1561.42 176.923 1561.42 179.243C1561.42 181.334 1561.72 183.153 1562.31 184.699C1562.9 186.2 1563.81 187.359 1565.04 188.178C1566.27 188.996 1567.86 189.406 1569.81 189.406C1571.54 189.406 1572.95 189.11 1574.04 188.519C1575.18 187.928 1575.98 187.132 1576.43 186.132H1587.75C1587.21 188.678 1586.12 190.952 1584.48 192.953C1582.89 194.953 1580.84 196.522 1578.34 197.659C1575.89 198.796 1573.04 199.364 1569.81 199.364ZM1609.92 199.228C1604.46 199.228 1600.16 198.114 1597.03 195.886C1593.89 193.612 1592.21 190.429 1591.98 186.336H1602.89C1603.07 187.473 1603.78 188.451 1605.01 189.269C1606.23 190.088 1607.96 190.497 1610.19 190.497C1611.78 190.497 1613.15 190.27 1614.28 189.815C1615.46 189.315 1616.06 188.519 1616.06 187.428C1616.06 186.473 1615.6 185.7 1614.69 185.109C1613.78 184.472 1612.12 184.04 1609.71 183.813L1607.12 183.54C1602.3 183.04 1598.75 181.721 1596.48 179.584C1594.21 177.446 1593.07 174.764 1593.07 171.535C1593.07 168.761 1593.75 166.488 1595.12 164.714C1596.48 162.895 1598.37 161.531 1600.78 160.622C1603.19 159.712 1605.94 159.257 1609.03 159.257C1614.08 159.257 1618.15 160.371 1621.24 162.6C1624.33 164.782 1625.97 167.943 1626.15 172.081H1615.24C1615.05 170.944 1614.44 169.989 1613.4 169.216C1612.35 168.397 1610.85 167.988 1608.89 167.988C1607.48 167.988 1606.32 168.238 1605.41 168.738C1604.55 169.239 1604.12 169.943 1604.12 170.853C1604.12 171.808 1604.53 172.513 1605.35 172.967C1606.21 173.422 1607.57 173.763 1609.44 173.99L1612.03 174.263C1616.85 174.764 1620.56 176.105 1623.15 178.288C1625.79 180.425 1627.11 183.244 1627.11 186.746C1627.11 189.337 1626.4 191.566 1624.99 193.43C1623.63 195.294 1621.65 196.727 1619.06 197.727C1616.51 198.728 1613.46 199.228 1609.92 199.228ZM1665.14 198.546C1661.05 198.546 1657.77 198.045 1655.32 197.045C1652.91 196.045 1651.16 194.385 1650.07 192.066C1648.97 189.747 1648.43 186.609 1648.43 182.653L1648.5 150.527H1659.96L1659.89 182.994C1659.89 184.677 1660.32 185.973 1661.18 186.882C1662.09 187.746 1663.39 188.178 1665.07 188.178H1670.26V198.546H1665.14ZM1642.97 169.352V160.349H1670.26V169.352H1642.97ZM1676.91 198V148.208H1689.32V176.582H1687.69C1687.69 172.763 1688.16 169.557 1689.12 166.965C1690.07 164.373 1691.46 162.418 1693.28 161.099C1695.14 159.78 1697.44 159.121 1700.17 159.121H1700.71C1704.81 159.121 1707.92 160.599 1710.06 163.555C1712.24 166.51 1713.33 170.853 1713.33 176.582V198H1700.92V176.105C1700.92 174.377 1700.4 172.967 1699.35 171.876C1698.3 170.739 1696.92 170.171 1695.19 170.171C1693.46 170.171 1692.05 170.739 1690.96 171.876C1689.87 172.967 1689.32 174.422 1689.32 176.241V198H1676.91ZM1739.34 199.364C1736.15 199.364 1733.34 198.819 1730.88 197.727C1728.42 196.636 1726.36 195.158 1724.67 193.294C1722.99 191.429 1721.69 189.337 1720.78 187.018C1719.92 184.699 1719.49 182.312 1719.49 179.856V178.492C1719.49 175.946 1719.92 173.513 1720.78 171.194C1721.69 168.829 1722.97 166.738 1724.6 164.919C1726.29 163.1 1728.33 161.667 1730.74 160.622C1733.15 159.53 1735.88 158.985 1738.93 158.985C1742.98 158.985 1746.41 159.894 1749.23 161.713C1752.05 163.532 1754.21 165.942 1755.71 168.943C1757.21 171.899 1757.96 175.127 1757.96 178.629V182.585H1724.67V175.9H1750.8L1746.5 178.902C1746.5 176.764 1746.2 174.968 1745.61 173.513C1745.07 172.012 1744.23 170.876 1743.09 170.103C1742 169.33 1740.61 168.943 1738.93 168.943C1737.29 168.943 1735.86 169.33 1734.63 170.103C1733.45 170.83 1732.54 171.967 1731.9 173.513C1731.27 175.014 1730.95 176.923 1730.95 179.243C1730.95 181.334 1731.24 183.153 1731.83 184.699C1732.43 186.2 1733.34 187.359 1734.56 188.178C1735.79 188.996 1737.38 189.406 1739.34 189.406C1741.07 189.406 1742.48 189.11 1743.57 188.519C1744.7 187.928 1745.5 187.132 1745.95 186.132H1757.28C1756.73 188.678 1755.64 190.952 1754 192.953C1752.41 194.953 1750.36 196.522 1747.86 197.659C1745.41 198.796 1742.57 199.364 1739.34 199.364ZM721.598 284L728.282 247.576H741.242L748.881 284H739.469L731.556 247.849H737.286L730.056 284H721.598ZM719.279 284L719.211 273.632H726.714L726.782 284H719.279ZM713.208 284L703.318 246.349H715.459L724.599 284H713.208ZM742.811 284L742.879 273.632H750.382L750.314 284H742.811ZM745.812 284L754.065 246.349H765.388L756.384 284H745.812ZM789.235 285.364C785.915 285.364 782.96 284.864 780.368 283.864C777.776 282.863 775.57 281.476 773.752 279.703C771.978 277.929 770.614 275.883 769.659 273.564C768.75 271.245 768.295 268.767 768.295 266.129V264.492C768.295 261.764 768.772 259.217 769.727 256.853C770.728 254.488 772.137 252.419 773.956 250.646C775.775 248.872 777.981 247.486 780.572 246.485C783.164 245.485 786.052 244.985 789.235 244.985C792.464 244.985 795.351 245.485 797.898 246.485C800.489 247.486 802.695 248.872 804.514 250.646C806.333 252.419 807.72 254.488 808.675 256.853C809.675 259.217 810.175 261.764 810.175 264.492V266.129C810.175 268.767 809.698 271.245 808.743 273.564C807.833 275.883 806.469 277.929 804.65 279.703C802.877 281.476 800.694 282.863 798.102 283.864C795.51 284.864 792.554 285.364 789.235 285.364ZM789.235 274.996C791.145 274.996 792.714 274.587 793.941 273.769C795.215 272.95 796.17 271.813 796.806 270.358C797.443 268.858 797.761 267.175 797.761 265.311C797.761 263.355 797.42 261.65 796.738 260.195C796.101 258.695 795.146 257.512 793.873 256.648C792.6 255.784 791.054 255.352 789.235 255.352C787.416 255.352 785.87 255.784 784.597 256.648C783.324 257.512 782.346 258.695 781.664 260.195C781.027 261.65 780.709 263.355 780.709 265.311C780.709 267.175 781.027 268.858 781.664 270.358C782.3 271.813 783.255 272.95 784.529 273.769C785.802 274.587 787.371 274.996 789.235 274.996ZM816.972 284V246.349H826.794V262.719H826.657C826.657 257.444 827.749 253.306 829.931 250.305C832.159 247.304 835.342 245.803 839.48 245.803H840.981V256.444H838.116C835.342 256.444 833.182 257.194 831.636 258.695C830.136 260.195 829.386 262.355 829.386 265.174V284H816.972ZM872.618 284L861.5 266.402H856.453L871.186 246.349H884.145L870.163 265.243V259.24L886.465 284H872.618ZM845.88 284V234.208H858.294V284H845.88ZM922.563 285.364C919.38 285.364 916.561 284.819 914.105 283.727C911.65 282.636 909.581 281.158 907.898 279.294C906.216 277.429 904.92 275.337 904.01 273.018C903.146 270.699 902.714 268.312 902.714 265.856V264.492C902.714 261.946 903.146 259.513 904.01 257.194C904.92 254.829 906.193 252.738 907.83 250.919C909.512 249.1 911.559 247.667 913.969 246.622C916.379 245.53 919.107 244.985 922.154 244.985C926.201 244.985 929.634 245.894 932.453 247.713C935.273 249.532 937.433 251.942 938.933 254.943C940.434 257.899 941.184 261.127 941.184 264.629V268.585H907.898V261.9H934.022L929.725 264.902C929.725 262.764 929.429 260.968 928.838 259.513C928.293 258.012 927.451 256.876 926.315 256.103C925.223 255.33 923.836 254.943 922.154 254.943C920.517 254.943 919.084 255.33 917.857 256.103C916.674 256.83 915.765 257.967 915.128 259.513C914.492 261.014 914.173 262.923 914.173 265.243C914.173 267.334 914.469 269.153 915.06 270.699C915.651 272.2 916.561 273.359 917.788 274.178C919.016 274.996 920.608 275.406 922.563 275.406C924.291 275.406 925.701 275.11 926.792 274.519C927.929 273.928 928.725 273.132 929.179 272.132H940.502C939.956 274.678 938.865 276.952 937.228 278.953C935.636 280.953 933.59 282.522 931.089 283.659C928.634 284.796 925.792 285.364 922.563 285.364ZM943.435 284L954.553 263.674L954.28 265.447L943.776 246.349H957.145L963.216 258.695H964.307L970.036 246.349H982.587L972.56 265.788L972.833 264.288L984.633 284H971.264L963.898 270.836H962.806L955.985 284H943.435ZM989.425 297.642V246.349H999.247V262.582H998.156C998.293 258.899 999.02 255.762 1000.34 253.17C1001.7 250.578 1003.54 248.622 1005.86 247.304C1008.18 245.939 1010.84 245.257 1013.84 245.257C1016.44 245.257 1018.78 245.735 1020.87 246.69C1022.96 247.599 1024.76 248.918 1026.26 250.646C1027.76 252.328 1028.9 254.329 1029.67 256.648C1030.49 258.967 1030.9 261.514 1030.9 264.288V265.925C1030.9 268.698 1030.53 271.268 1029.81 273.632C1029.08 275.951 1027.99 277.998 1026.53 279.771C1025.08 281.499 1023.28 282.84 1021.14 283.795C1019.05 284.75 1016.64 285.228 1013.91 285.228C1011 285.228 1008.43 284.659 1006.2 283.523C1003.98 282.34 1002.2 280.59 1000.88 278.27C999.611 275.906 998.929 272.95 998.838 269.403L1001.84 273.087V297.642H989.425ZM1010.16 274.996C1011.8 274.996 1013.23 274.587 1014.46 273.769C1015.73 272.905 1016.71 271.722 1017.39 270.222C1018.12 268.721 1018.48 267.016 1018.48 265.106C1018.48 263.151 1018.12 261.468 1017.39 260.059C1016.71 258.604 1015.75 257.489 1014.53 256.716C1013.3 255.898 1011.84 255.489 1010.16 255.489C1008.66 255.489 1007.25 255.83 1005.93 256.512C1004.66 257.194 1003.61 258.194 1002.79 259.513C1001.98 260.832 1001.57 262.423 1001.57 264.288V266.607C1001.57 268.38 1002 269.904 1002.86 271.177C1003.73 272.404 1004.82 273.359 1006.14 274.042C1007.46 274.678 1008.8 274.996 1010.16 274.996ZM1055.38 285.364C1052.2 285.364 1049.38 284.819 1046.93 283.727C1044.47 282.636 1042.4 281.158 1040.72 279.294C1039.04 277.429 1037.74 275.337 1036.83 273.018C1035.97 270.699 1035.54 268.312 1035.54 265.856V264.492C1035.54 261.946 1035.97 259.513 1036.83 257.194C1037.74 254.829 1039.01 252.738 1040.65 250.919C1042.33 249.1 1044.38 247.667 1046.79 246.622C1049.2 245.53 1051.93 244.985 1054.97 244.985C1059.02 244.985 1062.45 245.894 1065.27 247.713C1068.09 249.532 1070.25 251.942 1071.75 254.943C1073.25 257.899 1074 261.127 1074 264.629V268.585H1040.72V261.9H1066.84L1062.55 264.902C1062.55 262.764 1062.25 260.968 1061.66 259.513C1061.11 258.012 1060.27 256.876 1059.14 256.103C1058.04 255.33 1056.66 254.943 1054.97 254.943C1053.34 254.943 1051.91 255.33 1050.68 256.103C1049.5 256.83 1048.59 257.967 1047.95 259.513C1047.31 261.014 1046.99 262.923 1046.99 265.243C1046.99 267.334 1047.29 269.153 1047.88 270.699C1048.47 272.2 1049.38 273.359 1050.61 274.178C1051.84 274.996 1053.43 275.406 1055.38 275.406C1057.11 275.406 1058.52 275.11 1059.61 274.519C1060.75 273.928 1061.55 273.132 1062 272.132H1073.32C1072.78 274.678 1071.69 276.952 1070.05 278.953C1068.46 280.953 1066.41 282.522 1063.91 283.659C1061.45 284.796 1058.61 285.364 1055.38 285.364ZM1080.55 284V246.349H1090.37V262.719H1090.23C1090.23 257.444 1091.33 253.306 1093.51 250.305C1095.74 247.304 1098.92 245.803 1103.06 245.803H1104.56V256.444H1101.69C1098.92 256.444 1096.76 257.194 1095.21 258.695C1093.71 260.195 1092.96 262.355 1092.96 265.174V284H1080.55ZM1111.23 284V246.349H1123.64V284H1111.23ZM1106.46 255.352V246.349H1123.64V255.352H1106.46ZM1116.35 243.348C1114.07 243.348 1112.39 242.779 1111.3 241.642C1110.25 240.46 1109.73 238.959 1109.73 237.141C1109.73 235.322 1110.25 233.844 1111.3 232.707C1112.39 231.525 1114.05 230.934 1116.28 230.934C1118.55 230.934 1120.21 231.525 1121.26 232.707C1122.3 233.844 1122.83 235.322 1122.83 237.141C1122.83 238.959 1122.3 240.46 1121.26 241.642C1120.21 242.779 1118.57 243.348 1116.35 243.348ZM1150.44 285.364C1147.25 285.364 1144.43 284.819 1141.98 283.727C1139.52 282.636 1137.45 281.158 1135.77 279.294C1134.09 277.429 1132.79 275.337 1131.88 273.018C1131.02 270.699 1130.59 268.312 1130.59 265.856V264.492C1130.59 261.946 1131.02 259.513 1131.88 257.194C1132.79 254.829 1134.07 252.738 1135.7 250.919C1137.39 249.1 1139.43 247.667 1141.84 246.622C1144.25 245.53 1146.98 244.985 1150.03 244.985C1154.07 244.985 1157.51 245.894 1160.33 247.713C1163.15 249.532 1165.31 251.942 1166.81 254.943C1168.31 257.899 1169.06 261.127 1169.06 264.629V268.585H1135.77V261.9H1161.9L1157.6 264.902C1157.6 262.764 1157.3 260.968 1156.71 259.513C1156.17 258.012 1155.32 256.876 1154.19 256.103C1153.1 255.33 1151.71 254.943 1150.03 254.943C1148.39 254.943 1146.96 255.33 1145.73 256.103C1144.55 256.83 1143.64 257.967 1143 259.513C1142.37 261.014 1142.05 262.923 1142.05 265.243C1142.05 267.334 1142.34 269.153 1142.93 270.699C1143.52 272.2 1144.43 273.359 1145.66 274.178C1146.89 274.996 1148.48 275.406 1150.44 275.406C1152.16 275.406 1153.57 275.11 1154.67 274.519C1155.8 273.928 1156.6 273.132 1157.05 272.132H1168.38C1167.83 274.678 1166.74 276.952 1165.1 278.953C1163.51 280.953 1161.46 282.522 1158.96 283.659C1156.51 284.796 1153.67 285.364 1150.44 285.364ZM1175.6 284V246.349H1185.42V262.514H1184.88C1184.88 258.604 1185.38 255.375 1186.38 252.829C1187.38 250.237 1188.86 248.304 1190.81 247.031C1192.81 245.758 1195.22 245.121 1198.04 245.121H1198.59C1202.86 245.121 1206.16 246.553 1208.48 249.418C1210.84 252.237 1212.02 256.58 1212.02 262.446V284H1199.61V262.105C1199.61 260.377 1199.09 258.967 1198.04 257.876C1197.04 256.739 1195.65 256.171 1193.88 256.171C1192.11 256.171 1190.68 256.739 1189.58 257.876C1188.54 258.967 1188.01 260.422 1188.01 262.241V284H1175.6ZM1237.55 285.364C1234.28 285.364 1231.44 284.841 1229.03 283.795C1226.62 282.704 1224.59 281.249 1222.95 279.43C1221.36 277.611 1220.16 275.542 1219.34 273.223C1218.57 270.904 1218.18 268.494 1218.18 265.993V264.629C1218.18 261.991 1218.59 259.49 1219.41 257.126C1220.27 254.761 1221.52 252.669 1223.16 250.85C1224.8 249.032 1226.82 247.599 1229.23 246.553C1231.64 245.507 1234.41 244.985 1237.55 244.985C1241.01 244.985 1244.05 245.667 1246.69 247.031C1249.33 248.395 1251.42 250.282 1252.97 252.692C1254.56 255.057 1255.44 257.785 1255.63 260.877H1243.49C1243.35 259.377 1242.78 258.103 1241.78 257.058C1240.83 256.012 1239.42 255.489 1237.55 255.489C1235.96 255.489 1234.64 255.898 1233.6 256.716C1232.59 257.535 1231.84 258.672 1231.34 260.127C1230.84 261.582 1230.59 263.31 1230.59 265.311C1230.59 267.175 1230.8 268.835 1231.21 270.29C1231.66 271.745 1232.39 272.882 1233.39 273.7C1234.44 274.473 1235.82 274.86 1237.55 274.86C1238.82 274.86 1239.89 274.633 1240.76 274.178C1241.62 273.723 1242.3 273.087 1242.8 272.268C1243.3 271.404 1243.62 270.404 1243.76 269.267H1255.9C1255.72 272.45 1254.81 275.247 1253.17 277.657C1251.58 280.067 1249.44 281.954 1246.76 283.318C1244.08 284.682 1241.01 285.364 1237.55 285.364ZM1279.86 285.364C1276.68 285.364 1273.86 284.819 1271.4 283.727C1268.95 282.636 1266.88 281.158 1265.2 279.294C1263.51 277.429 1262.22 275.337 1261.31 273.018C1260.44 270.699 1260.01 268.312 1260.01 265.856V264.492C1260.01 261.946 1260.44 259.513 1261.31 257.194C1262.22 254.829 1263.49 252.738 1265.13 250.919C1266.81 249.1 1268.86 247.667 1271.27 246.622C1273.68 245.53 1276.4 244.985 1279.45 244.985C1283.5 244.985 1286.93 245.894 1289.75 247.713C1292.57 249.532 1294.73 251.942 1296.23 254.943C1297.73 257.899 1298.48 261.127 1298.48 264.629V268.585H1265.2V261.9H1291.32L1287.02 264.902C1287.02 262.764 1286.73 260.968 1286.14 259.513C1285.59 258.012 1284.75 256.876 1283.61 256.103C1282.52 255.33 1281.13 254.943 1279.45 254.943C1277.81 254.943 1276.38 255.33 1275.15 256.103C1273.97 256.83 1273.06 257.967 1272.43 259.513C1271.79 261.014 1271.47 262.923 1271.47 265.243C1271.47 267.334 1271.77 269.153 1272.36 270.699C1272.95 272.2 1273.86 273.359 1275.09 274.178C1276.31 274.996 1277.9 275.406 1279.86 275.406C1281.59 275.406 1283 275.11 1284.09 274.519C1285.23 273.928 1286.02 273.132 1286.48 272.132H1297.8C1297.25 274.678 1296.16 276.952 1294.53 278.953C1292.93 280.953 1290.89 282.522 1288.39 283.659C1285.93 284.796 1283.09 285.364 1279.86 285.364ZM1337.7 285.364C1334.38 285.364 1331.43 284.864 1328.84 283.864C1326.24 282.863 1324.04 281.476 1322.22 279.703C1320.45 277.929 1319.08 275.883 1318.13 273.564C1317.22 271.245 1316.76 268.767 1316.76 266.129V264.492C1316.76 261.764 1317.24 259.217 1318.2 256.853C1319.2 254.488 1320.61 252.419 1322.42 250.646C1324.24 248.872 1326.45 247.486 1329.04 246.485C1331.63 245.485 1334.52 244.985 1337.7 244.985C1340.93 244.985 1343.82 245.485 1346.37 246.485C1348.96 247.486 1351.16 248.872 1352.98 250.646C1354.8 252.419 1356.19 254.488 1357.14 256.853C1358.14 259.217 1358.64 261.764 1358.64 264.492V266.129C1358.64 268.767 1358.17 271.245 1357.21 273.564C1356.3 275.883 1354.94 277.929 1353.12 279.703C1351.35 281.476 1349.16 282.863 1346.57 283.864C1343.98 284.864 1341.02 285.364 1337.7 285.364ZM1337.7 274.996C1339.61 274.996 1341.18 274.587 1342.41 273.769C1343.68 272.95 1344.64 271.813 1345.27 270.358C1345.91 268.858 1346.23 267.175 1346.23 265.311C1346.23 263.355 1345.89 261.65 1345.21 260.195C1344.57 258.695 1343.61 257.512 1342.34 256.648C1341.07 255.784 1339.52 255.352 1337.7 255.352C1335.88 255.352 1334.34 255.784 1333.07 256.648C1331.79 257.512 1330.81 258.695 1330.13 260.195C1329.5 261.65 1329.18 263.355 1329.18 265.311C1329.18 267.175 1329.5 268.858 1330.13 270.358C1330.77 271.813 1331.72 272.95 1333 273.769C1334.27 274.587 1335.84 274.996 1337.7 274.996ZM1366.26 284V246.485C1366.26 242.074 1367.53 238.8 1370.08 236.663C1372.62 234.48 1376.4 233.389 1381.4 233.389H1386.24V242.529H1381.13C1380.04 242.529 1379.2 242.825 1378.6 243.416C1378.01 244.007 1377.72 244.848 1377.72 245.939V284H1366.26ZM1362.03 256.171V247.167H1386.79V256.171H1362.03ZM1423.41 284.546C1419.32 284.546 1416.05 284.045 1413.59 283.045C1411.18 282.045 1409.43 280.385 1408.34 278.066C1407.25 275.747 1406.7 272.609 1406.7 268.653L1406.77 236.527H1418.23L1418.16 268.994C1418.16 270.677 1418.59 271.973 1419.46 272.882C1420.36 273.746 1421.66 274.178 1423.34 274.178H1428.53V284.546H1423.41ZM1401.24 255.352V246.349H1428.53V255.352H1401.24ZM1435.18 284V234.208H1447.59V262.582H1445.96C1445.96 258.763 1446.44 255.557 1447.39 252.965C1448.35 250.373 1449.73 248.418 1451.55 247.099C1453.42 245.78 1455.71 245.121 1458.44 245.121H1458.99C1463.08 245.121 1466.19 246.599 1468.33 249.555C1470.51 252.51 1471.6 256.853 1471.6 262.582V284H1459.19V262.105C1459.19 260.377 1458.67 258.967 1457.62 257.876C1456.58 256.739 1455.19 256.171 1453.46 256.171C1451.73 256.171 1450.32 256.739 1449.23 257.876C1448.14 258.967 1447.59 260.422 1447.59 262.241V284H1435.18ZM1497.61 285.364C1494.43 285.364 1491.61 284.819 1489.15 283.727C1486.7 282.636 1484.63 281.158 1482.94 279.294C1481.26 277.429 1479.97 275.337 1479.06 273.018C1478.19 270.699 1477.76 268.312 1477.76 265.856V264.492C1477.76 261.946 1478.19 259.513 1479.06 257.194C1479.97 254.829 1481.24 252.738 1482.88 250.919C1484.56 249.1 1486.6 247.667 1489.01 246.622C1491.42 245.53 1494.15 244.985 1497.2 244.985C1501.25 244.985 1504.68 245.894 1507.5 247.713C1510.32 249.532 1512.48 251.942 1513.98 254.943C1515.48 257.899 1516.23 261.127 1516.23 264.629V268.585H1482.94V261.9H1509.07L1504.77 264.902C1504.77 262.764 1504.48 260.968 1503.88 259.513C1503.34 258.012 1502.5 256.876 1501.36 256.103C1500.27 255.33 1498.88 254.943 1497.2 254.943C1495.56 254.943 1494.13 255.33 1492.9 256.103C1491.72 256.83 1490.81 257.967 1490.17 259.513C1489.54 261.014 1489.22 262.923 1489.22 265.243C1489.22 267.334 1489.51 269.153 1490.11 270.699C1490.7 272.2 1491.61 273.359 1492.83 274.178C1494.06 274.996 1495.65 275.406 1497.61 275.406C1499.34 275.406 1500.75 275.11 1501.84 274.519C1502.97 273.928 1503.77 273.132 1504.23 272.132H1515.55C1515 274.678 1513.91 276.952 1512.27 278.953C1510.68 280.953 1508.64 282.522 1506.14 283.659C1503.68 284.796 1500.84 285.364 1497.61 285.364ZM1549.31 285.228C1545.04 285.228 1541.72 283.841 1539.36 281.067C1537.04 278.248 1535.88 273.951 1535.88 268.176V246.349H1548.29V268.517C1548.29 270.199 1548.79 271.563 1549.79 272.609C1550.79 273.655 1552.13 274.178 1553.82 274.178C1555.5 274.178 1556.86 273.655 1557.91 272.609C1558.95 271.563 1559.48 270.154 1559.48 268.38V246.349H1571.89V284H1562.07V268.176H1562.75C1562.75 272.041 1562.25 275.247 1561.25 277.793C1560.3 280.294 1558.86 282.158 1556.95 283.386C1555.04 284.614 1552.68 285.228 1549.86 285.228H1549.31ZM1595.99 285.228C1590.54 285.228 1586.24 284.114 1583.1 281.886C1579.97 279.612 1578.28 276.429 1578.06 272.336H1588.97C1589.15 273.473 1589.86 274.451 1591.08 275.269C1592.31 276.088 1594.04 276.497 1596.27 276.497C1597.86 276.497 1599.22 276.27 1600.36 275.815C1601.54 275.315 1602.13 274.519 1602.13 273.428C1602.13 272.473 1601.68 271.7 1600.77 271.109C1599.86 270.472 1598.2 270.04 1595.79 269.813L1593.2 269.54C1588.38 269.04 1584.83 267.721 1582.56 265.584C1580.28 263.446 1579.15 260.764 1579.15 257.535C1579.15 254.761 1579.83 252.488 1581.19 250.714C1582.56 248.895 1584.44 247.531 1586.85 246.622C1589.27 245.712 1592.02 245.257 1595.11 245.257C1600.16 245.257 1604.23 246.371 1607.32 248.6C1610.41 250.782 1612.05 253.943 1612.23 258.081H1601.32C1601.13 256.944 1600.52 255.989 1599.47 255.216C1598.43 254.397 1596.93 253.988 1594.97 253.988C1593.56 253.988 1592.4 254.238 1591.49 254.738C1590.63 255.239 1590.2 255.943 1590.2 256.853C1590.2 257.808 1590.61 258.513 1591.42 258.967C1592.29 259.422 1593.65 259.763 1595.52 259.99L1598.11 260.263C1602.93 260.764 1606.64 262.105 1609.23 264.288C1611.86 266.425 1613.18 269.244 1613.18 272.746C1613.18 275.337 1612.48 277.566 1611.07 279.43C1609.7 281.294 1607.73 282.727 1605.13 283.727C1602.59 284.728 1599.54 285.228 1595.99 285.228ZM1637.02 285.364C1633.84 285.364 1631.02 284.819 1628.57 283.727C1626.11 282.636 1624.04 281.158 1622.36 279.294C1620.68 277.429 1619.38 275.337 1618.47 273.018C1617.61 270.699 1617.18 268.312 1617.18 265.856V264.492C1617.18 261.946 1617.61 259.513 1618.47 257.194C1619.38 254.829 1620.65 252.738 1622.29 250.919C1623.97 249.1 1626.02 247.667 1628.43 246.622C1630.84 245.53 1633.57 244.985 1636.61 244.985C1640.66 244.985 1644.1 245.894 1646.91 247.713C1649.73 249.532 1651.89 251.942 1653.39 254.943C1654.89 257.899 1655.65 261.127 1655.65 264.629V268.585H1622.36V261.9H1648.48L1644.19 264.902C1644.19 262.764 1643.89 260.968 1643.3 259.513C1642.75 258.012 1641.91 256.876 1640.78 256.103C1639.68 255.33 1638.3 254.943 1636.61 254.943C1634.98 254.943 1633.55 255.33 1632.32 256.103C1631.14 256.83 1630.23 257.967 1629.59 259.513C1628.95 261.014 1628.63 262.923 1628.63 265.243C1628.63 267.334 1628.93 269.153 1629.52 270.699C1630.11 272.2 1631.02 273.359 1632.25 274.178C1633.48 274.996 1635.07 275.406 1637.02 275.406C1638.75 275.406 1640.16 275.11 1641.25 274.519C1642.39 273.928 1643.19 273.132 1643.64 272.132H1654.96C1654.42 274.678 1653.33 276.952 1651.69 278.953C1650.1 280.953 1648.05 282.522 1645.55 283.659C1643.09 284.796 1640.25 285.364 1637.02 285.364ZM1662.19 284V246.349H1672.01V262.719H1671.87C1671.87 257.444 1672.97 253.306 1675.15 250.305C1677.38 247.304 1680.56 245.803 1684.7 245.803H1686.2V256.444H1683.33C1680.56 256.444 1678.4 257.194 1676.85 258.695C1675.35 260.195 1674.6 262.355 1674.6 265.174V284H1662.19ZM1706.03 285.228C1700.58 285.228 1696.28 284.114 1693.14 281.886C1690.01 279.612 1688.32 276.429 1688.1 272.336H1699.01C1699.19 273.473 1699.9 274.451 1701.12 275.269C1702.35 276.088 1704.08 276.497 1706.31 276.497C1707.9 276.497 1709.26 276.27 1710.4 275.815C1711.58 275.315 1712.17 274.519 1712.17 273.428C1712.17 272.473 1711.72 271.7 1710.81 271.109C1709.9 270.472 1708.24 270.04 1705.83 269.813L1703.24 269.54C1698.42 269.04 1694.87 267.721 1692.6 265.584C1690.32 263.446 1689.19 260.764 1689.19 257.535C1689.19 254.761 1689.87 252.488 1691.23 250.714C1692.6 248.895 1694.48 247.531 1696.89 246.622C1699.31 245.712 1702.06 245.257 1705.15 245.257C1710.2 245.257 1714.27 246.371 1717.36 248.6C1720.45 250.782 1722.09 253.943 1722.27 258.081H1711.36C1711.17 256.944 1710.56 255.989 1709.51 255.216C1708.47 254.397 1706.97 253.988 1705.01 253.988C1703.6 253.988 1702.44 254.238 1701.53 254.738C1700.67 255.239 1700.24 255.943 1700.24 256.853C1700.24 257.808 1700.65 258.513 1701.46 258.967C1702.33 259.422 1703.69 259.763 1705.56 259.99L1708.15 260.263C1712.97 260.764 1716.68 262.105 1719.27 264.288C1721.9 266.425 1723.22 269.244 1723.22 272.746C1723.22 275.337 1722.52 277.566 1721.11 279.43C1719.74 281.294 1717.77 282.727 1715.17 283.727C1712.63 284.728 1709.58 285.228 1706.03 285.228ZM1726.55 258.353V251.26H1729.14C1730.33 251.26 1731.26 251.101 1731.94 250.782C1732.67 250.464 1733.19 249.873 1733.51 249.009C1733.87 248.099 1734.06 246.826 1734.06 245.189V240.21L1736.31 244.848C1735.99 245.121 1735.51 245.371 1734.87 245.598C1734.24 245.78 1733.53 245.871 1732.76 245.871C1731.03 245.871 1729.58 245.348 1728.39 244.302C1727.26 243.257 1726.69 241.779 1726.69 239.869C1726.69 238.095 1727.23 236.572 1728.33 235.299C1729.46 234.026 1731.12 233.389 1733.31 233.389C1734.71 233.389 1735.99 233.73 1737.12 234.412C1738.31 235.049 1739.24 236.14 1739.92 237.686C1740.65 239.187 1741.01 241.233 1741.01 243.825V244.712C1741.01 247.895 1740.54 250.487 1739.58 252.488C1738.63 254.488 1737.22 255.966 1735.35 256.921C1733.49 257.876 1731.17 258.353 1728.39 258.353H1726.55ZM1743.47 258.353V251.26H1746.06C1747.24 251.26 1748.17 251.101 1748.86 250.782C1749.58 250.464 1750.11 249.873 1750.43 249.009C1750.79 248.099 1750.97 246.826 1750.97 245.189V240.21L1753.22 244.848C1752.9 245.121 1752.43 245.371 1751.79 245.598C1751.15 245.78 1750.45 245.871 1749.68 245.871C1747.95 245.871 1746.49 245.348 1745.31 244.302C1744.17 243.257 1743.6 241.779 1743.6 239.869C1743.6 238.095 1744.15 236.572 1745.24 235.299C1746.38 234.026 1748.04 233.389 1750.22 233.389C1751.63 233.389 1752.9 233.73 1754.04 234.412C1755.22 235.049 1756.16 236.14 1756.84 237.686C1757.56 239.187 1757.93 241.233 1757.93 243.825V244.712C1757.93 247.895 1757.45 250.487 1756.5 252.488C1755.54 254.488 1754.13 255.966 1752.27 256.921C1750.4 257.876 1748.08 258.353 1745.31 258.353H1743.47Z" fill="#95879C"/>
</svg>
