<svg width="1900" height="350" viewBox="0 0 1900 350" fill="none" xmlns="http://www.w3.org/2000/svg">
<rect width="1900" height="350" fill="#FAFAFA"/>
<path d="M299.824 310.564V120.443H336.23V180.615H332.185C332.691 166.962 335.388 155.333 340.275 145.725C345.332 136.118 352.158 128.871 360.754 123.983C369.35 118.926 379.21 116.398 390.334 116.398C399.941 116.398 408.621 118.168 416.374 121.708C424.127 125.078 430.785 129.966 436.347 136.371C441.909 142.607 446.123 150.023 448.988 158.619C452.022 167.215 453.539 176.654 453.539 186.935V193.003C453.539 203.284 452.19 212.807 449.494 221.571C446.797 230.167 442.752 237.752 437.358 244.325C431.965 250.73 425.307 255.702 417.386 259.242C409.632 262.781 400.699 264.551 390.587 264.551C379.8 264.551 370.277 262.444 362.018 258.23C353.759 253.848 347.186 247.359 342.298 238.763C337.579 229.999 335.051 219.043 334.713 205.897L345.838 219.549V310.564H299.824ZM376.682 226.628C382.749 226.628 388.058 225.111 392.609 222.077C397.329 218.875 400.952 214.492 403.48 208.93C406.177 203.368 407.526 197.048 407.526 189.969C407.526 182.721 406.177 176.485 403.48 171.26C400.952 165.867 397.413 161.737 392.862 158.872C388.311 155.838 382.918 154.321 376.682 154.321C371.12 154.321 365.895 155.585 361.007 158.114C356.287 160.642 352.411 164.35 349.377 169.238C346.343 174.126 344.826 180.025 344.826 186.935V195.531C344.826 202.104 346.427 207.751 349.63 212.47C352.832 217.021 356.877 220.56 361.765 223.088C366.653 225.448 371.625 226.628 376.682 226.628ZM478.823 260V120.443H515.229V181.12H514.723C514.723 161.569 518.768 146.231 526.859 135.107C535.117 123.983 546.916 118.421 562.253 118.421H567.815V157.861H557.197C546.916 157.861 538.91 160.642 533.179 166.204C527.617 171.766 524.836 179.772 524.836 190.222V260H478.823ZM655.007 265.056C642.703 265.056 631.747 263.202 622.14 259.494C612.533 255.786 604.358 250.646 597.617 244.072C591.043 237.499 585.987 229.914 582.447 221.319C579.076 212.723 577.391 203.537 577.391 193.761V187.694C577.391 177.581 579.161 168.142 582.7 159.378C586.408 150.613 591.633 142.944 598.375 136.371C605.117 129.798 613.291 124.657 622.899 120.949C632.506 117.241 643.208 115.387 655.007 115.387C666.973 115.387 677.676 117.241 687.115 120.949C696.722 124.657 704.896 129.798 711.638 136.371C718.38 142.944 723.521 150.613 727.06 159.378C730.768 168.142 732.622 177.581 732.622 187.694V193.761C732.622 203.537 730.853 212.723 727.313 221.319C723.942 229.914 718.886 237.499 712.144 244.072C705.571 250.646 697.48 255.786 687.873 259.494C678.266 263.202 667.311 265.056 655.007 265.056ZM655.007 226.628C662.086 226.628 667.9 225.111 672.451 222.077C677.171 219.043 680.71 214.83 683.07 209.436C685.429 203.874 686.609 197.638 686.609 190.727C686.609 183.48 685.345 177.159 682.817 171.766C680.457 166.204 676.918 161.822 672.198 158.619C667.479 155.417 661.748 153.816 655.007 153.816C648.265 153.816 642.534 155.417 637.815 158.619C633.096 161.822 629.472 166.204 626.944 171.766C624.584 177.159 623.404 183.48 623.404 190.727C623.404 197.638 624.584 203.874 626.944 209.436C629.303 214.83 632.843 219.043 637.562 222.077C642.281 225.111 648.096 226.628 655.007 226.628ZM824.305 262.023C809.136 262.023 797.001 260.169 787.899 256.461C778.966 252.752 772.477 246.601 768.432 238.005C764.387 229.409 762.364 217.779 762.364 203.116L762.617 84.0373H805.091L804.838 204.38C804.838 210.616 806.439 215.419 809.642 218.79C813.012 221.993 817.816 223.594 824.052 223.594H843.267V262.023H824.305ZM742.139 153.816V120.443H843.267V153.816H742.139ZM936.96 265.056C924.656 265.056 913.701 263.202 904.093 259.494C894.486 255.786 886.312 250.646 879.57 244.072C872.997 237.499 867.94 229.914 864.401 221.319C861.03 212.723 859.344 203.537 859.344 193.761V187.694C859.344 177.581 861.114 168.142 864.654 159.378C868.362 150.613 873.587 142.944 880.328 136.371C887.07 129.798 895.245 124.657 904.852 120.949C914.459 117.241 925.162 115.387 936.96 115.387C948.927 115.387 959.63 117.241 969.068 120.949C978.675 124.657 986.85 129.798 993.592 136.371C1000.33 142.944 1005.47 150.613 1009.01 159.378C1012.72 168.142 1014.58 177.581 1014.58 187.694V193.761C1014.58 203.537 1012.81 212.723 1009.27 221.319C1005.9 229.914 1000.84 237.499 994.097 244.072C987.524 250.646 979.434 255.786 969.827 259.494C960.219 263.202 949.264 265.056 936.96 265.056ZM936.96 226.628C944.039 226.628 949.854 225.111 954.405 222.077C959.124 219.043 962.663 214.83 965.023 209.436C967.383 203.874 968.563 197.638 968.563 190.727C968.563 183.48 967.298 177.159 964.77 171.766C962.411 166.204 958.871 161.822 954.152 158.619C949.433 155.417 943.702 153.816 936.96 153.816C930.218 153.816 924.488 155.417 919.768 158.619C915.049 161.822 911.425 166.204 908.897 171.766C906.537 177.159 905.358 183.48 905.358 190.727C905.358 197.638 906.537 203.874 908.897 209.436C911.257 214.83 914.796 219.043 919.515 222.077C924.235 225.111 930.05 226.628 936.96 226.628ZM1106.26 262.023C1091.09 262.023 1078.95 260.169 1069.85 256.461C1060.92 252.752 1054.43 246.601 1050.39 238.005C1046.34 229.409 1044.32 217.779 1044.32 203.116L1044.57 84.0373H1087.04L1086.79 204.38C1086.79 210.616 1088.39 215.419 1091.59 218.79C1094.97 221.993 1099.77 223.594 1106.01 223.594H1125.22V262.023H1106.26ZM1024.09 153.816V120.443H1125.22V153.816H1024.09ZM1150.89 315.62V277.192H1183C1186.88 277.192 1190.16 276.686 1192.86 275.675C1195.56 274.664 1197.75 272.978 1199.43 270.618C1201.12 268.427 1202.38 265.309 1203.23 261.264L1234.58 120.443H1278.06L1241.4 270.113C1238.71 281.574 1234.91 290.591 1230.03 297.165C1225.31 303.906 1218.73 308.626 1210.31 311.322C1202.05 314.188 1191.26 315.62 1177.94 315.62H1150.89ZM1195.14 256.966V221.571H1224.46V256.966H1195.14ZM1173.9 256.966L1133.2 120.443H1179.21L1217.38 256.966H1173.9ZM1295.8 310.564V120.443H1332.2V180.615H1328.16C1328.66 166.962 1331.36 155.333 1336.25 145.725C1341.3 136.118 1348.13 128.871 1356.73 123.983C1365.32 118.926 1375.18 116.398 1386.31 116.398C1395.91 116.398 1404.59 118.168 1412.35 121.708C1420.1 125.078 1426.76 129.966 1432.32 136.371C1437.88 142.607 1442.09 150.023 1444.96 158.619C1447.99 167.215 1449.51 176.654 1449.51 186.935V193.003C1449.51 203.284 1448.16 212.807 1445.47 221.571C1442.77 230.167 1438.72 237.752 1433.33 244.325C1427.94 250.73 1421.28 255.702 1413.36 259.242C1405.6 262.781 1396.67 264.551 1386.56 264.551C1375.77 264.551 1366.25 262.444 1357.99 258.23C1349.73 253.848 1343.16 247.359 1338.27 238.763C1333.55 229.999 1331.02 219.043 1330.69 205.897L1341.81 219.549V310.564H1295.8ZM1372.65 226.628C1378.72 226.628 1384.03 225.111 1388.58 222.077C1393.3 218.875 1396.92 214.492 1399.45 208.93C1402.15 203.368 1403.5 197.048 1403.5 189.969C1403.5 182.721 1402.15 176.485 1399.45 171.26C1396.92 165.867 1393.38 161.737 1388.83 158.872C1384.28 155.838 1378.89 154.321 1372.65 154.321C1367.09 154.321 1361.87 155.585 1356.98 158.114C1352.26 160.642 1348.38 164.35 1345.35 169.238C1342.32 174.126 1340.8 180.025 1340.8 186.935V195.531C1340.8 202.104 1342.4 207.751 1345.6 212.47C1348.8 217.021 1352.85 220.56 1357.74 223.088C1362.63 225.448 1367.6 226.628 1372.65 226.628ZM1540.28 265.056C1528.48 265.056 1518.03 263.034 1508.93 258.989C1499.82 254.944 1492.16 249.466 1485.92 242.555C1479.68 235.645 1474.88 227.892 1471.51 219.296C1468.31 210.7 1466.7 201.851 1466.7 192.75V187.694C1466.7 178.255 1468.31 169.238 1471.51 160.642C1474.88 151.877 1479.6 144.124 1485.67 137.382C1491.9 130.64 1499.49 125.331 1508.42 121.455C1517.35 117.41 1527.47 115.387 1538.76 115.387C1553.76 115.387 1566.48 118.758 1576.93 125.5C1587.38 132.242 1595.39 141.175 1600.95 152.299C1606.51 163.254 1609.3 175.221 1609.3 188.199V202.863H1485.92V178.086H1582.75L1566.82 189.21C1566.82 181.289 1565.73 174.631 1563.53 169.238C1561.51 163.676 1558.39 159.462 1554.18 156.597C1550.14 153.731 1544.99 152.299 1538.76 152.299C1532.69 152.299 1527.38 153.731 1522.83 156.597C1518.45 159.293 1515.08 163.507 1512.72 169.238C1510.36 174.8 1509.18 181.879 1509.18 190.475C1509.18 198.228 1510.27 204.97 1512.47 210.7C1514.66 216.262 1518.03 220.56 1522.58 223.594C1527.13 226.628 1533.03 228.145 1540.28 228.145C1546.68 228.145 1551.9 227.049 1555.95 224.858C1560.16 222.667 1563.11 219.717 1564.8 216.009H1606.77C1604.74 225.448 1600.7 233.875 1594.63 241.291C1588.73 248.707 1581.15 254.522 1571.88 258.736C1562.78 262.95 1552.24 265.056 1540.28 265.056Z" fill="#E1E1E1"/>
</svg>
