<svg width="500" height="500" viewBox="0 0 500 500" fill="none" xmlns="http://www.w3.org/2000/svg">
<g clip-path="url(#clip0_748_6590)">
<rect width="500" height="500" fill="#3898B5"/>
<g opacity="0.9" filter="url(#filter0_d_748_6590)">
<path d="M164.004 191.49C83.5985 272.7 84.2504 403.715 165.46 484.121C246.67 564.526 377.685 563.875 458.091 482.665C538.497 401.455 537.845 270.44 456.635 190.034C375.425 109.628 244.41 110.28 164.004 191.49ZM445.831 470.526C372.129 544.965 252.038 545.563 177.599 471.861C103.16 398.159 102.562 278.067 176.264 203.629C249.966 129.19 370.058 128.592 444.496 202.294C518.935 275.996 519.533 396.087 445.831 470.526Z" fill="url(#paint0_linear_748_6590)"/>
<path d="M164.004 191.49C83.5985 272.7 84.2504 403.715 165.46 484.121C246.67 564.526 377.685 563.875 458.091 482.665C538.497 401.455 537.845 270.44 456.635 190.034C375.425 109.628 244.41 110.28 164.004 191.49ZM445.831 470.526C372.129 544.965 252.038 545.563 177.599 471.861C103.16 398.159 102.562 278.067 176.264 203.629C249.966 129.19 370.058 128.592 444.496 202.294C518.935 275.996 519.533 396.087 445.831 470.526Z" fill="url(#paint1_linear_748_6590)"/>
<path d="M210.305 85.9126C141.156 155.753 141.716 268.426 211.557 337.575C281.397 406.724 394.07 406.163 463.219 336.323C532.368 266.482 531.807 153.809 461.967 84.6604C392.127 15.5115 279.453 16.0721 210.305 85.9126ZM452.676 325.884C389.292 389.901 286.013 390.415 221.996 327.032C157.978 263.648 157.465 160.369 220.848 96.3516C284.232 32.3342 387.511 31.8203 451.528 95.2038C515.545 158.587 516.059 261.866 452.676 325.884Z" fill="url(#paint2_linear_748_6590)"/>
<path d="M428.973 217.971C400.831 246.394 401.059 292.25 429.483 320.392C457.906 348.534 503.761 348.306 531.903 319.882C560.045 291.459 559.817 245.603 531.394 217.461C502.97 189.319 457.115 189.548 428.973 217.971ZM521.954 310.032C499.253 332.961 462.262 333.145 439.333 310.443C416.404 287.741 416.22 250.75 438.922 227.821C461.624 204.893 498.615 204.709 521.543 227.41C544.472 250.112 544.656 287.103 521.954 310.032Z" fill="url(#paint3_linear_748_6590)"/>
<path d="M127.229 152.167C99.0874 180.591 99.3155 226.446 127.739 254.588C156.162 282.73 202.018 282.502 230.16 254.078C258.302 225.655 258.073 179.799 229.65 151.657C201.227 123.516 155.371 123.744 127.229 152.167ZM220.211 244.228C197.509 267.157 160.518 267.341 137.589 244.639C114.661 221.937 114.477 184.946 137.178 162.018C159.88 139.089 196.871 138.905 219.8 161.606C242.728 184.308 242.912 221.299 220.211 244.228Z" fill="url(#paint4_linear_748_6590)"/>
</g>
<path d="M118.734 546.1C29.7182 766.646 29.6075 585.958 40.6791 468.046C148.35 412.411 314.701 350.133 118.734 546.1Z" fill="url(#paint5_linear_748_6590)" fill-opacity="0.7"/>
<path d="M88.0101 515.374C-1.00542 735.92 -1.11614 555.231 9.95544 437.319C117.627 381.684 283.977 319.407 88.0101 515.374Z" fill="url(#paint6_linear_748_6590)" fill-opacity="0.7"/>
<path d="M37.3538 464.721C-51.6617 685.267 -51.7724 504.579 -40.7008 386.666C66.9703 331.032 233.321 268.754 37.3538 464.721Z" fill="url(#paint7_linear_748_6590)" fill-opacity="0.7"/>
<path d="M507.253 45.5475C398.041 316.133 397.905 94.4485 411.489 -50.217C543.589 -118.475 747.683 -194.882 507.253 45.5475Z" fill="url(#paint8_linear_748_6590)" fill-opacity="0.7"/>
<path d="M469.559 7.84875C360.347 278.434 360.211 56.7497 373.795 -87.9157C505.896 -156.173 709.989 -232.581 469.559 7.84875Z" fill="url(#paint9_linear_748_6590)" fill-opacity="0.7"/>
<path d="M407.41 -54.2963C298.198 216.289 298.062 -5.39527 311.646 -150.061C443.746 -218.318 647.84 -294.726 407.41 -54.2963Z" fill="url(#paint10_linear_748_6590)" fill-opacity="0.7"/>
<path d="M-50.3625 573.245L-4.54346 619.064L41.2756 573.245L-4.54346 527.426L-50.3625 573.245ZM302.04 441.749L304.138 434.095L302.04 441.749ZM603.844 239.61C608.226 239.519 611.704 235.893 611.613 231.511C611.522 227.129 607.896 223.65 603.514 223.741L603.844 239.61ZM-4.54346 581.181C26.5862 581.181 48.4339 577.05 63.1168 569.2C78.4072 561.026 85.5668 548.99 87.258 535.171C88.8615 522.07 85.4951 507.833 81.3462 494.594C79.2444 487.887 76.8307 481.115 74.5741 474.666C72.2921 468.145 70.1617 461.93 68.4884 456.023C65.0342 443.83 64.0823 434.689 66.3905 428.245C68.3371 422.811 73.386 417.379 87.7708 414.614C102.443 411.793 125.321 412.136 160.002 417.489C194.529 422.818 240.132 433.006 299.942 449.403L304.138 434.095C244.035 417.618 197.786 407.26 162.423 401.802C127.216 396.368 102.167 395.684 84.7745 399.027C67.0948 402.426 55.9414 410.349 51.4481 422.893C47.3163 434.427 49.6867 447.887 53.2172 460.349C55.0362 466.77 57.3137 473.396 59.5927 479.909C61.8972 486.494 64.1975 492.949 66.2003 499.34C70.2607 512.297 72.666 523.744 71.5034 533.243C70.4286 542.025 66.2845 549.509 55.6335 555.203C44.3749 561.222 25.6436 565.309 -4.54346 565.309V581.181ZM299.942 449.403C360 465.868 402.901 475.191 432.778 478.751C447.706 480.53 459.711 480.913 469.142 479.908C478.441 478.916 486.198 476.477 491.623 471.721C497.449 466.614 499.485 459.838 499.181 452.885C498.892 446.286 496.519 439.249 493.364 432.316C487.072 418.492 476.146 401.989 465.766 385.418C455.149 368.47 444.818 351.048 438.609 334.288C432.383 317.478 430.783 302.598 435.938 290.07C441.016 277.728 453.5 265.668 480.04 256.346C506.626 247.008 546.307 240.805 603.844 239.61L603.514 223.741C545.257 224.952 503.657 231.228 474.78 241.371C445.858 251.53 428.698 265.954 421.259 284.031C413.898 301.922 416.907 321.394 423.726 339.801C430.562 358.258 441.711 376.917 452.315 393.845C463.157 411.151 473.195 426.319 478.918 438.892C481.77 445.157 483.167 450 483.324 453.579C483.465 456.803 482.623 458.503 481.16 459.785C479.298 461.418 475.355 463.283 467.459 464.125C459.693 464.953 449.006 464.701 434.656 462.991C405.98 459.573 363.994 450.504 304.138 434.095L299.942 449.403Z" fill="#61BED9"/>
<g clip-path="url(#clip1_748_6590)" filter="url(#filter1_b_748_6590)">
<circle cx="115.852" cy="88.2288" r="52.7668" fill="#DEE9ED"/>
<g opacity="0.3" filter="url(#filter2_d_748_6590)">
<path d="M81.8182 92.4498C81.8182 112.123 97.7662 128.071 117.439 128.071C137.112 128.071 153.06 112.123 153.06 92.4498C153.06 72.7769 137.112 56.8289 117.439 56.8289C97.7662 56.8289 81.8182 72.7769 81.8182 92.4498ZM150.09 92.4498C150.09 110.482 135.472 125.101 117.439 125.101C99.4065 125.101 84.7881 110.482 84.7881 92.4498C84.7881 74.4171 99.4065 59.7988 117.439 59.7988C135.472 59.7988 150.09 74.4171 150.09 92.4498Z" fill="url(#paint11_linear_748_6590)" fill-opacity="0.7"/>
<path d="M81.8182 92.4498C81.8182 112.123 97.7662 128.071 117.439 128.071C137.112 128.071 153.06 112.123 153.06 92.4498C153.06 72.7769 137.112 56.8289 117.439 56.8289C97.7662 56.8289 81.8182 72.7769 81.8182 92.4498ZM150.09 92.4498C150.09 110.482 135.472 125.101 117.439 125.101C99.4065 125.101 84.7881 110.482 84.7881 92.4498C84.7881 74.4171 99.4065 59.7988 117.439 59.7988C135.472 59.7988 150.09 74.4171 150.09 92.4498Z" fill="url(#paint12_linear_748_6590)" fill-opacity="0.7"/>
<path d="M74.6944 73.9267C74.6944 90.8454 88.4097 104.561 105.328 104.561C122.247 104.561 135.962 90.8454 135.962 73.9267C135.962 57.008 122.247 43.2927 105.328 43.2927C88.4097 43.2927 74.6944 57.008 74.6944 73.9267ZM133.408 73.9267C133.408 89.4348 120.836 102.007 105.328 102.007C89.8203 102.007 77.2485 89.4348 77.2485 73.9267C77.2485 58.4186 89.8203 45.8469 105.328 45.8469C120.836 45.8469 133.408 58.4186 133.408 73.9267Z" fill="url(#paint13_linear_748_6590)" fill-opacity="0.7"/>
<path d="M117.439 63.5965C117.439 70.482 123.021 76.0638 129.906 76.0638C136.792 76.0638 142.374 70.482 142.374 63.5965C142.374 56.711 136.792 51.1292 129.906 51.1292C123.021 51.1292 117.439 56.711 117.439 63.5965ZM139.963 63.5965C139.963 69.1509 135.461 73.6537 129.906 73.6537C124.352 73.6537 119.849 69.1509 119.849 63.5965C119.849 58.042 124.352 53.5393 129.906 53.5393C135.461 53.5393 139.963 58.042 139.963 63.5965Z" fill="url(#paint14_linear_748_6590)" fill-opacity="0.7"/>
<path d="M72.5566 92.0935C72.5566 98.9791 78.1384 104.561 85.0239 104.561C91.9094 104.561 97.4912 98.9791 97.4912 92.0935C97.4912 85.208 91.9094 79.6262 85.0239 79.6262C78.1384 79.6262 72.5566 85.208 72.5566 92.0935ZM95.0811 92.0935C95.0811 97.648 90.5783 102.151 85.0239 102.151C79.4694 102.151 74.9667 97.648 74.9667 92.0935C74.9667 86.5391 79.4694 82.0363 85.0239 82.0363C90.5783 82.0363 95.0811 86.5391 95.0811 92.0935Z" fill="url(#paint15_linear_748_6590)" fill-opacity="0.7"/>
</g>
<path d="M112.15 129.017C102.184 153.708 102.172 133.479 103.411 120.278C115.466 114.049 134.09 107.077 112.15 129.017Z" fill="url(#paint16_linear_748_6590)" fill-opacity="0.7"/>
<path d="M108.71 125.576C98.744 150.267 98.7317 130.038 99.9712 116.837C112.026 110.609 130.65 103.636 108.71 125.576Z" fill="url(#paint17_linear_748_6590)" fill-opacity="0.7"/>
<path d="M103.038 119.905C93.0727 144.597 93.0603 124.368 94.2998 111.167C106.354 104.938 124.978 97.9658 103.038 119.905Z" fill="url(#paint18_linear_748_6590)" fill-opacity="0.7"/>
<path d="M116.342 47.6121C126.308 22.9207 126.32 43.1498 125.081 56.3508C113.026 62.5794 94.4022 69.5518 116.342 47.6121Z" fill="url(#paint19_linear_748_6590)" fill-opacity="0.7"/>
<path d="M119.782 51.0518C129.748 26.3604 129.76 46.5895 128.521 59.7905C116.466 66.0191 97.8421 72.9915 119.782 51.0518Z" fill="url(#paint20_linear_748_6590)" fill-opacity="0.7"/>
<path d="M125.452 56.7227C135.418 32.0313 135.43 52.2604 134.191 65.4614C122.136 71.69 103.513 78.6624 125.452 56.7227Z" fill="url(#paint21_linear_748_6590)" fill-opacity="0.7"/>
<g filter="url(#filter3_d_748_6590)">
<path d="M94.5303 81.0959C94.5303 73.2593 100.883 66.9065 108.72 66.9065H132.842V91.0285C132.842 98.8651 126.489 105.218 118.652 105.218H94.5303V81.0959Z" fill="#61BED9" fill-opacity="0.4"/>
<path d="M98.4326 81.0959C98.4326 73.2593 104.785 66.9065 112.622 66.9065H136.744V91.0285C136.744 98.8651 130.391 105.218 122.555 105.218H98.4326V81.0959Z" fill="#61BED9"/>
<path d="M110.753 98.315C110.481 98.4466 110.126 98.5125 109.688 98.5125C109.116 98.5125 108.666 98.3444 108.339 98.0084C108.012 97.6724 107.848 97.2246 107.848 96.6652C107.848 96.0693 108.032 95.5861 108.399 95.2154C108.768 94.8447 109.246 94.6594 109.833 94.6594C110.197 94.6594 110.503 94.7053 110.753 94.7971V95.6051C110.503 95.4562 110.219 95.3817 109.901 95.3817C109.551 95.3817 109.268 95.4917 109.054 95.7116C108.839 95.9316 108.731 96.2295 108.731 96.6054C108.731 96.9657 108.833 97.2532 109.035 97.468C109.238 97.6811 109.511 97.7876 109.854 97.7876C110.181 97.7876 110.481 97.7079 110.753 97.5485V98.315ZM112.139 98.4475H111.318V94.5087H112.139V98.4475ZM115.353 98.4475H114.535V98.0422H114.522C114.319 98.3557 114.048 98.5125 113.709 98.5125C113.092 98.5125 112.784 98.1392 112.784 97.3927V95.787H113.602V97.3199C113.602 97.6958 113.751 97.8837 114.049 97.8837C114.196 97.8837 114.314 97.8326 114.402 97.7304C114.491 97.6265 114.535 97.4862 114.535 97.3095V95.787H115.353V98.4475ZM116.874 98.1383H116.864V98.4475H116.043V94.5087H116.864V96.1871H116.874C117.077 95.8771 117.365 95.722 117.739 95.722C118.082 95.722 118.347 95.8398 118.532 96.0754C118.717 96.311 118.81 96.6331 118.81 97.0419C118.81 97.4853 118.702 97.8413 118.485 98.1097C118.269 98.3782 117.979 98.5125 117.617 98.5125C117.29 98.5125 117.042 98.3878 116.874 98.1383ZM116.851 97.0159V97.2887C116.851 97.4602 116.9 97.6022 116.999 97.7148C117.098 97.8274 117.224 97.8837 117.378 97.8837C117.565 97.8837 117.71 97.8118 117.812 97.6681C117.916 97.5226 117.968 97.3173 117.968 97.0523C117.968 96.8323 117.92 96.6608 117.825 96.5379C117.732 96.4132 117.597 96.3508 117.422 96.3508C117.258 96.3508 117.121 96.4123 117.012 96.5353C116.905 96.6582 116.851 96.8185 116.851 97.0159ZM120.17 98.1383H120.159V98.4475H119.338V94.5087H120.159V96.1871H120.17C120.372 95.8771 120.661 95.722 121.035 95.722C121.378 95.722 121.642 95.8398 121.827 96.0754C122.013 96.311 122.105 96.6331 122.105 97.0419C122.105 97.4853 121.997 97.8413 121.781 98.1097C121.564 98.3782 121.275 98.5125 120.913 98.5125C120.585 98.5125 120.338 98.3878 120.17 98.1383ZM120.146 97.0159V97.2887C120.146 97.4602 120.196 97.6022 120.294 97.7148C120.393 97.8274 120.52 97.8837 120.674 97.8837C120.861 97.8837 121.005 97.8118 121.108 97.6681C121.212 97.5226 121.263 97.3173 121.263 97.0523C121.263 96.8323 121.216 96.6608 121.121 96.5379C121.027 96.4132 120.893 96.3508 120.718 96.3508C120.553 96.3508 120.416 96.4123 120.307 96.5353C120.2 96.6582 120.146 96.8185 120.146 97.0159ZM125.024 97.3511H123.288C123.316 97.7373 123.559 97.9305 124.018 97.9305C124.311 97.9305 124.568 97.8612 124.79 97.7226V98.315C124.544 98.4466 124.225 98.5125 123.831 98.5125C123.402 98.5125 123.068 98.3938 122.831 98.1565C122.594 97.9175 122.475 97.5849 122.475 97.1588C122.475 96.7171 122.603 96.3673 122.86 96.1092C123.116 95.8511 123.431 95.722 123.805 95.722C124.193 95.722 124.493 95.8372 124.704 96.0676C124.917 96.298 125.024 96.6106 125.024 97.0055V97.3511ZM124.263 96.847C124.263 96.466 124.109 96.2754 123.8 96.2754C123.669 96.2754 123.554 96.33 123.457 96.4391C123.362 96.5483 123.304 96.6842 123.283 96.847H124.263ZM127.244 96.5275C127.145 96.4738 127.03 96.4469 126.898 96.4469C126.72 96.4469 126.58 96.5127 126.48 96.6444C126.379 96.7743 126.329 96.9518 126.329 97.177V98.4475H125.508V95.787H126.329V96.2806H126.34C126.469 95.9204 126.703 95.7402 127.041 95.7402C127.128 95.7402 127.195 95.7506 127.244 95.7714V96.5275Z" fill="white"/>
<g opacity="0.88">
<path fill-rule="evenodd" clip-rule="evenodd" d="M117.088 71.0673C116.77 71.2048 116.656 71.5878 116.82 71.8932C116.984 72.1986 117.363 72.3102 117.684 72.1781C118.531 71.8284 119.449 71.6698 120.37 71.7169C121.5 71.7747 122.594 72.1403 123.531 72.7742C124.469 73.4081 125.216 74.2862 125.692 75.3137C126.167 76.3412 126.352 77.479 126.228 78.6042C126.104 79.7294 125.674 80.7993 124.986 81.6982C124.298 82.5972 123.378 83.2911 122.324 83.705C121.27 84.1189 120.124 84.237 119.008 84.0467C118.099 83.8916 117.238 83.5366 116.487 83.0103C116.203 82.8114 115.809 82.8375 115.582 83.0998C115.356 83.3621 115.383 83.7608 115.664 83.9644C116.59 84.6375 117.662 85.0902 118.797 85.2837C120.138 85.5125 121.516 85.3705 122.783 84.873C124.049 84.3756 125.156 83.5415 125.983 82.461C126.81 81.3804 127.326 80.0944 127.475 78.742C127.625 77.3895 127.402 76.0219 126.831 74.7869C126.259 73.5519 125.362 72.4964 124.234 71.7345C123.107 70.9725 121.793 70.5331 120.434 70.4636C119.284 70.4048 118.14 70.6127 117.088 71.0673ZM118.087 89.5562C118.406 89.4187 118.52 89.0357 118.356 88.7303C118.192 88.4249 117.813 88.3133 117.492 88.4454C116.644 88.7951 115.727 88.9537 114.806 88.9066C113.676 88.8488 112.582 88.4832 111.644 87.8493C110.706 87.2154 109.959 86.3373 109.484 85.3098C109.009 84.2823 108.823 83.1446 108.948 82.0193C109.072 80.8941 109.501 79.8243 110.189 78.9253C110.878 78.0263 111.798 77.3324 112.852 76.9185C113.905 76.5046 115.052 76.3865 116.168 76.5768C117.077 76.7319 117.938 77.087 118.689 77.6132C118.973 77.8121 119.367 77.786 119.594 77.5237C119.82 77.2614 119.793 76.8628 119.512 76.6591C118.585 75.986 117.514 75.5333 116.379 75.3398C115.038 75.111 113.659 75.253 112.393 75.7505C111.126 76.248 110.02 77.082 109.193 78.1626C108.366 79.2431 107.85 80.5291 107.7 81.8815C107.551 83.234 107.774 84.6016 108.345 85.8366C108.916 87.0716 109.814 88.1271 110.942 88.889C112.069 89.651 113.383 90.0904 114.742 90.1599C115.892 90.2187 117.036 90.0109 118.087 89.5562Z" fill="url(#paint22_linear_748_6590)" fill-opacity="0.7"/>
<path d="M117.088 71.0673L117.258 71.4586L117.258 71.4586L117.088 71.0673ZM117.684 72.1781L117.521 71.7839L117.521 71.7839L117.684 72.1781ZM120.37 71.7169L120.391 71.2911L120.391 71.2911L120.37 71.7169ZM123.531 72.7742L123.293 73.1275L123.293 73.1275L123.531 72.7742ZM125.692 75.3137L126.079 75.1347L126.079 75.1347L125.692 75.3137ZM126.228 78.6042L126.652 78.651L126.652 78.651L126.228 78.6042ZM124.986 81.6982L125.325 81.9574L125.325 81.9574L124.986 81.6982ZM122.324 83.705L122.48 84.1019L122.48 84.1019L122.324 83.705ZM119.008 84.0467L119.079 83.6263L119.079 83.6263L119.008 84.0467ZM116.487 83.0103L116.242 83.3595L116.242 83.3595L116.487 83.0103ZM115.582 83.0998L115.259 82.8212L115.259 82.8212L115.582 83.0998ZM115.664 83.9644L115.914 83.6194L115.914 83.6194L115.664 83.9644ZM118.797 85.2837L118.725 85.7041L118.725 85.7041L118.797 85.2837ZM122.783 84.873L122.627 84.4762L122.627 84.4762L122.783 84.873ZM125.983 82.461L126.321 82.7201L126.321 82.7201L125.983 82.461ZM127.475 78.742L127.052 78.6951L127.052 78.6951L127.475 78.742ZM126.831 74.7869L126.444 74.9659L126.444 74.9659L126.831 74.7869ZM124.234 71.7345L124.473 71.3812L124.473 71.3812L124.234 71.7345ZM120.434 70.4636L120.456 70.0378L120.456 70.0378L120.434 70.4636ZM118.087 89.5562L118.257 89.9476L118.257 89.9476L118.087 89.5562ZM117.492 88.4454L117.33 88.0512L117.33 88.0512L117.492 88.4454ZM114.806 88.9066L114.784 89.3325L114.784 89.3325L114.806 88.9066ZM111.644 87.8493L111.406 88.2026L111.406 88.2026L111.644 87.8493ZM109.484 85.3098L109.871 85.1308L109.871 85.1308L109.484 85.3098ZM108.948 82.0193L109.372 82.0662L109.372 82.0662L108.948 82.0193ZM110.189 78.9253L109.851 78.6661L109.851 78.6661L110.189 78.9253ZM112.852 76.9185L113.008 77.3154L113.008 77.3154L112.852 76.9185ZM116.168 76.5768L116.24 76.1565L116.24 76.1565L116.168 76.5768ZM118.689 77.6132L118.444 77.9624L118.444 77.9624L118.689 77.6132ZM119.594 77.5237L119.916 77.8023L119.916 77.8023L119.594 77.5237ZM119.512 76.6591L119.262 77.0041L119.262 77.0041L119.512 76.6591ZM116.379 75.3398L116.307 75.7601L116.307 75.7601L116.379 75.3398ZM112.393 75.7505L112.237 75.3536L112.237 75.3536L112.393 75.7505ZM109.193 78.1626L109.532 78.4217L109.532 78.4217L109.193 78.1626ZM107.7 81.8815L107.277 81.8347L107.277 81.8347L107.7 81.8815ZM108.345 85.8366L108.732 85.6576L108.732 85.6576L108.345 85.8366ZM110.942 88.889L111.18 88.5358L111.18 88.5358L110.942 88.889ZM114.742 90.1599L114.72 90.5858L114.72 90.5858L114.742 90.1599ZM117.196 71.6917C117.138 71.5846 117.191 71.4876 117.258 71.4586L116.919 70.6759C116.35 70.922 116.174 71.591 116.444 72.0947L117.196 71.6917ZM117.521 71.7839C117.378 71.843 117.244 71.7811 117.196 71.6917L116.444 72.0947C116.724 72.6161 117.349 72.7775 117.846 72.5723L117.521 71.7839ZM120.391 71.2911C119.407 71.2407 118.427 71.4103 117.521 71.7839L117.846 72.5723C118.636 72.2466 119.49 72.0989 120.348 72.1427L120.391 71.2911ZM123.77 72.4209C122.768 71.7435 121.6 71.3528 120.391 71.2911L120.348 72.1427C121.401 72.1966 122.419 72.5371 123.293 73.1275L123.77 72.4209ZM126.079 75.1347C125.571 74.0367 124.773 73.0983 123.77 72.4209L123.293 73.1275C124.166 73.7179 124.862 74.5357 125.305 75.4927L126.079 75.1347ZM126.652 78.651C126.785 77.4486 126.586 76.2327 126.079 75.1347L125.305 75.4927C125.747 76.4497 125.92 77.5094 125.804 78.5574L126.652 78.651ZM125.325 81.9574C126.06 80.9967 126.519 79.8534 126.652 78.651L125.804 78.5574C125.688 79.6053 125.289 80.6018 124.648 81.4391L125.325 81.9574ZM122.48 84.1019C123.606 83.6596 124.59 82.918 125.325 81.9574L124.648 81.4391C124.007 82.2763 123.149 82.9226 122.168 83.3081L122.48 84.1019ZM118.936 84.467C120.128 84.6704 121.354 84.5442 122.48 84.1019L122.168 83.3081C121.187 83.6936 120.119 83.8036 119.079 83.6263L118.936 84.467ZM116.242 83.3595C117.045 83.9219 117.964 84.3013 118.936 84.467L119.079 83.6263C118.233 83.4819 117.431 83.1512 116.732 82.6611L116.242 83.3595ZM115.905 83.3785C115.971 83.3017 116.115 83.2706 116.242 83.3595L116.732 82.6611C116.291 82.3523 115.646 82.3734 115.259 82.8212L115.905 83.3785ZM115.914 83.6194C115.855 83.5766 115.825 83.4705 115.905 83.3785L115.259 82.8212C114.886 83.2538 114.911 83.945 115.413 84.3094L115.914 83.6194ZM118.868 84.8634C117.798 84.6809 116.788 84.2541 115.914 83.6194L115.413 84.3094C116.393 85.021 117.526 85.4995 118.725 85.7041L118.868 84.8634ZM122.627 84.4762C121.433 84.9453 120.133 85.0792 118.868 84.8634L118.725 85.7041C120.143 85.9459 121.6 85.7958 122.939 85.2699L122.627 84.4762ZM125.644 82.2018C124.864 83.2206 123.821 84.0071 122.627 84.4762L122.939 85.2699C124.278 84.744 125.447 83.8624 126.321 82.7201L125.644 82.2018ZM127.052 78.6951C126.911 79.9704 126.424 81.1829 125.644 82.2018L126.321 82.7201C127.196 81.5779 127.741 80.2185 127.899 78.7888L127.052 78.6951ZM126.444 74.9659C126.982 76.1304 127.192 77.4199 127.052 78.6951L127.899 78.7888C128.057 77.3591 127.821 75.9134 127.218 74.6079L126.444 74.9659ZM123.995 72.0877C125.058 72.8062 125.905 73.8014 126.444 74.9659L127.218 74.6079C126.614 73.3024 125.665 72.1866 124.473 71.3812L123.995 72.0877ZM120.412 70.8894C121.693 70.955 122.932 71.3693 123.995 72.0877L124.473 71.3812C123.281 70.5757 121.892 70.1112 120.456 70.0378L120.412 70.8894ZM117.258 71.4586C118.249 71.03 119.328 70.834 120.412 70.8894L120.456 70.0378C119.24 69.9756 118.03 70.1953 116.919 70.6759L117.258 71.4586ZM117.98 88.9318C118.037 89.039 117.985 89.1359 117.918 89.1649L118.257 89.9476C118.826 89.7015 119.002 89.0325 118.732 88.5288L117.98 88.9318ZM117.655 88.8396C117.798 88.7805 117.932 88.8424 117.98 88.9318L118.732 88.5288C118.452 88.0074 117.827 87.8461 117.33 88.0512L117.655 88.8396ZM114.784 89.3325C115.769 89.3828 116.749 89.2133 117.655 88.8396L117.33 88.0512C116.54 88.3769 115.686 88.5246 114.828 88.4808L114.784 89.3325ZM111.406 88.2026C112.408 88.88 113.576 89.2707 114.784 89.3325L114.828 88.4808C113.775 88.4269 112.757 88.0864 111.883 87.496L111.406 88.2026ZM109.097 85.4888C109.605 86.5868 110.403 87.5252 111.406 88.2026L111.883 87.496C111.009 86.9056 110.314 86.0878 109.871 85.1308L109.097 85.4888ZM108.524 81.9725C108.391 83.175 108.589 84.3908 109.097 85.4888L109.871 85.1308C109.429 84.1739 109.256 83.1141 109.372 82.0662L108.524 81.9725ZM109.851 78.6661C109.116 79.6268 108.657 80.7701 108.524 81.9725L109.372 82.0662C109.487 81.0182 109.887 80.0217 110.528 79.1844L109.851 78.6661ZM112.696 76.5216C111.57 76.9639 110.586 77.7055 109.851 78.6661L110.528 79.1844C111.169 78.3472 112.026 77.7009 113.008 77.3154L112.696 76.5216ZM116.24 76.1565C115.047 75.9531 113.822 76.0793 112.696 76.5216L113.008 77.3154C113.989 76.9299 115.057 76.8199 116.096 76.9972L116.24 76.1565ZM118.934 77.264C118.131 76.7016 117.211 76.3222 116.24 76.1565L116.096 76.9972C116.943 77.1416 117.745 77.4723 118.444 77.9624L118.934 77.264ZM119.271 77.245C119.205 77.3218 119.06 77.353 118.934 77.264L118.444 77.9624C118.885 78.2712 119.53 78.2502 119.916 77.8023L119.271 77.245ZM119.262 77.0041C119.321 77.0469 119.35 77.153 119.271 77.245L119.916 77.8023C120.29 77.3698 120.265 76.6786 119.763 76.3141L119.262 77.0041ZM116.307 75.7601C117.377 75.9426 118.388 76.3694 119.262 77.0041L119.763 76.3141C118.783 75.6025 117.65 75.124 116.451 74.9194L116.307 75.7601ZM112.549 76.1473C113.743 75.6783 115.043 75.5444 116.307 75.7601L116.451 74.9194C115.033 74.6776 113.576 74.8277 112.237 75.3536L112.549 76.1473ZM109.532 78.4217C110.311 77.4029 111.355 76.6164 112.549 76.1473L112.237 75.3536C110.898 75.8795 109.729 76.7612 108.854 77.9034L109.532 78.4217ZM108.124 81.9284C108.265 80.6531 108.752 79.4406 109.532 78.4217L108.854 77.9034C107.98 79.0456 107.435 80.405 107.277 81.8347L108.124 81.9284ZM108.732 85.6576C108.194 84.4931 107.983 83.2036 108.124 81.9284L107.277 81.8347C107.119 83.2644 107.354 84.7101 107.958 86.0156L108.732 85.6576ZM111.18 88.5358C110.117 87.8173 109.271 86.8221 108.732 85.6576L107.958 86.0156C108.562 87.3212 109.511 88.4369 110.703 89.2423L111.18 88.5358ZM114.764 89.7341C113.482 89.6685 112.243 89.2542 111.18 88.5358L110.703 89.2423C111.895 90.0478 113.284 90.5123 114.72 90.5858L114.764 89.7341ZM117.918 89.1649C116.927 89.5935 115.848 89.7895 114.764 89.7341L114.72 90.5858C115.935 90.6479 117.145 90.4282 118.257 89.9476L117.918 89.1649Z" fill="url(#paint23_linear_748_6590)"/>
</g>
</g>
</g>
<g filter="url(#filter4_d_748_6590)">
<path d="M60.9031 211.029V205.601C61.887 206.426 62.9557 207.048 64.1092 207.467C65.2627 207.874 66.4275 208.077 67.6036 208.077C68.2934 208.077 68.8928 208.015 69.4017 207.891C69.9219 207.766 70.3517 207.597 70.6909 207.382C71.0415 207.156 71.3016 206.896 71.4712 206.602C71.6409 206.296 71.7257 205.968 71.7257 205.618C71.7257 205.143 71.59 204.719 71.3186 204.345C71.0471 203.972 70.674 203.627 70.199 203.311C69.7353 202.994 69.1812 202.689 68.5366 202.395C67.892 202.101 67.1965 201.801 66.4501 201.496C64.5502 200.704 63.131 199.737 62.1923 198.595C61.265 197.453 60.8013 196.073 60.8013 194.456C60.8013 193.189 61.0558 192.104 61.5647 191.199C62.0736 190.283 62.7634 189.531 63.6342 188.943C64.5163 188.355 65.5341 187.925 66.6876 187.654C67.8411 187.371 69.0624 187.229 70.3517 187.229C71.6182 187.229 72.7378 187.309 73.7104 187.467C74.6942 187.614 75.599 187.846 76.4245 188.162V193.234C76.0174 192.952 75.5707 192.703 75.0844 192.488C74.6094 192.273 74.1175 192.098 73.6086 191.962C73.0997 191.815 72.5908 191.708 72.0819 191.64C71.5843 191.572 71.1093 191.538 70.657 191.538C70.035 191.538 69.4696 191.6 68.9607 191.725C68.4518 191.838 68.022 192.002 67.6715 192.217C67.3209 192.432 67.0495 192.692 66.8572 192.997C66.665 193.291 66.5688 193.625 66.5688 193.998C66.5688 194.405 66.6763 194.772 66.8911 195.1C67.106 195.417 67.4114 195.722 67.8072 196.016C68.203 196.299 68.6836 196.582 69.249 196.865C69.8145 197.136 70.4534 197.419 71.1659 197.713C72.1384 198.12 73.0092 198.555 73.7782 199.019C74.5585 199.471 75.2258 199.986 75.7799 200.563C76.334 201.139 76.7581 201.801 77.0521 202.547C77.3462 203.282 77.4932 204.142 77.4932 205.126C77.4932 206.483 77.2331 207.625 76.7129 208.552C76.204 209.468 75.5085 210.215 74.6264 210.791C73.7443 211.357 72.7152 211.764 71.5391 212.013C70.3743 212.262 69.1416 212.386 67.8411 212.386C66.5066 212.386 65.2344 212.273 64.0244 212.047C62.8256 211.821 61.7852 211.481 60.9031 211.029ZM89.2209 212.386C86.3259 212.386 84.0471 211.577 82.3847 209.96C80.7336 208.332 79.9081 206.127 79.9081 203.345C79.9081 200.472 80.7676 198.227 82.4865 196.61C84.2055 194.982 86.5294 194.167 89.4584 194.167C92.3422 194.167 94.6039 194.982 96.2437 196.61C97.8835 198.227 98.7034 200.37 98.7034 203.039C98.7034 205.923 97.8552 208.202 96.1589 209.875C94.4739 211.549 92.1612 212.386 89.2209 212.386ZM89.3566 198.273C88.09 198.273 87.1062 198.708 86.405 199.579C85.7039 200.45 85.3533 201.682 85.3533 203.277C85.3533 206.613 86.6991 208.281 89.3906 208.281C91.9577 208.281 93.2412 206.568 93.2412 203.141C93.2412 199.895 91.9464 198.273 89.3566 198.273ZM115.317 211.334C114.106 212.035 112.359 212.386 110.075 212.386C107.406 212.386 105.246 211.577 103.595 209.96C101.944 208.343 101.118 206.257 101.118 203.701C101.118 200.749 102 198.425 103.765 196.729C105.54 195.021 107.909 194.167 110.872 194.167C112.919 194.167 114.401 194.439 115.317 194.982V199.528C114.197 198.691 112.947 198.273 111.568 198.273C110.03 198.273 108.808 198.725 107.904 199.63C107.01 200.523 106.563 201.761 106.563 203.345C106.563 204.883 106.993 206.093 107.853 206.975C108.712 207.845 109.894 208.281 111.398 208.281C112.732 208.281 114.039 207.862 115.317 207.026V211.334ZM121.531 191.843C120.627 191.843 119.886 191.578 119.309 191.046C118.732 190.503 118.444 189.842 118.444 189.062C118.444 188.259 118.732 187.603 119.309 187.094C119.886 186.585 120.627 186.33 121.531 186.33C122.447 186.33 123.188 186.585 123.753 187.094C124.33 187.603 124.619 188.259 124.619 189.062C124.619 189.876 124.33 190.543 123.753 191.063C123.188 191.583 122.447 191.843 121.531 191.843ZM124.177 211.962H118.817V194.592H124.177V211.962ZM143.115 211.962H138.043V209.468H137.975C136.81 211.413 135.085 212.386 132.801 212.386C131.116 212.386 129.787 211.911 128.815 210.961C127.853 210 127.373 208.722 127.373 207.127C127.373 203.757 129.369 201.812 133.361 201.292L138.077 200.664C138.077 198.765 137.047 197.815 134.989 197.815C132.92 197.815 130.952 198.431 129.086 199.664V195.626C129.832 195.242 130.85 194.903 132.139 194.609C133.44 194.314 134.622 194.167 135.685 194.167C140.638 194.167 143.115 196.638 143.115 201.58V211.962ZM138.077 204.905V203.735L134.921 204.142C133.18 204.368 132.309 205.154 132.309 206.5C132.309 207.11 132.518 207.614 132.937 208.009C133.366 208.394 133.943 208.586 134.667 208.586C135.673 208.586 136.493 208.241 137.127 207.551C137.76 206.85 138.077 205.968 138.077 204.905ZM152.688 211.962H147.328V186.246H152.688V211.962ZM184.71 211.097C182.934 211.956 180.616 212.386 177.755 212.386C174.023 212.386 171.088 211.289 168.951 209.095C166.814 206.901 165.745 203.978 165.745 200.325C165.745 196.435 166.944 193.28 169.341 190.86C171.75 188.44 174.871 187.229 178.705 187.229C181.08 187.229 183.081 187.529 184.71 188.129V193.404C183.081 192.432 181.227 191.945 179.146 191.945C176.862 191.945 175.018 192.663 173.616 194.1C172.214 195.536 171.513 197.481 171.513 199.935C171.513 202.287 172.174 204.164 173.497 205.567C174.82 206.958 176.601 207.653 178.841 207.653C180.978 207.653 182.934 207.133 184.71 206.093V211.097ZM196.675 212.386C193.78 212.386 191.501 211.577 189.839 209.96C188.188 208.332 187.362 206.127 187.362 203.345C187.362 200.472 188.222 198.227 189.941 196.61C191.66 194.982 193.984 194.167 196.913 194.167C199.796 194.167 202.058 194.982 203.698 196.61C205.338 198.227 206.158 200.37 206.158 203.039C206.158 205.923 205.309 208.202 203.613 209.875C201.928 211.549 199.615 212.386 196.675 212.386ZM196.811 198.273C195.544 198.273 194.56 198.708 193.859 199.579C193.158 200.45 192.808 201.682 192.808 203.277C192.808 206.613 194.153 208.281 196.845 208.281C199.412 208.281 200.695 206.568 200.695 203.141C200.695 199.895 199.401 198.273 196.811 198.273ZM237.19 211.962H231.846V202.055C231.846 199.534 230.919 198.273 229.064 198.273C228.182 198.273 227.464 198.651 226.91 199.409C226.356 200.167 226.079 201.111 226.079 202.242V211.962H220.718V201.954C220.718 199.5 219.808 198.273 217.987 198.273C217.071 198.273 216.336 198.634 215.782 199.358C215.239 200.082 214.968 201.066 214.968 202.31V211.962H209.607V194.592H214.968V197.306H215.036C215.59 196.378 216.364 195.626 217.359 195.05C218.366 194.461 219.463 194.167 220.65 194.167C223.104 194.167 224.784 195.247 225.688 197.407C227.012 195.247 228.957 194.167 231.524 194.167C235.301 194.167 237.19 196.497 237.19 201.156V211.962ZM268.985 211.962H263.641V202.055C263.641 199.534 262.714 198.273 260.859 198.273C259.977 198.273 259.259 198.651 258.705 199.409C258.151 200.167 257.874 201.111 257.874 202.242V211.962H252.513V201.954C252.513 199.5 251.603 198.273 249.782 198.273C248.866 198.273 248.131 198.634 247.577 199.358C247.034 200.082 246.763 201.066 246.763 202.31V211.962H241.403V194.592H246.763V197.306H246.831C247.385 196.378 248.16 195.626 249.155 195.05C250.161 194.461 251.258 194.167 252.446 194.167C254.9 194.167 256.579 195.247 257.484 197.407C258.807 195.247 260.752 194.167 263.319 194.167C267.096 194.167 268.985 196.497 268.985 201.156V211.962ZM289.703 211.962H284.36V209.316H284.275C282.952 211.363 281.182 212.386 278.965 212.386C274.939 212.386 272.926 209.949 272.926 205.075V194.592H278.27V204.6C278.27 207.054 279.242 208.281 281.188 208.281C282.149 208.281 282.918 207.947 283.495 207.28C284.071 206.602 284.36 205.686 284.36 204.532V194.592H289.703V211.962ZM310.981 211.962H305.638V202.31C305.638 199.618 304.676 198.273 302.754 198.273C301.827 198.273 301.063 198.629 300.464 199.341C299.865 200.054 299.565 200.958 299.565 202.055V211.962H294.204V194.592H299.565V197.34H299.633C300.911 195.225 302.771 194.167 305.214 194.167C309.059 194.167 310.981 196.554 310.981 201.326V211.962ZM317.925 191.843C317.021 191.843 316.28 191.578 315.703 191.046C315.126 190.503 314.838 189.842 314.838 189.062C314.838 188.259 315.126 187.603 315.703 187.094C316.28 186.585 317.021 186.33 317.925 186.33C318.841 186.33 319.582 186.585 320.147 187.094C320.724 187.603 321.013 188.259 321.013 189.062C321.013 189.876 320.724 190.543 320.147 191.063C319.582 191.583 318.841 191.843 317.925 191.843ZM320.571 211.962H315.211V194.592H320.571V211.962ZM335.556 211.758C334.765 212.177 333.571 212.386 331.977 212.386C328.2 212.386 326.311 210.424 326.311 206.5V198.544H323.495V194.592H326.311V190.843L331.655 189.316V194.592H335.556V198.544H331.655V205.567C331.655 207.376 332.373 208.281 333.809 208.281C334.374 208.281 334.957 208.117 335.556 207.789V211.758ZM355.104 194.592L348.047 213.353C346.351 217.865 343.795 220.121 340.38 220.121C339.079 220.121 338.011 219.974 337.174 219.68V215.405C337.886 215.824 338.661 216.033 339.498 216.033C340.877 216.033 341.839 215.383 342.382 214.082L343.298 211.928L336.241 194.592H342.178L345.418 205.16C345.622 205.816 345.78 206.59 345.893 207.484H345.961C346.063 206.828 346.249 206.064 346.521 205.194L349.794 194.592H355.104ZM381.257 211.962H376.185V209.468H376.117C374.952 211.413 373.227 212.386 370.943 212.386C369.258 212.386 367.929 211.911 366.957 210.961C365.995 210 365.515 208.722 365.515 207.127C365.515 203.757 367.511 201.812 371.503 201.292L376.219 200.664C376.219 198.765 375.189 197.815 373.131 197.815C371.062 197.815 369.094 198.431 367.228 199.664V195.626C367.974 195.242 368.992 194.903 370.281 194.609C371.582 194.314 372.764 194.167 373.827 194.167C378.78 194.167 381.257 196.638 381.257 201.58V211.962ZM376.219 204.905V203.735L373.063 204.142C371.322 204.368 370.451 205.154 370.451 206.5C370.451 207.11 370.66 207.614 371.079 208.009C371.508 208.394 372.085 208.586 372.809 208.586C373.815 208.586 374.635 208.241 375.269 207.551C375.902 206.85 376.219 205.968 376.219 204.905ZM390.898 209.943H390.83V219.952H385.47V194.592H390.83V197.204H390.898C392.221 195.18 394.081 194.167 396.479 194.167C398.729 194.167 400.465 194.942 401.687 196.491C402.919 198.029 403.536 200.127 403.536 202.785C403.536 205.68 402.817 208.004 401.381 209.757C399.956 211.51 398.056 212.386 395.682 212.386C393.589 212.386 391.995 211.572 390.898 209.943ZM390.745 202.819V204.21C390.745 205.408 391.062 206.387 391.695 207.144C392.328 207.902 393.16 208.281 394.189 208.281C395.41 208.281 396.354 207.812 397.022 206.873C397.7 205.923 398.039 204.583 398.039 202.853C398.039 199.799 396.852 198.273 394.477 198.273C393.38 198.273 392.481 198.691 391.78 199.528C391.09 200.353 390.745 201.45 390.745 202.819ZM412.413 209.943H412.346V219.952H406.985V194.592H412.346V197.204H412.413C413.737 195.18 415.597 194.167 417.994 194.167C420.245 194.167 421.981 194.942 423.202 196.491C424.435 198.029 425.051 200.127 425.051 202.785C425.051 205.68 424.333 208.004 422.897 209.757C421.472 211.51 419.572 212.386 417.197 212.386C415.105 212.386 413.51 211.572 412.413 209.943ZM412.261 202.819V204.21C412.261 205.408 412.577 206.387 413.211 207.144C413.844 207.902 414.675 208.281 415.704 208.281C416.926 208.281 417.87 207.812 418.537 206.873C419.216 205.923 419.555 204.583 419.555 202.853C419.555 199.799 418.368 198.273 415.993 198.273C414.896 198.273 413.997 198.691 413.296 199.528C412.606 200.353 412.261 201.45 412.261 202.819Z" fill="white"/>
</g>
<g filter="url(#filter5_d_748_6590)">
<path d="M103.567 291.63C100.109 293.423 95.8082 294.319 90.6643 294.319C84.0049 294.319 78.6689 292.217 74.6562 288.012C70.6435 283.807 68.6372 278.29 68.6372 271.46C68.6372 264.118 70.889 258.184 75.3926 253.659C79.9175 249.134 85.6271 246.871 92.5212 246.871C96.9608 246.871 100.643 247.501 103.567 248.76V256.316C100.472 254.481 97.0569 253.563 93.3216 253.563C88.3485 253.563 84.3144 255.153 81.2195 258.333C78.146 261.514 76.6092 265.761 76.6092 271.076C76.6092 276.134 78.0499 280.168 80.9314 283.178C83.8128 286.166 87.6014 287.66 92.2971 287.66C96.63 287.66 100.387 286.636 103.567 284.587V291.63ZM118.85 293.551H111.39V245.015H118.85V293.551ZM157.089 293.551H149.661V288.364H149.533C147.377 292.334 144.026 294.319 139.48 294.319C131.732 294.319 127.858 289.666 127.858 280.36V260.766H135.286V279.592C135.286 285.483 137.559 288.428 142.105 288.428C144.304 288.428 146.107 287.617 147.516 285.995C148.946 284.373 149.661 282.249 149.661 279.624V260.766H157.089V293.551ZM174.293 288.813H174.165V293.551H166.737V245.015H174.165V266.529H174.293C176.833 262.175 180.547 259.998 185.435 259.998C189.576 259.998 192.809 261.471 195.136 264.416C197.484 267.34 198.657 271.268 198.657 276.198C198.657 281.684 197.345 286.081 194.72 289.389C192.094 292.676 188.508 294.319 183.962 294.319C179.693 294.319 176.47 292.484 174.293 288.813ZM174.101 275.782V279.848C174.101 282.239 174.859 284.266 176.374 285.931C177.911 287.596 179.853 288.428 182.201 288.428C184.955 288.428 187.11 287.361 188.668 285.227C190.248 283.071 191.038 280.072 191.038 276.23C191.038 273.007 190.301 270.489 188.829 268.674C187.377 266.839 185.403 265.921 182.906 265.921C180.259 265.921 178.124 266.86 176.502 268.739C174.902 270.617 174.101 272.965 174.101 275.782ZM213.749 288.813H213.621V293.551H206.193V245.015H213.621V266.529H213.749C216.289 262.175 220.003 259.998 224.89 259.998C229.031 259.998 232.265 261.471 234.591 264.416C236.939 267.34 238.113 271.268 238.113 276.198C238.113 281.684 236.8 286.081 234.175 289.389C231.55 292.676 227.964 294.319 223.418 294.319C219.149 294.319 215.926 292.484 213.749 288.813ZM213.557 275.782V279.848C213.557 282.239 214.314 284.266 215.83 285.931C217.367 287.596 219.309 288.428 221.657 288.428C224.41 288.428 226.566 287.361 228.124 285.227C229.703 283.071 230.493 280.072 230.493 276.23C230.493 273.007 229.757 270.489 228.284 268.674C226.833 266.839 224.858 265.921 222.361 265.921C219.714 265.921 217.58 266.86 215.958 268.739C214.357 270.617 213.557 272.965 213.557 275.782ZM273.406 279.176H251.059C251.144 282.207 252.073 284.544 253.844 286.187C255.637 287.831 258.092 288.653 261.208 288.653C264.709 288.653 267.921 287.607 270.845 285.515V291.502C267.857 293.38 263.908 294.319 258.999 294.319C254.175 294.319 250.387 292.836 247.633 289.869C244.901 286.881 243.535 282.687 243.535 277.287C243.535 272.186 245.04 268.034 248.05 264.833C251.08 261.61 254.837 259.998 259.319 259.998C263.802 259.998 267.27 261.439 269.724 264.32C272.179 267.202 273.406 271.204 273.406 276.326V279.176ZM266.235 273.925C266.213 271.257 265.584 269.187 264.346 267.714C263.108 266.22 261.4 265.473 259.223 265.473C257.089 265.473 255.275 266.252 253.78 267.81C252.308 269.368 251.401 271.407 251.059 273.925H266.235ZM299.447 267.842C298.551 267.138 297.259 266.786 295.573 266.786C293.375 266.786 291.539 267.778 290.066 269.763C288.594 271.748 287.857 274.448 287.857 277.863V293.551H280.429V260.766H287.857V267.522H287.985C288.711 265.217 289.821 263.424 291.315 262.143C292.83 260.841 294.517 260.19 296.374 260.19C297.718 260.19 298.743 260.393 299.447 260.798V267.842Z" fill="white"/>
</g>
<g filter="url(#filter6_d_748_6590)">
<path d="M151 381.277C151 362.899 165.899 348 184.277 348H240.849V404.571C240.849 422.95 225.95 437.849 207.571 437.849H151V381.277Z" fill="#61BED9" fill-opacity="0.4"/>
<path d="M160.151 381.277C160.151 362.899 175.05 348 193.429 348H250V404.571C250 422.95 235.101 437.849 216.723 437.849H160.151V381.277Z" fill="url(#paint24_linear_748_6590)"/>
<path d="M189.045 421.588C188.407 421.897 187.574 422.052 186.547 422.052C185.206 422.052 184.152 421.657 183.384 420.869C182.617 420.081 182.233 419.031 182.233 417.719C182.233 416.322 182.663 415.188 183.524 414.319C184.39 413.45 185.511 413.015 186.888 413.015C187.741 413.015 188.46 413.123 189.045 413.338V415.233C188.46 414.884 187.794 414.709 187.046 414.709C186.226 414.709 185.564 414.967 185.06 415.483C184.556 415.999 184.304 416.698 184.304 417.579C184.304 418.424 184.542 419.098 185.017 419.602C185.493 420.102 186.132 420.351 186.937 420.351C187.704 420.351 188.407 420.165 189.045 419.791V421.588ZM192.295 421.899H190.369V412.662H192.295V421.899ZM199.834 421.899H197.915V420.949H197.885C197.409 421.684 196.774 422.052 195.977 422.052C194.531 422.052 193.808 421.176 193.808 419.425V415.66H195.728V419.255C195.728 420.136 196.077 420.577 196.776 420.577C197.121 420.577 197.397 420.457 197.604 420.217C197.811 419.974 197.915 419.645 197.915 419.23V415.66H199.834V421.899ZM203.401 421.174H203.377V421.899H201.451V412.662H203.377V416.598H203.401C203.876 415.871 204.553 415.507 205.43 415.507C206.234 415.507 206.854 415.784 207.289 416.336C207.723 416.888 207.941 417.644 207.941 418.603C207.941 419.643 207.687 420.477 207.179 421.107C206.671 421.737 205.993 422.052 205.144 422.052C204.376 422.052 203.795 421.759 203.401 421.174ZM203.346 418.542V419.182C203.346 419.584 203.462 419.917 203.694 420.181C203.925 420.445 204.222 420.577 204.583 420.577C205.022 420.577 205.361 420.408 205.601 420.071C205.845 419.73 205.966 419.249 205.966 418.627C205.966 418.111 205.855 417.709 205.631 417.421C205.412 417.128 205.097 416.982 204.687 416.982C204.301 416.982 203.98 417.126 203.724 417.415C203.472 417.703 203.346 418.079 203.346 418.542ZM211.13 421.174H211.105V421.899H209.18V412.662H211.105V416.598H211.13C211.605 415.871 212.281 415.507 213.159 415.507C213.963 415.507 214.582 415.784 215.017 416.336C215.452 416.888 215.669 417.644 215.669 418.603C215.669 419.643 215.415 420.477 214.907 421.107C214.4 421.737 213.721 422.052 212.872 422.052C212.105 422.052 211.524 421.759 211.13 421.174ZM211.075 418.542V419.182C211.075 419.584 211.191 419.917 211.422 420.181C211.654 420.445 211.95 420.577 212.312 420.577C212.75 420.577 213.09 420.408 213.329 420.071C213.573 419.73 213.695 419.249 213.695 418.627C213.695 418.111 213.583 417.709 213.36 417.421C213.14 417.128 212.826 416.982 212.415 416.982C212.029 416.982 211.708 417.126 211.453 417.415C211.201 417.703 211.075 418.079 211.075 418.542ZM222.514 419.328H218.444C218.509 420.234 219.079 420.687 220.156 420.687C220.842 420.687 221.446 420.524 221.966 420.199V421.588C221.389 421.897 220.639 422.052 219.717 422.052C218.71 422.052 217.928 421.773 217.371 421.217C216.815 420.656 216.537 419.876 216.537 418.877C216.537 417.841 216.837 417.021 217.438 416.415C218.04 415.81 218.779 415.507 219.656 415.507C220.566 415.507 221.269 415.777 221.765 416.318C222.264 416.858 222.514 417.591 222.514 418.517V419.328ZM220.729 418.146C220.729 417.252 220.367 416.805 219.644 416.805C219.335 416.805 219.067 416.933 218.84 417.189C218.616 417.445 218.48 417.764 218.432 418.146H220.729ZM227.72 417.396C227.488 417.27 227.218 417.207 226.909 417.207C226.491 417.207 226.164 417.362 225.928 417.67C225.693 417.975 225.575 418.391 225.575 418.92V421.899H223.65V415.66H225.575V416.817H225.599C225.904 415.972 226.452 415.55 227.245 415.55C227.448 415.55 227.606 415.574 227.72 415.623V417.396Z" fill="white"/>
<path opacity="0.3" fill-rule="evenodd" clip-rule="evenodd" d="M203.904 357.758C203.158 358.08 202.891 358.979 203.275 359.695C203.659 360.411 204.549 360.673 205.3 360.363C207.288 359.543 209.44 359.171 211.6 359.281C214.251 359.417 216.815 360.274 219.015 361.761C221.215 363.248 222.966 365.307 224.081 367.717C225.195 370.126 225.63 372.795 225.339 375.434C225.047 378.073 224.04 380.582 222.427 382.69C220.813 384.798 218.654 386.426 216.183 387.396C213.712 388.367 211.023 388.644 208.405 388.198C206.273 387.834 204.255 387.001 202.494 385.767C201.828 385.301 200.903 385.362 200.372 385.977C199.841 386.592 199.905 387.527 200.563 388.005C202.736 389.583 205.25 390.645 207.911 391.099C211.056 391.635 214.289 391.302 217.259 390.136C220.229 388.969 222.824 387.013 224.764 384.479C226.703 381.945 227.914 378.929 228.264 375.757C228.614 372.585 228.092 369.378 226.752 366.481C225.412 363.585 223.307 361.11 220.663 359.323C218.019 357.536 214.937 356.505 211.75 356.342C209.054 356.204 206.37 356.692 203.904 357.758ZM206.248 401.119C206.993 400.796 207.261 399.898 206.877 399.182C206.493 398.466 205.603 398.204 204.852 398.514C202.863 399.334 200.712 399.706 198.552 399.595C195.901 399.46 193.337 398.602 191.137 397.116C188.937 395.629 187.186 393.57 186.071 391.16C184.956 388.75 184.521 386.082 184.813 383.443C185.104 380.804 186.111 378.295 187.725 376.187C189.339 374.079 191.498 372.451 193.969 371.48C196.44 370.51 199.129 370.233 201.746 370.679C203.878 371.043 205.897 371.875 207.658 373.11C208.324 373.576 209.249 373.515 209.78 372.9C210.311 372.285 210.246 371.35 209.589 370.872C207.415 369.293 204.902 368.232 202.241 367.778C199.095 367.241 195.863 367.574 192.893 368.741C189.922 369.908 187.327 371.864 185.388 374.398C183.448 376.932 182.238 379.948 181.888 383.12C181.537 386.292 182.06 389.499 183.4 392.395C184.739 395.292 186.845 397.767 189.489 399.554C192.133 401.341 195.215 402.372 198.402 402.534C201.098 402.672 203.782 402.185 206.248 401.119Z" fill="#B7CFD7"/>
</g>
</g>
<defs>
<filter id="filter0_d_748_6590" x="-96.2062" y="-100.39" width="849.398" height="911.498" filterUnits="userSpaceOnUse" color-interpolation-filters="sRGB">
<feFlood flood-opacity="0" result="BackgroundImageFix"/>
<feColorMatrix in="SourceAlpha" type="matrix" values="0 0 0 0 0 0 0 0 0 0 0 0 0 0 0 0 0 0 127 0" result="hardAlpha"/>
<feOffset dy="66.7767"/>
<feGaussianBlur stdDeviation="100.165"/>
<feColorMatrix type="matrix" values="0 0 0 0 0 0 0 0 0 0 0 0 0 0 0 0 0 0 0.15 0"/>
<feBlend mode="normal" in2="BackgroundImageFix" result="effect1_dropShadow_748_6590"/>
<feBlend mode="normal" in="SourceGraphic" in2="effect1_dropShadow_748_6590" result="shape"/>
</filter>
<filter id="filter1_b_748_6590" x="-44.602" y="-72.2255" width="320.909" height="320.909" filterUnits="userSpaceOnUse" color-interpolation-filters="sRGB">
<feFlood flood-opacity="0" result="BackgroundImageFix"/>
<feGaussianBlur in="BackgroundImage" stdDeviation="53.8437"/>
<feComposite in2="SourceAlpha" operator="in" result="effect1_backgroundBlur_748_6590"/>
<feBlend mode="normal" in="SourceGraphic" in2="effect1_backgroundBlur_748_6590" result="shape"/>
</filter>
<filter id="filter2_d_748_6590" x="38.0707" y="20.3021" width="149.475" height="153.75" filterUnits="userSpaceOnUse" color-interpolation-filters="sRGB">
<feFlood flood-opacity="0" result="BackgroundImageFix"/>
<feColorMatrix in="SourceAlpha" type="matrix" values="0 0 0 0 0 0 0 0 0 0 0 0 0 0 0 0 0 0 127 0" result="hardAlpha"/>
<feOffset dy="11.4953"/>
<feGaussianBlur stdDeviation="17.243"/>
<feColorMatrix type="matrix" values="0 0 0 0 0 0 0 0 0 0 0 0 0 0 0 0 0 0 0.15 0"/>
<feBlend mode="normal" in2="BackgroundImageFix" result="effect1_dropShadow_748_6590"/>
<feBlend mode="normal" in="SourceGraphic" in2="effect1_dropShadow_748_6590" result="shape"/>
</filter>
<filter id="filter3_d_748_6590" x="86.0023" y="61.7897" width="59.2698" height="55.3672" filterUnits="userSpaceOnUse" color-interpolation-filters="sRGB">
<feFlood flood-opacity="0" result="BackgroundImageFix"/>
<feColorMatrix in="SourceAlpha" type="matrix" values="0 0 0 0 0 0 0 0 0 0 0 0 0 0 0 0 0 0 127 0" result="hardAlpha"/>
<feOffset dy="3.41119"/>
<feGaussianBlur stdDeviation="4.26399"/>
<feColorMatrix type="matrix" values="0 0 0 0 0.298039 0 0 0 0 0.803922 0 0 0 0 0.952941 0 0 0 0.1 0"/>
<feBlend mode="normal" in2="BackgroundImageFix" result="effect1_dropShadow_748_6590"/>
<feBlend mode="normal" in="SourceGraphic" in2="effect1_dropShadow_748_6590" result="shape"/>
</filter>
<filter id="filter4_d_748_6590" x="51.2856" y="180.536" width="383.281" height="52.9071" filterUnits="userSpaceOnUse" color-interpolation-filters="sRGB">
<feFlood flood-opacity="0" result="BackgroundImageFix"/>
<feColorMatrix in="SourceAlpha" type="matrix" values="0 0 0 0 0 0 0 0 0 0 0 0 0 0 0 0 0 0 127 0" result="hardAlpha"/>
<feOffset dy="3.80628"/>
<feGaussianBlur stdDeviation="4.75785"/>
<feColorMatrix type="matrix" values="0 0 0 0 0.298039 0 0 0 0 0.803922 0 0 0 0 0.952941 0 0 0 0.1 0"/>
<feBlend mode="normal" in2="BackgroundImageFix" result="effect1_dropShadow_748_6590"/>
<feBlend mode="normal" in="SourceGraphic" in2="effect1_dropShadow_748_6590" result="shape"/>
</filter>
<filter id="filter5_d_748_6590" x="61.0018" y="240.433" width="246.081" height="64.5755" filterUnits="userSpaceOnUse" color-interpolation-filters="sRGB">
<feFlood flood-opacity="0" result="BackgroundImageFix"/>
<feColorMatrix in="SourceAlpha" type="matrix" values="0 0 0 0 0 0 0 0 0 0 0 0 0 0 0 0 0 0 127 0" result="hardAlpha"/>
<feOffset dy="3.05416"/>
<feGaussianBlur stdDeviation="3.8177"/>
<feColorMatrix type="matrix" values="0 0 0 0 0.298039 0 0 0 0 0.803922 0 0 0 0 0.952941 0 0 0 0.1 0"/>
<feBlend mode="normal" in2="BackgroundImageFix" result="effect1_dropShadow_748_6590"/>
<feBlend mode="normal" in="SourceGraphic" in2="effect1_dropShadow_748_6590" result="shape"/>
</filter>
<filter id="filter6_d_748_6590" x="131" y="336" width="139" height="129.849" filterUnits="userSpaceOnUse" color-interpolation-filters="sRGB">
<feFlood flood-opacity="0" result="BackgroundImageFix"/>
<feColorMatrix in="SourceAlpha" type="matrix" values="0 0 0 0 0 0 0 0 0 0 0 0 0 0 0 0 0 0 127 0" result="hardAlpha"/>
<feOffset dy="8"/>
<feGaussianBlur stdDeviation="10"/>
<feColorMatrix type="matrix" values="0 0 0 0 0.298039 0 0 0 0 0.803922 0 0 0 0 0.952941 0 0 0 0.1 0"/>
<feBlend mode="normal" in2="BackgroundImageFix" result="effect1_dropShadow_748_6590"/>
<feBlend mode="normal" in="SourceGraphic" in2="effect1_dropShadow_748_6590" result="shape"/>
</filter>
<linearGradient id="paint0_linear_748_6590" x1="456.635" y1="190.034" x2="165.46" y2="484.121" gradientUnits="userSpaceOnUse">
<stop stop-color="#FC8437"/>
<stop offset="0.0001" stop-color="#61BED9"/>
<stop offset="0.9999" stop-color="#7B61FF"/>
<stop offset="1" stop-color="#C4291C"/>
</linearGradient>
<linearGradient id="paint1_linear_748_6590" x1="456.635" y1="190.034" x2="165.46" y2="484.121" gradientUnits="userSpaceOnUse">
<stop stop-color="#FC8437"/>
<stop offset="0.0001" stop-color="#61BED9"/>
<stop offset="0.9999" stop-color="#7B61FF"/>
<stop offset="1" stop-color="#C4291C"/>
</linearGradient>
<linearGradient id="paint2_linear_748_6590" x1="461.967" y1="84.6604" x2="211.557" y2="337.575" gradientUnits="userSpaceOnUse">
<stop stop-color="#FC8437"/>
<stop offset="0.0001" stop-color="#61BED9"/>
<stop offset="0.9999" stop-color="#7B61FF"/>
<stop offset="1" stop-color="#C4291C"/>
</linearGradient>
<linearGradient id="paint3_linear_748_6590" x1="531.394" y1="217.461" x2="429.483" y2="320.392" gradientUnits="userSpaceOnUse">
<stop stop-color="#FC8437"/>
<stop offset="0.0001" stop-color="#61BED9"/>
<stop offset="0.9999" stop-color="#7B61FF"/>
<stop offset="1" stop-color="#C4291C"/>
</linearGradient>
<linearGradient id="paint4_linear_748_6590" x1="229.65" y1="151.657" x2="127.739" y2="254.588" gradientUnits="userSpaceOnUse">
<stop stop-color="#FC8437"/>
<stop offset="0.0001" stop-color="#61BED9"/>
<stop offset="0.9999" stop-color="#7B61FF"/>
<stop offset="1" stop-color="#C4291C"/>
</linearGradient>
<linearGradient id="paint5_linear_748_6590" x1="199.441" y1="410.4" x2="5.77461" y2="604.066" gradientUnits="userSpaceOnUse">
<stop offset="0.9999" stop-color="#4CCDF3"/>
<stop offset="1" stop-color="#4B2180"/>
</linearGradient>
<linearGradient id="paint6_linear_748_6590" x1="168.717" y1="379.673" x2="-24.949" y2="573.339" gradientUnits="userSpaceOnUse">
<stop offset="0.9999" stop-color="#4CCDF3"/>
<stop offset="1" stop-color="#4B2180"/>
</linearGradient>
<linearGradient id="paint7_linear_748_6590" x1="118.061" y1="329.021" x2="-75.6053" y2="522.687" gradientUnits="userSpaceOnUse">
<stop offset="0.9999" stop-color="#4CCDF3"/>
<stop offset="1" stop-color="#4B2180"/>
</linearGradient>
<linearGradient id="paint8_linear_748_6590" x1="606.272" y1="-120.942" x2="368.665" y2="116.665" gradientUnits="userSpaceOnUse">
<stop offset="0.9999" stop-color="#4CCDF3"/>
<stop offset="1" stop-color="#4B2180"/>
</linearGradient>
<linearGradient id="paint9_linear_748_6590" x1="568.578" y1="-158.64" x2="330.971" y2="78.9663" gradientUnits="userSpaceOnUse">
<stop offset="0.9999" stop-color="#4CCDF3"/>
<stop offset="1" stop-color="#4B2180"/>
</linearGradient>
<linearGradient id="paint10_linear_748_6590" x1="506.428" y1="-220.785" x2="268.822" y2="16.8213" gradientUnits="userSpaceOnUse">
<stop offset="0.9999" stop-color="#4CCDF3"/>
<stop offset="1" stop-color="#4B2180"/>
</linearGradient>
<linearGradient id="paint11_linear_748_6590" x1="117.439" y1="56.8289" x2="117.439" y2="128.071" gradientUnits="userSpaceOnUse">
<stop stop-color="#FC8437"/>
<stop offset="0.0001" stop-color="#61BED9"/>
<stop offset="0.9999" stop-color="#7B61FF"/>
<stop offset="1" stop-color="#C4291C"/>
</linearGradient>
<linearGradient id="paint12_linear_748_6590" x1="117.439" y1="56.8289" x2="117.439" y2="128.071" gradientUnits="userSpaceOnUse">
<stop stop-color="#FC8437"/>
<stop offset="0.0001" stop-color="#61BED9"/>
<stop offset="0.9999" stop-color="#7B61FF"/>
<stop offset="1" stop-color="#C4291C"/>
</linearGradient>
<linearGradient id="paint13_linear_748_6590" x1="105.328" y1="43.2927" x2="105.328" y2="104.561" gradientUnits="userSpaceOnUse">
<stop stop-color="#FC8437"/>
<stop offset="0.0001" stop-color="#61BED9"/>
<stop offset="0.9999" stop-color="#7B61FF"/>
<stop offset="1" stop-color="#C4291C"/>
</linearGradient>
<linearGradient id="paint14_linear_748_6590" x1="129.906" y1="51.1292" x2="129.906" y2="76.0638" gradientUnits="userSpaceOnUse">
<stop stop-color="#FC8437"/>
<stop offset="0.0001" stop-color="#61BED9"/>
<stop offset="0.9999" stop-color="#7B61FF"/>
<stop offset="1" stop-color="#C4291C"/>
</linearGradient>
<linearGradient id="paint15_linear_748_6590" x1="85.0239" y1="79.6262" x2="85.0239" y2="104.561" gradientUnits="userSpaceOnUse">
<stop stop-color="#FC8437"/>
<stop offset="0.0001" stop-color="#61BED9"/>
<stop offset="0.9999" stop-color="#7B61FF"/>
<stop offset="1" stop-color="#C4291C"/>
</linearGradient>
<linearGradient id="paint16_linear_748_6590" x1="121.185" y1="113.824" x2="99.5034" y2="135.506" gradientUnits="userSpaceOnUse">
<stop offset="0.9999" stop-color="#4CCDF3"/>
<stop offset="1" stop-color="#4B2180"/>
</linearGradient>
<linearGradient id="paint17_linear_748_6590" x1="117.745" y1="110.383" x2="96.0634" y2="132.066" gradientUnits="userSpaceOnUse">
<stop offset="0.9999" stop-color="#4CCDF3"/>
<stop offset="1" stop-color="#4B2180"/>
</linearGradient>
<linearGradient id="paint18_linear_748_6590" x1="112.074" y1="104.713" x2="90.392" y2="126.395" gradientUnits="userSpaceOnUse">
<stop offset="0.9999" stop-color="#4CCDF3"/>
<stop offset="1" stop-color="#4B2180"/>
</linearGradient>
<linearGradient id="paint19_linear_748_6590" x1="107.306" y1="62.8046" x2="128.988" y2="41.1225" gradientUnits="userSpaceOnUse">
<stop offset="0.9999" stop-color="#4CCDF3"/>
<stop offset="1" stop-color="#4B2180"/>
</linearGradient>
<linearGradient id="paint20_linear_748_6590" x1="110.746" y1="66.2443" x2="132.428" y2="44.5622" gradientUnits="userSpaceOnUse">
<stop offset="0.9999" stop-color="#4CCDF3"/>
<stop offset="1" stop-color="#4B2180"/>
</linearGradient>
<linearGradient id="paint21_linear_748_6590" x1="116.417" y1="71.9152" x2="138.099" y2="50.2331" gradientUnits="userSpaceOnUse">
<stop offset="0.9999" stop-color="#4CCDF3"/>
<stop offset="1" stop-color="#4B2180"/>
</linearGradient>
<linearGradient id="paint22_linear_748_6590" x1="117.588" y1="70.4539" x2="117.588" y2="90.1697" gradientUnits="userSpaceOnUse">
<stop offset="0.9999" stop-color="#4CCDF3"/>
<stop offset="1" stop-color="#4B2180"/>
</linearGradient>
<linearGradient id="paint23_linear_748_6590" x1="117.588" y1="70.4539" x2="117.588" y2="90.1697" gradientUnits="userSpaceOnUse">
<stop stop-color="white"/>
<stop offset="1" stop-color="white" stop-opacity="0"/>
</linearGradient>
<linearGradient id="paint24_linear_748_6590" x1="205.076" y1="348" x2="205.076" y2="437.849" gradientUnits="userSpaceOnUse">
<stop stop-color="#FC8437"/>
<stop offset="0.0001" stop-color="#61BED9"/>
<stop offset="0.9999" stop-color="#7B61FF"/>
<stop offset="1" stop-color="#C4291C"/>
</linearGradient>
<clipPath id="clip0_748_6590">
<rect width="500" height="500" fill="white"/>
</clipPath>
<clipPath id="clip1_748_6590">
<rect width="105.534" height="105.534" fill="white" transform="translate(63.0854 35.4619)"/>
</clipPath>
</defs>
</svg>
