<svg width="1034" height="276" viewBox="0 0 1034 276" fill="none" xmlns="http://www.w3.org/2000/svg">
<g clip-path="url(#clip0_933_3269)">
<rect width="1034" height="275.99" fill="white"/>
<path opacity="0.3" d="M1115.51 10.9112C1115.51 74.0081 1064.36 125.158 1001.27 125.158C938.169 125.158 887.019 74.0081 887.019 10.9112C887.019 -52.1857 938.169 -103.336 1001.27 -103.336C1064.36 -103.336 1115.51 -52.1857 1115.51 10.9112ZM899.564 10.9112C899.564 67.0799 945.098 112.614 1001.27 112.614C1057.43 112.614 1102.97 67.0799 1102.97 10.9112C1102.97 -45.2574 1057.43 -90.7911 1001.27 -90.7911C945.098 -90.7911 899.564 -45.2574 899.564 10.9112Z" fill="#584CB8"/>
<path opacity="0.3" d="M1158.84 -8.34389C1158.84 54.753 1107.69 105.903 1044.59 105.903C981.493 105.903 930.343 54.753 930.343 -8.34389C930.343 -71.4408 981.493 -122.591 1044.59 -122.591C1107.69 -122.591 1158.84 -71.4408 1158.84 -8.34389ZM942.888 -8.34389C942.888 47.8248 988.422 93.3585 1044.59 93.3585C1100.76 93.3585 1146.29 47.8248 1146.29 -8.34389C1146.29 -64.5126 1100.76 -110.046 1044.59 -110.046C988.422 -110.046 942.888 -64.5126 942.888 -8.34389Z" fill="#584CB8"/>
<path opacity="0.3" d="M188.379 209.239C188.379 272.336 137.229 323.486 74.1322 323.486C11.0353 323.486 -40.1148 272.336 -40.1148 209.239C-40.1148 146.142 11.0353 94.9919 74.1322 94.9919C137.229 94.9919 188.379 146.142 188.379 209.239ZM-27.5701 209.239C-27.5701 265.408 17.9636 310.941 74.1322 310.941C130.301 310.941 175.835 265.408 175.835 209.239C175.835 153.07 130.301 107.537 74.1322 107.537C17.9636 107.537 -27.5701 153.07 -27.5701 209.239Z" fill="#584CB8"/>
<circle cx="971.742" cy="254.168" r="5.77654" fill="#C4C4C4"/>
<circle cx="971.742" cy="272.139" r="5.77654" fill="#C4C4C4"/>
<circle cx="985.862" cy="254.168" r="5.77654" fill="#C4C4C4"/>
<circle cx="985.862" cy="272.139" r="5.77654" fill="#C4C4C4"/>
<circle cx="999.983" cy="254.168" r="5.77654" fill="#C4C4C4"/>
<circle cx="999.983" cy="272.139" r="5.77654" fill="#C4C4C4"/>
<circle cx="1014.1" cy="254.168" r="5.77654" fill="#C4C4C4"/>
<circle cx="1014.1" cy="272.139" r="5.77654" fill="#C4C4C4"/>
<circle cx="1028.22" cy="254.168" r="5.77654" fill="#C4C4C4"/>
<circle cx="1028.22" cy="272.139" r="5.77654" fill="#C4C4C4"/>
<g opacity="0.4">
<circle cx="971.742" cy="254.168" r="5.77654" fill="#584CB8"/>
<circle cx="971.742" cy="272.139" r="5.77654" fill="#584CB8"/>
<circle cx="985.862" cy="254.168" r="5.77654" fill="#584CB8"/>
<circle cx="985.862" cy="272.139" r="5.77654" fill="#584CB8"/>
<circle cx="999.983" cy="254.168" r="5.77654" fill="#584CB8"/>
<circle cx="999.983" cy="272.139" r="5.77654" fill="#584CB8"/>
<circle cx="1014.1" cy="254.168" r="5.77654" fill="#584CB8"/>
<circle cx="1014.1" cy="272.139" r="5.77654" fill="#584CB8"/>
<circle cx="1028.22" cy="254.168" r="5.77654" fill="#584CB8"/>
<circle cx="1028.22" cy="272.139" r="5.77654" fill="#584CB8"/>
</g>
<g opacity="0.5">
<circle cx="3.37873" cy="5.54633" r="3.37873" fill="url(#paint0_linear_933_3269)"/>
<circle cx="3.37873" cy="16.0581" r="3.37873" fill="url(#paint1_linear_933_3269)"/>
<circle cx="11.6378" cy="5.54633" r="3.37873" fill="url(#paint2_linear_933_3269)"/>
<circle cx="11.6378" cy="16.0581" r="3.37873" fill="url(#paint3_linear_933_3269)"/>
<circle cx="19.8969" cy="5.54633" r="3.37873" fill="url(#paint4_linear_933_3269)"/>
<circle cx="19.8969" cy="16.0581" r="3.37873" fill="url(#paint5_linear_933_3269)"/>
<circle cx="28.1561" cy="5.54633" r="3.37873" fill="url(#paint6_linear_933_3269)"/>
<circle cx="28.1561" cy="16.0581" r="3.37873" fill="url(#paint7_linear_933_3269)"/>
<circle cx="36.4152" cy="5.54633" r="3.37873" fill="url(#paint8_linear_933_3269)"/>
<circle cx="36.4152" cy="16.0581" r="3.37873" fill="url(#paint9_linear_933_3269)"/>
</g>
<g opacity="0.4">
<circle cx="282.901" cy="39.6446" r="2.41808" fill="#7B61FF"/>
<circle cx="282.901" cy="47.1676" r="2.41808" fill="#7B61FF"/>
<circle cx="282.901" cy="54.6905" r="2.41808" fill="#7B61FF"/>
<circle cx="288.812" cy="39.6446" r="2.41808" fill="#7B61FF"/>
<circle cx="288.812" cy="47.1676" r="2.41808" fill="#7B61FF"/>
<circle cx="288.812" cy="54.6905" r="2.41808" fill="#7B61FF"/>
<circle cx="294.723" cy="39.6446" r="2.41808" fill="#7B61FF"/>
<circle cx="294.723" cy="47.1676" r="2.41808" fill="#7B61FF"/>
<circle cx="294.723" cy="54.6905" r="2.41808" fill="#7B61FF"/>
<circle cx="300.634" cy="39.6446" r="2.41808" fill="#7B61FF"/>
<circle cx="300.634" cy="47.1676" r="2.41808" fill="#7B61FF"/>
<circle cx="300.634" cy="54.6905" r="2.41808" fill="#7B61FF"/>
<circle cx="306.545" cy="39.6446" r="2.41808" fill="#7B61FF"/>
<circle cx="306.545" cy="47.1676" r="2.41808" fill="#7B61FF"/>
<circle cx="306.545" cy="54.6905" r="2.41808" fill="#7B61FF"/>
</g>
<path opacity="0.2" d="M113.759 11.9636L114.547 7.8523L110.435 7.06423L109.647 11.1755L113.759 11.9636ZM128.827 14.8519L132.938 15.64L133.726 11.5287L129.615 10.7406L128.827 14.8519ZM169.6 22.6674L170.388 18.5561L166.277 17.7681L165.489 21.8794L169.6 22.6674ZM184.668 25.5558L188.78 26.3438L189.568 22.2325L185.457 21.4445L184.668 25.5558ZM170.193 78.8364C167.861 91.0037 163.373 98.8121 157.31 103.17C151.294 107.494 142.927 108.993 131.548 106.812L129.972 115.035C142.736 117.481 153.697 116.078 162.196 109.969C170.648 103.894 175.861 93.739 178.416 80.4125L170.193 78.8364ZM131.548 106.812C120.68 104.729 113.818 100.439 110.033 94.4918C106.213 88.4911 104.987 79.9623 107.227 68.2766L99.0042 66.7004C96.5435 79.5377 97.574 90.5095 102.97 98.9871C108.399 107.518 117.709 112.684 129.972 115.035L131.548 106.812ZM107.227 68.2766L117.87 12.7516L109.647 11.1755L99.0042 66.7004L107.227 68.2766ZM112.971 16.0749L128.039 18.9632L129.615 10.7406L114.547 7.8523L112.971 16.0749ZM124.716 14.0639L114.667 66.4865L122.89 68.0626L132.938 15.64L124.716 14.0639ZM114.667 66.4865C112.88 75.8114 113.187 83.9051 116.399 90.2088C119.727 96.7387 125.764 100.575 133.636 102.084L135.212 93.8616C129.239 92.7167 125.746 90.1102 123.859 86.4072C121.856 82.4782 121.263 76.5495 122.89 68.0626L114.667 66.4865ZM133.636 102.084C141.255 103.545 148.078 102.254 153.428 97.5509C158.585 93.0159 161.754 85.8354 163.481 76.8278L155.258 75.2517C153.692 83.4227 151.057 88.4871 147.899 91.2633C144.933 93.8712 140.93 94.9577 135.212 93.8616L133.636 102.084ZM163.481 76.8278L173.711 23.4555L165.489 21.8794L155.258 75.2517L163.481 76.8278ZM168.812 26.7787L183.88 29.667L185.457 21.4445L170.388 18.5561L168.812 26.7787ZM180.557 24.7677L170.193 78.8364L178.416 80.4125L188.78 26.3438L180.557 24.7677ZM256.991 133.544L256.203 137.656L263.613 139.076L260.897 132.037L256.991 133.544ZM238.947 130.086L234.974 131.404L235.747 133.735L238.159 134.197L238.947 130.086ZM226.717 93.2155L222.727 94.4807L222.735 94.5072L222.744 94.5335L226.717 93.2155ZM225.706 88.5584L229.839 87.894L229.374 84.9991L226.494 84.4471L225.706 88.5584ZM225.453 88.5098L226.241 84.3985L223.481 83.8695L221.946 86.2238L225.453 88.5098ZM222.728 92.451L225.897 95.186L226.027 95.0364L226.141 94.8753L222.728 92.451ZM197.161 122.076L196.373 126.187L198.749 126.643L200.33 124.811L197.161 122.076ZM178.991 118.593L175.977 115.688L170.615 121.25L178.203 122.704L178.991 118.593ZM217.497 78.6488L220.511 81.5541L222.338 79.6595L221.422 77.1923L217.497 78.6488ZM198.799 28.2644L199.587 24.1531L192.289 22.7542L194.875 29.7208L198.799 28.2644ZM217.223 31.7959L221.22 30.551L220.474 28.1567L218.011 27.6846L217.223 31.7959ZM227.747 65.5823L231.758 64.3821L231.751 64.3597L231.744 64.3373L227.747 65.5823ZM229.431 72.2064L225.333 73.0602L225.902 75.7923L228.643 76.3177L229.431 72.2064ZM229.621 72.2428L228.833 76.3541L231.467 76.8589L233.026 74.6778L229.621 72.2428ZM234 66.5183L237.187 69.2331L237.194 69.2244L237.202 69.2157L234 66.5183ZM256.857 39.393L257.645 35.2817L255.236 34.82L253.655 36.6956L256.857 39.393ZM273.824 42.6454L276.9 45.4853L282.009 39.9519L274.612 38.5341L273.824 42.6454ZM237.212 82.2964L234.136 79.4565L232.368 81.3718L233.306 83.8037L237.212 82.2964ZM257.779 129.433L239.735 125.974L238.159 134.197L256.203 137.656L257.779 129.433ZM242.921 128.768L230.69 91.8976L222.744 94.5335L234.974 131.404L242.921 128.768ZM230.707 91.9503C230.444 91.1189 230.145 89.7989 229.839 87.894L221.573 89.2228C221.906 91.2911 222.281 93.0758 222.727 94.4807L230.707 91.9503ZM226.494 84.4471L226.241 84.3985L224.665 92.6211L224.918 92.6697L226.494 84.4471ZM221.946 86.2238C221.437 87.0052 220.569 88.2618 219.316 90.0267L226.141 94.8753C227.404 93.0968 228.353 91.7259 228.96 90.7959L221.946 86.2238ZM219.559 89.716L193.992 119.341L200.33 124.811L225.897 95.186L219.559 89.716ZM197.949 117.965L179.779 114.482L178.203 122.704L196.373 126.187L197.949 117.965ZM182.004 121.498L220.511 81.5541L214.484 75.7435L175.977 115.688L182.004 121.498ZM221.422 77.1923L202.724 26.8079L194.875 29.7208L213.573 80.1052L221.422 77.1923ZM198.011 32.3757L216.435 35.9072L218.011 27.6846L199.587 24.1531L198.011 32.3757ZM213.226 33.0409L223.751 66.8272L231.744 64.3373L221.22 30.551L213.226 33.0409ZM223.737 66.7825C224.371 68.9012 224.903 70.9937 225.333 73.0602L233.529 71.3526C233.048 69.0435 232.457 66.7199 231.758 64.3821L223.737 66.7825ZM228.643 76.3177L228.833 76.3541L230.409 68.1315L230.219 68.0951L228.643 76.3177ZM233.026 74.6778C234.728 72.2978 236.11 70.4967 237.187 69.2331L230.814 63.8036C229.519 65.3236 227.982 67.3388 226.216 69.8078L233.026 74.6778ZM237.202 69.2157L260.058 42.0904L253.655 36.6956L230.799 63.821L237.202 69.2157ZM256.069 43.5043L273.036 46.7567L274.612 38.5341L257.645 35.2817L256.069 43.5043ZM270.749 39.8055L234.136 79.4565L240.287 85.1363L276.9 45.4853L270.749 39.8055ZM233.306 83.8037L253.086 135.052L260.897 132.037L241.117 80.7891L233.306 83.8037ZM376.296 156.413L375.508 160.524L382.975 161.956L380.192 154.881L376.296 156.413ZM358.695 153.039L354.761 154.468L355.572 156.703L357.907 157.151L358.695 153.039ZM348.857 125.948L344.91 127.344L344.916 127.361L344.922 127.377L348.857 125.948ZM346.087 119.51L342.341 121.378L342.368 121.433L342.397 121.487L346.087 119.51ZM343.041 114.856L339.857 117.574L339.879 117.6L339.901 117.625L343.041 114.856ZM328.214 108.995L329.002 104.884L324.891 104.096L324.103 108.207L328.214 108.995ZM321.151 145.843L320.363 149.954L324.474 150.742L325.262 146.631L321.151 145.843ZM306.146 142.967L302.035 142.179L301.247 146.29L305.358 147.078L306.146 142.967ZM323.549 52.1767L324.337 48.0654L320.226 47.2774L319.438 51.3887L323.549 52.1767ZM373.401 68.0995L370.255 70.861L370.269 70.8766L370.283 70.8922L373.401 68.0995ZM378.138 76.9496L374.09 78.0165L374.099 78.05L374.108 78.0834L378.138 76.9496ZM375.211 96.6709L371.608 94.5388L371.599 94.5551L371.589 94.5715L375.211 96.6709ZM369.787 103.049L367.146 99.8007L367.14 99.8058L369.787 103.049ZM362.437 107.153L361.017 103.215L361.002 103.22L360.987 103.226L362.437 107.153ZM353.487 108.982L353.215 104.805L349.985 105.016L349.376 108.194L353.487 108.982ZM353.439 109.235L349.328 108.447L348.867 110.849L350.733 112.429L353.439 109.235ZM357.149 113.163L353.771 115.635L353.794 115.667L353.818 115.698L357.149 113.163ZM362.429 121.92L358.602 123.618L358.629 123.679L358.658 123.739L362.429 121.92ZM365.042 127.804L368.938 126.271L368.923 126.234L368.908 126.198L365.042 127.804ZM336.212 67.2722L337 63.1609L332.888 62.3728L332.1 66.4841L336.212 67.2722ZM330.556 96.7757L326.445 95.9877L325.657 100.099L329.768 100.887L330.556 96.7757ZM349.693 99.3281L349.036 95.1939L349.021 95.1961L349.007 95.1985L349.693 99.3281ZM377.084 152.302L359.483 148.928L357.907 157.151L375.508 160.524L377.084 152.302ZM362.63 151.61L352.792 124.519L344.922 127.377L354.761 154.468L362.63 151.61ZM352.804 124.553C351.872 121.919 350.868 119.569 349.777 117.533L342.397 121.487C343.24 123.06 344.082 125.002 344.91 127.344L352.804 124.553ZM349.833 117.642C348.789 115.547 347.581 113.676 346.181 112.088L339.901 117.625C340.729 118.564 341.552 119.796 342.341 121.378L349.833 117.642ZM346.224 112.138C344.816 110.489 343.15 109.146 341.242 108.138L337.332 115.541C338.285 116.044 339.121 116.713 339.857 117.574L346.224 112.138ZM341.242 108.138C339.382 107.155 337.31 106.476 335.08 106.049L333.504 114.271C335.073 114.572 336.331 115.013 337.332 115.541L341.242 108.138ZM335.08 106.049L329.002 104.884L327.426 113.106L333.504 114.271L335.08 106.049ZM324.103 108.207L317.04 145.055L325.262 146.631L332.325 109.783L324.103 108.207ZM321.939 141.732L306.934 138.855L305.358 147.078L320.363 149.954L321.939 141.732ZM310.257 143.755L327.66 52.9648L319.438 51.3887L302.035 142.179L310.257 143.755ZM322.761 56.288L352.644 62.0161L354.22 53.7936L324.337 48.0654L322.761 56.288ZM352.644 62.0161C356.583 62.771 360.037 63.9183 363.042 65.4241L366.793 57.9392C363.01 56.0435 358.808 54.6729 354.22 53.7936L352.644 62.0161ZM363.042 65.4241C366.004 66.9086 368.385 68.7301 370.255 70.861L376.548 65.3381C373.892 62.3131 370.618 59.856 366.793 57.9392L363.042 65.4241ZM370.283 70.8922C372.102 72.923 373.368 75.2781 374.09 78.0165L382.186 75.8828C381.134 71.8924 379.243 68.3474 376.52 65.3069L370.283 70.8922ZM374.108 78.0834C374.836 80.6726 374.942 83.713 374.255 87.2982L382.477 88.8744C383.36 84.2712 383.313 79.8872 382.167 75.8159L374.108 78.0834ZM374.255 87.2982C373.72 90.0874 372.824 92.4848 371.608 94.5388L378.813 98.803C380.575 95.8266 381.782 92.5009 382.477 88.8744L374.255 87.2982ZM371.589 94.5715C370.4 96.6234 368.921 98.3574 367.146 99.8007L372.428 106.296C375.008 104.198 377.145 101.681 378.832 98.7703L371.589 94.5715ZM367.14 99.8058C365.406 101.221 363.378 102.364 361.017 103.215L363.857 111.091C367.043 109.942 369.915 108.349 372.435 106.291L367.14 99.8058ZM360.987 103.226C358.674 104.08 356.092 104.617 353.215 104.805L353.76 113.159C357.352 112.925 360.737 112.243 363.886 111.08L360.987 103.226ZM349.376 108.194L349.328 108.447L357.55 110.024L357.599 109.77L349.376 108.194ZM350.733 112.429C351.981 113.487 352.984 114.559 353.771 115.635L360.528 110.691C359.304 109.019 357.833 107.472 356.145 106.042L350.733 112.429ZM353.818 115.698C354.756 116.93 355.626 118.188 356.427 119.469L363.525 115.029C362.585 113.527 361.57 112.06 360.481 110.628L353.818 115.698ZM356.427 119.469C357.18 120.672 357.907 122.051 358.602 123.618L366.255 120.222C365.422 118.346 364.515 116.611 363.525 115.029L356.427 119.469ZM358.658 123.739C359.431 125.34 360.27 127.227 361.176 129.409L368.908 126.198C367.958 123.911 367.055 121.876 366.199 120.101L358.658 123.739ZM361.147 129.336L372.401 157.946L380.192 154.881L368.938 126.271L361.147 129.336ZM332.1 66.4841L326.445 95.9877L334.668 97.5638L340.323 68.0603L332.1 66.4841ZM329.768 100.887L342.304 103.29L343.88 95.0674L331.344 92.6645L329.768 100.887ZM342.304 103.29C345.053 103.817 347.756 103.893 350.379 103.458L349.007 95.1985C347.472 95.4535 345.774 95.4304 343.88 95.0674L342.304 103.29ZM350.35 103.462C352.996 103.042 355.45 102.146 357.66 100.743L353.172 93.6748C351.994 94.423 350.633 94.9399 349.036 95.1939L350.35 103.462ZM357.66 100.743C359.888 99.3281 361.739 97.4624 363.217 95.2115L356.219 90.6157C355.349 91.9405 354.332 92.9382 353.172 93.6748L357.66 100.743ZM363.217 95.2115C364.733 92.9036 365.733 90.2778 366.282 87.4111L358.06 85.8349C357.687 87.7799 357.052 89.3479 356.219 90.6157L363.217 95.2115ZM366.282 87.4111C367.295 82.126 366.467 77.1937 363.335 73.098L356.684 78.1838C358.101 80.0361 358.713 82.4251 358.06 85.8349L366.282 87.4111ZM363.335 73.098C360.225 69.0313 355.418 66.6913 349.662 65.5881L348.086 73.8107C352.629 74.6815 355.246 76.3025 356.684 78.1838L363.335 73.098ZM349.662 65.5881L337 63.1609L335.424 71.3835L348.086 73.8107L349.662 65.5881ZM438.418 168.321L437.63 172.432L441.741 173.22L442.529 169.109L438.418 168.321ZM387.451 158.551L383.34 157.763L382.552 161.875L386.663 162.663L387.451 158.551ZM404.854 67.7615L405.642 63.6502L401.531 62.8622L400.743 66.9734L404.854 67.7615ZM453.794 77.1425L457.906 77.9306L458.694 73.8193L454.583 73.0312L453.794 77.1425ZM451.343 89.9316L450.555 94.0429L454.666 94.831L455.454 90.7197L451.343 89.9316ZM417.471 83.4389L418.259 79.3276L414.148 78.5396L413.36 82.6509L417.471 83.4389ZM412.544 109.144L408.433 108.356L407.644 112.467L411.756 113.255L412.544 109.144ZM443.757 115.127L447.868 115.915L448.656 111.803L444.545 111.015L443.757 115.127ZM441.317 127.852L440.529 131.964L444.641 132.752L445.429 128.641L441.317 127.852ZM410.104 121.87L410.893 117.758L406.781 116.97L405.993 121.081L410.104 121.87ZM404.959 148.714L400.848 147.926L400.06 152.037L404.171 152.825L404.959 148.714ZM440.857 155.595L444.968 156.383L445.756 152.272L441.645 151.484L440.857 155.595ZM439.206 164.209L388.239 154.44L386.663 162.663L437.63 172.432L439.206 164.209ZM391.563 159.339L408.965 68.5496L400.743 66.9734L383.34 157.763L391.563 159.339ZM404.066 71.8728L453.006 81.2538L454.583 73.0312L405.642 63.6502L404.066 71.8728ZM449.683 76.3545L447.232 89.1436L455.454 90.7197L457.906 77.9306L449.683 76.3545ZM452.131 85.8203L418.259 79.3276L416.683 87.5502L450.555 94.0429L452.131 85.8203ZM413.36 82.6509L408.433 108.356L416.655 109.932L421.582 84.227L413.36 82.6509ZM411.756 113.255L442.969 119.238L444.545 111.015L413.332 105.032L411.756 113.255ZM439.645 114.339L437.206 127.064L445.429 128.641L447.868 115.915L439.645 114.339ZM442.106 123.741L410.893 117.758L409.316 125.981L440.529 131.964L442.106 123.741ZM405.993 121.081L400.848 147.926L409.07 149.502L414.216 122.658L405.993 121.081ZM404.171 152.825L440.069 159.706L441.645 151.484L405.747 144.603L404.171 152.825ZM436.746 154.807L434.306 167.533L442.529 169.109L444.968 156.383L436.746 154.807ZM451.594 167.105L447.483 166.317L447.049 168.58L448.729 170.157L451.594 167.105ZM454.567 151.594L457.916 149.082L452.238 141.512L450.456 150.805L454.567 151.594ZM458.85 155.959L456.22 159.216L456.235 159.228L456.25 159.239L458.85 155.959ZM464.494 159.732L462.446 163.383L462.479 163.401L462.512 163.419L464.494 159.732ZM491.216 163.804L489.567 159.956L489.555 159.961L489.543 159.967L491.216 163.804ZM497.146 149.647L493.249 151.176L493.273 151.236L493.298 151.296L497.146 149.647ZM493.678 144.453L496.69 141.546L493.678 144.453ZM487.81 139.455L485.289 142.797L485.323 142.823L485.357 142.848L487.81 139.455ZM480.497 134.115L477.865 137.37L477.967 137.453L478.075 137.529L480.497 134.115ZM466.949 120.557L463.412 122.796L463.436 122.833L463.46 122.87L466.949 120.557ZM463.662 112.707L459.571 113.594L459.577 113.622L459.584 113.65L463.662 112.707ZM468.724 92.8039L465.632 89.9826L465.626 89.9885L465.621 89.9944L468.724 92.8039ZM477.815 86.4727L479.391 90.3508L479.404 90.3456L477.815 86.4727ZM489.452 83.9774L489.653 88.1586L489.674 88.1576L489.694 88.1564L489.452 83.9774ZM522.173 92.0217L526.284 92.8098L526.773 90.2578L524.703 88.687L522.173 92.0217ZM519.321 106.9L516.277 109.773L521.892 115.723L523.432 107.688L519.321 106.9ZM493.676 96.8647L493.688 92.6786L493.681 92.6785L493.674 92.6786L493.676 96.8647ZM487.325 97.8132L486.041 93.8287L486.021 93.8353L486 93.842L487.325 97.8132ZM482.819 116.182L479.698 118.972L479.716 118.991L479.733 119.011L482.819 116.182ZM488.079 120.931L485.511 124.238L485.547 124.265L485.583 124.292L488.079 120.931ZM495.53 126.232L498.126 122.948L498.017 122.862L497.902 122.783L495.53 126.232ZM503.462 133.135L500.557 136.15L500.568 136.159L500.578 136.169L503.462 133.135ZM509.716 140.57L506.207 142.851L506.218 142.868L506.229 142.886L509.716 140.57ZM513.374 148.885L509.304 149.864L509.313 149.902L509.323 149.941L513.374 148.885ZM499.492 175.761L497.977 171.859L497.965 171.864L497.953 171.868L499.492 175.761ZM469.044 175.373L470.29 171.376L470.256 171.366L470.222 171.356L469.044 175.373ZM462.464 173.061L464.043 169.184L464.009 169.171L463.975 169.157L462.464 173.061ZM455.705 167.893L458.679 152.382L450.456 150.805L447.483 166.317L455.705 167.893ZM451.219 154.106C452.604 155.952 454.283 157.652 456.22 159.216L461.48 152.702C460.007 151.512 458.831 150.301 457.916 149.082L451.219 154.106ZM456.25 159.239C458.178 160.768 460.245 162.148 462.446 163.383L466.542 156.081C464.714 155.055 463.018 153.921 461.451 152.679L456.25 159.239ZM462.512 163.419C464.689 164.59 466.904 165.606 469.158 166.464L472.139 158.641C470.233 157.915 468.346 157.05 466.477 156.045L462.512 163.419ZM469.158 166.464C471.421 167.327 473.606 167.973 475.703 168.375L477.279 160.152C475.746 159.858 474.036 159.363 472.139 158.641L469.158 166.464ZM475.703 168.375C482.347 169.648 488.258 169.66 492.889 167.641L489.543 159.967C487.203 160.987 483.297 161.305 477.279 160.152L475.703 168.375ZM492.865 167.652C497.765 165.552 500.762 161.582 501.772 156.31L493.55 154.734C493.023 157.481 491.723 159.032 489.567 159.956L492.865 167.652ZM501.772 156.31C502.319 153.457 502.124 150.635 500.994 147.998L493.298 151.296C493.68 152.186 493.828 153.281 493.55 154.734L501.772 156.31ZM501.043 148.118C500.101 145.716 498.605 143.53 496.69 141.546L490.666 147.36C491.964 148.705 492.781 149.982 493.249 151.176L501.043 148.118ZM496.69 141.546C494.878 139.669 492.725 137.844 490.263 136.063L485.357 142.848C487.506 144.402 489.265 145.909 490.666 147.36L496.69 141.546ZM490.331 136.113C488.039 134.385 485.568 132.58 482.92 130.701L478.075 137.529C480.665 139.368 483.07 141.124 485.289 142.797L490.331 136.113ZM483.13 130.861C480.437 128.683 477.966 126.534 475.715 124.415L469.977 130.512C472.396 132.789 475.026 135.075 477.865 137.37L483.13 130.861ZM475.715 124.415C473.588 122.413 471.837 120.354 470.438 118.244L463.46 122.87C465.252 125.572 467.432 128.117 469.977 130.512L475.715 124.415ZM470.486 118.318C469.191 116.272 468.28 114.093 467.741 111.763L459.584 113.65C460.337 116.906 461.617 119.961 463.412 122.796L470.486 118.318ZM467.753 111.82C467.294 109.7 467.281 107.16 467.863 104.125L459.64 102.549C458.895 106.437 458.823 110.143 459.571 113.594L467.753 111.82ZM467.863 104.125C468.56 100.489 469.925 97.7152 471.828 95.6133L465.621 89.9944C462.528 93.4112 460.578 97.6599 459.64 102.549L467.863 104.125ZM471.817 95.6251C473.944 93.2937 476.455 91.5438 479.391 90.3508L476.238 82.5947C472.15 84.2562 468.602 86.7271 465.632 89.9826L471.817 95.6251ZM479.404 90.3456C482.486 89.0811 485.89 88.3399 489.653 88.1586L489.25 79.7961C484.621 80.0191 480.268 80.9416 476.226 82.5999L479.404 90.3456ZM489.694 88.1564C493.55 87.9323 497.395 88.1869 501.237 88.9235L502.813 80.7009C498.299 79.8356 493.761 79.5336 489.209 79.7983L489.694 88.1564ZM501.237 88.9235C510.595 90.7173 516.51 92.9795 519.642 95.3564L524.703 88.687C519.966 85.0921 512.449 82.5479 502.813 80.7009L501.237 88.9235ZM518.062 91.2337L515.21 106.112L523.432 107.688L526.284 92.8098L518.062 91.2337ZM522.365 104.027C517.176 98.5291 510.025 95.0797 501.297 93.4067L499.721 101.629C507.201 103.063 512.591 105.868 516.277 109.773L522.365 104.027ZM501.297 93.4067C498.8 92.928 496.262 92.686 493.688 92.6786L493.664 101.051C495.726 101.057 497.744 101.25 499.721 101.629L501.297 93.4067ZM493.674 92.6786C491.009 92.6802 488.455 93.0511 486.041 93.8287L488.608 101.798C490.112 101.313 491.792 101.052 493.679 101.051L493.674 92.6786ZM486 93.842C483.541 94.6619 481.352 95.939 479.495 97.6896L485.238 103.782C486.159 102.914 487.274 102.243 488.649 101.784L486 93.842ZM479.495 97.6896C477.374 99.6891 476.106 102.256 475.553 105.14L483.776 106.716C484.048 105.295 484.582 104.4 485.238 103.782L479.495 97.6896ZM475.553 105.14C475.054 107.745 475.125 110.332 475.963 112.781L483.884 110.07C483.6 109.241 483.498 108.164 483.776 106.716L475.553 105.14ZM475.963 112.781C476.736 115.039 478.024 117.099 479.698 118.972L485.94 113.392C484.875 112.201 484.234 111.091 483.884 110.07L475.963 112.781ZM479.733 119.011C481.34 120.763 483.277 122.503 485.511 124.238L490.646 117.625C488.69 116.106 487.121 114.68 485.905 113.353L479.733 119.011ZM485.583 124.292C487.778 125.922 490.305 127.719 493.158 129.681L497.902 122.783C495.111 120.863 492.669 119.126 490.574 117.57L485.583 124.292ZM492.934 129.516C495.685 131.691 498.225 133.902 500.557 136.15L506.366 130.12C503.823 127.67 501.075 125.28 498.126 122.948L492.934 129.516ZM500.578 136.169C502.845 138.324 504.713 140.553 506.207 142.851L513.226 138.288C511.341 135.387 509.039 132.66 506.346 130.101L500.578 136.169ZM506.229 142.886C507.7 145.1 508.716 147.422 509.304 149.864L517.444 147.906C516.619 144.476 515.196 141.254 513.203 138.253L506.229 142.886ZM509.323 149.941C509.899 152.15 509.971 154.672 509.414 157.578L517.637 159.154C518.391 155.221 518.361 151.423 517.424 147.829L509.323 149.941ZM509.414 157.578C508.637 161.63 507.222 164.597 505.359 166.721L511.654 172.241C514.719 168.746 516.65 164.303 517.637 159.154L509.414 157.578ZM505.359 166.721C503.348 169.015 500.906 170.721 497.977 171.859L501.007 179.663C505.17 178.047 508.738 175.567 511.654 172.241L505.359 166.721ZM497.953 171.868C494.965 173.05 491.576 173.715 487.741 173.806L487.94 182.176C492.633 182.064 497.012 181.243 501.031 179.654L497.953 171.868ZM487.741 173.806C483.799 173.9 479.686 173.544 475.395 172.722L473.818 180.944C478.644 181.869 483.353 182.285 487.94 182.176L487.741 173.806ZM475.395 172.722C474.084 172.47 472.392 172.032 470.29 171.376L467.799 179.369C470.074 180.078 472.09 180.613 473.818 180.944L475.395 172.722ZM470.222 171.356C468.214 170.767 466.154 170.044 464.043 169.184L460.885 176.938C463.239 177.897 465.567 178.715 467.867 179.39L470.222 171.356ZM463.975 169.157C461.873 168.344 459.93 167.462 458.14 166.516L454.226 173.917C456.33 175.03 458.574 176.044 460.953 176.965L463.975 169.157ZM458.14 166.516C456.391 165.591 455.209 164.757 454.46 164.053L448.729 170.157C450.205 171.543 452.081 172.783 454.226 173.917L458.14 166.516ZM577.223 194.927L576.435 199.039L580.546 199.827L581.334 195.715L577.223 194.927ZM526.256 185.158L522.145 184.37L521.357 188.481L525.468 189.269L526.256 185.158ZM543.659 94.368L544.447 90.2567L540.336 89.4686L539.548 93.5799L543.659 94.368ZM592.599 103.749L596.711 104.537L597.499 100.426L593.387 99.6377L592.599 103.749ZM590.148 116.538L589.36 120.649L593.471 121.437L594.259 117.326L590.148 116.538ZM556.276 110.045L557.064 105.934L552.953 105.146L552.165 109.257L556.276 110.045ZM551.349 135.75L547.237 134.962L546.449 139.073L550.561 139.862L551.349 135.75ZM582.562 141.733L586.673 142.521L587.461 138.41L583.35 137.622L582.562 141.733ZM580.122 154.459L579.334 158.57L583.446 159.358L584.234 155.247L580.122 154.459ZM548.909 148.476L549.697 144.365L545.586 143.577L544.798 147.688L548.909 148.476ZM543.764 175.32L539.653 174.532L538.864 178.644L542.976 179.432L543.764 175.32ZM579.662 182.201L583.773 182.99L584.561 178.878L580.45 178.09L579.662 182.201ZM578.011 190.816L527.044 181.047L525.468 189.269L576.435 199.039L578.011 190.816ZM530.367 185.946L547.77 95.1561L539.548 93.5799L522.145 184.37L530.367 185.946ZM542.871 98.4793L591.811 107.86L593.387 99.6377L544.447 90.2567L542.871 98.4793ZM588.488 102.961L586.037 115.75L594.259 117.326L596.711 104.537L588.488 102.961ZM590.936 112.427L557.064 105.934L555.488 114.157L589.36 120.649L590.936 112.427ZM552.165 109.257L547.237 134.962L555.46 136.538L560.387 110.833L552.165 109.257ZM550.561 139.862L581.774 145.844L583.35 137.622L552.137 131.639L550.561 139.862ZM578.45 140.945L576.011 153.671L584.234 155.247L586.673 142.521L578.45 140.945ZM580.91 150.348L549.697 144.365L548.121 152.587L579.334 158.57L580.91 150.348ZM544.798 147.688L539.653 174.532L547.875 176.108L553.021 149.264L544.798 147.688ZM542.976 179.432L578.874 186.313L580.45 178.09L544.552 171.209L542.976 179.432ZM575.551 181.413L573.111 194.139L581.334 195.715L583.773 182.99L575.551 181.413ZM669.734 212.66L668.946 216.771L674.86 217.905L673.862 211.966L669.734 212.66ZM653.21 209.493L649.071 210.12L649.514 213.047L652.421 213.604L653.21 209.493ZM649.472 184.818L653.611 184.191L653.167 181.264L650.26 180.707L649.472 184.818ZM613.764 177.973L614.552 173.862L611.606 173.298L610.124 175.905L613.764 177.973ZM601.483 199.578L600.695 203.689L603.641 204.253L605.123 201.646L601.483 199.578ZM585.022 196.422L581.448 194.242L578.304 199.397L584.234 200.534L585.022 196.422ZM636.424 112.149L637.212 108.038L634.361 107.492L632.85 109.97L636.424 112.149ZM653.391 115.402L657.52 114.708L657.037 111.838L654.179 111.29L653.391 115.402ZM647.838 171.771L647.049 175.882L652.833 176.991L651.979 171.164L647.838 171.771ZM642.18 133.141L638.025 133.649L638.031 133.699L638.038 133.748L642.18 133.141ZM642.069 127.213L646.254 127.336L646.359 123.772L642.857 123.101L642.069 127.213ZM641.816 127.164L642.604 123.053L639.091 122.379L637.878 125.744L641.816 127.164ZM639.458 132.619L643.088 134.703L643.099 134.685L643.109 134.667L639.458 132.619ZM620.043 166.443L616.413 164.359L613.491 169.45L619.255 170.555L620.043 166.443ZM670.522 208.549L653.998 205.381L652.421 213.604L668.946 216.771L670.522 208.549ZM657.348 208.866L653.611 184.191L645.333 185.445L649.071 210.12L657.348 208.866ZM650.26 180.707L614.552 173.862L612.976 182.085L648.684 188.929L650.26 180.707ZM610.124 175.905L597.844 197.509L605.123 201.646L617.403 180.042L610.124 175.905ZM602.271 195.466L585.81 192.311L584.234 200.534L600.695 203.689L602.271 195.466ZM588.596 198.602L639.998 114.329L632.85 109.97L581.448 194.242L588.596 198.602ZM635.636 116.261L652.603 119.513L654.179 111.29L637.212 108.038L635.636 116.261ZM649.263 116.095L665.606 213.354L673.862 211.966L657.52 114.708L649.263 116.095ZM651.979 171.164L646.322 132.535L638.038 133.748L643.696 172.378L651.979 171.164ZM646.335 132.633C646.223 131.713 646.175 130.004 646.254 127.336L637.885 127.089C637.805 129.817 637.831 132.06 638.025 133.649L646.335 132.633ZM642.857 123.101L642.604 123.053L641.028 131.275L641.281 131.324L642.857 123.101ZM637.878 125.744C637.071 127.982 636.376 129.557 635.807 130.572L643.109 134.667C644.002 133.074 644.879 131.012 645.754 128.584L637.878 125.744ZM635.827 130.536L616.413 164.359L623.674 168.527L643.088 134.703L635.827 130.536ZM619.255 170.555L647.049 175.882L648.626 167.66L620.831 162.332L619.255 170.555ZM752.939 228.609L752.151 232.72L759.617 234.151L756.834 227.077L752.939 228.609ZM735.338 225.235L731.403 226.664L732.215 228.899L734.55 229.346L735.338 225.235ZM725.499 198.144L721.553 199.54L721.559 199.556L721.565 199.573L725.499 198.144ZM722.73 191.706L718.983 193.573L719.011 193.629L719.04 193.683L722.73 191.706ZM719.683 187.052L716.5 189.77L716.521 189.796L716.543 189.821L719.683 187.052ZM704.857 181.191L705.645 177.08L701.533 176.291L700.745 180.403L704.857 181.191ZM697.794 218.039L697.006 222.15L701.117 222.938L701.905 218.827L697.794 218.039ZM682.789 215.162L678.677 214.374L677.889 218.486L682 219.274L682.789 215.162ZM700.191 124.373L700.979 120.261L696.868 119.473L696.08 123.584L700.191 124.373ZM750.044 140.295L746.898 143.057L746.912 143.072L746.925 143.088L750.044 140.295ZM754.78 149.145L750.732 150.212L750.741 150.246L750.75 150.279L754.78 149.145ZM751.853 168.867L748.251 166.735L748.241 166.751L748.232 166.767L751.853 168.867ZM746.43 175.244L743.789 171.997L743.782 172.002L746.43 175.244ZM739.079 179.349L737.659 175.411L737.645 175.416L737.63 175.422L739.079 179.349ZM730.13 181.178L729.857 177.001L726.628 177.212L726.019 180.39L730.13 181.178ZM730.081 181.431L725.97 180.643L725.51 183.044L727.375 184.625L730.081 181.431ZM733.792 185.359L730.414 187.831L730.437 187.863L730.461 187.894L733.792 185.359ZM739.071 194.116L735.245 195.814L735.272 195.875L735.301 195.935L739.071 194.116ZM741.685 199.999L745.58 198.467L745.566 198.43L745.551 198.394L741.685 199.999ZM712.854 139.468L713.642 135.357L709.531 134.569L708.743 138.68L712.854 139.468ZM707.199 168.972L703.088 168.183L702.3 172.295L706.411 173.083L707.199 168.972ZM726.336 171.524L725.678 167.39L725.664 167.392L725.65 167.394L726.336 171.524ZM753.727 224.498L736.126 221.124L734.55 229.346L752.151 232.72L753.727 224.498ZM739.272 223.806L729.434 196.715L721.565 199.573L731.403 226.664L739.272 223.806ZM729.446 196.749C728.515 194.115 727.51 191.765 726.419 189.729L719.04 193.683C719.883 195.256 720.725 197.198 721.553 199.54L729.446 196.749ZM726.476 189.838C725.431 187.742 724.224 185.872 722.823 184.284L716.543 189.821C717.371 190.76 718.195 191.992 718.983 193.573L726.476 189.838ZM722.867 184.334C721.458 182.684 719.793 181.342 717.884 180.334L713.974 187.737C714.927 188.24 715.764 188.909 716.5 189.77L722.867 184.334ZM717.884 180.334C716.024 179.351 713.952 178.672 711.723 178.245L710.147 186.467C711.716 186.768 712.974 187.208 713.974 187.737L717.884 180.334ZM711.723 178.245L705.645 177.08L704.069 185.302L710.147 186.467L711.723 178.245ZM700.745 180.403L693.682 217.251L701.905 218.827L708.968 181.979L700.745 180.403ZM698.582 213.927L683.577 211.051L682 219.274L697.006 222.15L698.582 213.927ZM686.9 215.95L704.303 125.161L696.08 123.584L678.677 214.374L686.9 215.95ZM699.403 128.484L729.287 134.212L730.863 125.989L700.979 120.261L699.403 128.484ZM729.287 134.212C733.225 134.967 736.68 136.114 739.684 137.62L743.435 130.135C739.653 128.239 735.451 126.869 730.863 125.989L729.287 134.212ZM739.684 137.62C742.646 139.104 745.028 140.926 746.898 143.057L753.19 137.534C750.535 134.509 747.26 132.052 743.435 130.135L739.684 137.62ZM746.925 143.088C748.744 145.119 750.01 147.474 750.732 150.212L758.828 148.079C757.776 144.088 755.885 140.543 753.162 137.503L746.925 143.088ZM750.75 150.279C751.479 152.868 751.584 155.909 750.897 159.494L759.12 161.07C760.002 156.467 759.955 152.083 758.81 148.012L750.75 150.279ZM750.897 159.494C750.362 162.283 749.466 164.681 748.251 166.735L755.456 170.999C757.217 168.022 758.425 164.697 759.12 161.07L750.897 159.494ZM748.232 166.767C747.042 168.819 745.564 170.553 743.789 171.997L749.071 178.492C751.651 176.394 753.788 173.877 755.475 170.966L748.232 166.767ZM743.782 172.002C742.049 173.417 740.02 174.56 737.659 175.411L740.499 183.287C743.685 182.138 746.557 180.544 749.077 178.487L743.782 172.002ZM737.63 175.422C735.317 176.275 732.735 176.813 729.857 177.001L730.403 185.355C733.995 185.121 737.379 184.439 740.529 183.276L737.63 175.422ZM726.019 180.39L725.97 180.643L734.193 182.219L734.241 181.966L726.019 180.39ZM727.375 184.625C728.624 185.683 729.626 186.755 730.414 187.831L737.17 182.887C735.947 181.215 734.475 179.668 732.788 178.238L727.375 184.625ZM730.461 187.894C731.399 189.126 732.268 190.383 733.07 191.665L740.168 187.225C739.228 185.723 738.213 184.255 737.123 182.824L730.461 187.894ZM733.07 191.665C733.822 192.868 734.549 194.247 735.245 195.814L742.897 192.418C742.065 190.542 741.157 188.807 740.168 187.225L733.07 191.665ZM735.301 195.935C736.073 197.536 736.912 199.423 737.819 201.605L745.551 198.394C744.601 196.107 743.697 194.072 742.841 192.297L735.301 195.935ZM737.789 201.532L749.043 230.141L756.834 227.077L745.58 198.467L737.789 201.532ZM708.743 138.68L703.088 168.183L711.31 169.76L716.965 140.256L708.743 138.68ZM706.411 173.083L718.947 175.486L720.523 167.263L707.987 164.86L706.411 173.083ZM718.947 175.486C721.696 176.013 724.398 176.089 727.022 175.653L725.65 167.394C724.115 167.649 722.417 167.626 720.523 167.263L718.947 175.486ZM726.993 175.658C729.638 175.237 732.093 174.342 734.302 172.939L729.815 165.871C728.636 166.619 727.276 167.136 725.678 167.39L726.993 175.658ZM734.302 172.939C736.53 171.524 738.381 169.658 739.86 167.407L732.862 162.812C731.992 164.136 730.975 165.134 729.815 165.871L734.302 172.939ZM739.86 167.407C741.375 165.099 742.375 162.474 742.925 159.607L734.702 158.031C734.329 159.976 733.694 161.544 732.862 162.812L739.86 167.407ZM742.925 159.607C743.938 154.322 743.11 149.389 739.977 145.294L733.327 150.38C734.743 152.232 735.356 154.621 734.702 158.031L742.925 159.607ZM739.977 145.294C736.868 141.227 732.06 138.887 726.305 137.784L724.729 146.006C729.272 146.877 731.888 148.498 733.327 150.38L739.977 145.294ZM726.305 137.784L713.642 135.357L712.066 143.579L724.729 146.006L726.305 137.784ZM826.488 238.769L827.681 242.781L830.12 242.056L830.599 239.557L826.488 238.769ZM785.166 153.001L782.817 149.536L782.808 149.542L785.166 153.001ZM842.738 153.994L846.849 154.782L847.368 152.076L845.088 150.529L842.738 153.994ZM839.874 168.935L837.099 172.069L842.602 176.942L843.985 169.723L839.874 168.935ZM794.917 164.453L792.521 161.021L792.515 161.025L792.509 161.029L794.917 164.453ZM784.93 213.474L781.416 215.748L781.42 215.755L781.424 215.761L784.93 213.474ZM829.158 224.84L833.269 225.628L834.715 218.089L827.594 220.957L829.158 224.84ZM825.295 234.756C818.593 236.749 810.459 236.947 800.742 235.085L799.166 243.308C809.794 245.345 819.348 245.259 827.681 242.781L825.295 234.756ZM800.742 235.085C788.517 232.742 779.836 227.119 774.207 218.388L767.17 222.924C774.224 233.865 785.052 240.602 799.166 243.308L800.742 235.085ZM774.207 218.388C768.549 209.613 766.747 199.077 769.171 186.43L760.949 184.854C758.195 199.219 760.145 212.027 767.17 222.924L774.207 218.388ZM769.171 186.43C771.78 172.82 777.957 162.983 787.524 156.46L782.808 149.542C771.134 157.501 763.906 169.424 760.949 184.854L769.171 186.43ZM787.516 156.465C797.185 149.907 808.187 147.76 820.823 150.183L822.399 141.96C807.769 139.156 794.474 141.629 782.817 149.536L787.516 156.465ZM820.823 150.183C829.249 151.798 835.701 154.278 840.388 157.458L845.088 150.529C839.165 146.511 831.532 143.711 822.399 141.96L820.823 150.183ZM838.627 153.206L835.763 168.147L843.985 169.723L846.849 154.782L838.627 153.206ZM842.649 165.801C836.64 160.481 829.541 157.047 821.446 155.496L819.87 163.718C826.547 164.998 832.259 167.784 837.099 172.069L842.649 165.801ZM821.446 155.496C810.648 153.426 800.889 155.177 792.521 161.021L797.314 167.885C803.598 163.497 810.998 162.018 819.87 163.718L821.446 155.496ZM792.509 161.029C784.164 166.9 779.034 175.769 776.859 187.116L785.082 188.692C786.936 179.019 791.104 172.254 797.326 167.877L792.509 161.029ZM776.859 187.116C774.785 197.938 776.152 207.613 781.416 215.748L788.445 211.2C784.594 205.249 783.321 197.876 785.082 188.692L776.859 187.116ZM781.424 215.761C786.694 223.843 794.677 228.794 804.919 230.758L806.495 222.535C798.165 220.938 792.297 217.108 788.437 211.188L781.424 215.761ZM804.919 230.758C814.159 232.529 822.807 231.912 830.722 228.723L827.594 220.957C821.378 223.461 814.391 224.049 806.495 222.535L804.919 230.758ZM825.047 224.052L822.377 237.981L830.599 239.557L833.269 225.628L825.047 224.052ZM916.435 259.948L915.647 264.06L919.759 264.848L920.547 260.736L916.435 259.948ZM901.304 257.048L897.192 256.26L896.404 260.371L900.516 261.159L901.304 257.048ZM908.852 217.668L912.964 218.456L913.752 214.344L909.64 213.556L908.852 217.668ZM866.116 209.476L866.904 205.365L862.793 204.577L862.005 208.688L866.116 209.476ZM858.568 248.856L857.78 252.968L861.891 253.756L862.679 249.644L858.568 248.856ZM843.5 245.968L839.388 245.18L838.6 249.291L842.712 250.079L843.5 245.968ZM860.902 155.178L861.69 151.067L857.579 150.279L856.791 154.39L860.902 155.178ZM875.971 158.066L880.082 158.854L880.87 154.743L876.759 153.955L875.971 158.066ZM868.653 196.244L864.542 195.456L863.753 199.567L867.865 200.355L868.653 196.244ZM911.389 204.435L910.601 208.547L914.712 209.335L915.5 205.223L911.389 204.435ZM918.707 166.258L919.495 162.147L915.383 161.359L914.595 165.47L918.707 166.258ZM933.838 169.159L937.949 169.947L938.738 165.835L934.626 165.047L933.838 169.159ZM917.223 255.837L902.092 252.937L900.516 261.159L915.647 264.06L917.223 255.837ZM905.415 257.836L912.964 218.456L904.741 216.88L897.192 256.26L905.415 257.836ZM909.64 213.556L866.904 205.365L865.328 213.587L908.064 221.779L909.64 213.556ZM862.005 208.688L854.457 248.068L862.679 249.644L870.228 210.264L862.005 208.688ZM859.356 244.745L844.288 241.857L842.712 250.079L857.78 252.968L859.356 244.745ZM847.611 246.756L865.014 155.966L856.791 154.39L839.388 245.18L847.611 246.756ZM860.114 159.289L875.183 162.178L876.759 153.955L861.69 151.067L860.114 159.289ZM871.859 157.278L864.542 195.456L872.764 197.032L880.082 158.854L871.859 157.278ZM867.865 200.355L910.601 208.547L912.177 200.324L869.441 192.132L867.865 200.355ZM915.5 205.223L922.818 167.046L914.595 165.47L907.277 203.647L915.5 205.223ZM917.919 170.369L933.05 173.27L934.626 165.047L919.495 162.147L917.919 170.369ZM929.727 168.37L912.324 259.16L920.547 260.736L937.949 169.947L929.727 168.37Z" fill="#7968FC"/>
<g filter="url(#filter0_d_933_3269)">
<rect x="35.9429" y="94.9919" width="167.199" height="134.786" rx="12.8367" fill="#FE67EF"/>
<path d="M72.5337 171.755H69.1932V156.924H72.5337V171.755ZM85.908 171.755H82.6503V165.87C82.6503 164.229 82.0642 163.409 80.8921 163.409C80.3267 163.409 79.8613 163.626 79.4959 164.06C79.1305 164.495 78.9478 165.046 78.9478 165.715V171.755H75.6797V161.164H78.9478V162.84H78.9892C79.7683 161.551 80.9024 160.906 82.3917 160.906C84.7359 160.906 85.908 162.361 85.908 165.27V171.755ZM94.9904 171.631C94.5078 171.886 93.7804 172.013 92.8082 172.013C90.5054 172.013 89.3539 170.817 89.3539 168.425V163.574H87.6371V161.164H89.3539V158.879L92.6117 157.948V161.164H94.9904V163.574H92.6117V167.856C92.6117 168.959 93.0495 169.511 93.9251 169.511C94.2699 169.511 94.625 169.411 94.9904 169.211V171.631ZM106.358 167.39H99.4498C99.5601 168.928 100.529 169.697 102.356 169.697C103.521 169.697 104.545 169.421 105.428 168.869V171.227C104.448 171.751 103.176 172.013 101.611 172.013C99.9014 172.013 98.5742 171.541 97.6296 170.596C96.685 169.645 96.2127 168.321 96.2127 166.625C96.2127 164.867 96.7229 163.474 97.7434 162.447C98.7638 161.42 100.019 160.906 101.508 160.906C103.052 160.906 104.245 161.364 105.086 162.281C105.934 163.198 106.358 164.443 106.358 166.015V167.39ZM103.328 165.384C103.328 163.867 102.714 163.109 101.487 163.109C100.963 163.109 100.508 163.326 100.122 163.76C99.7428 164.195 99.5119 164.736 99.4291 165.384H103.328ZM115.296 164.112C114.903 163.898 114.444 163.791 113.92 163.791C113.21 163.791 112.655 164.053 112.255 164.577C111.855 165.094 111.655 165.801 111.655 166.697V171.755H108.387V161.164H111.655V163.129H111.697C112.214 161.695 113.145 160.978 114.489 160.978C114.834 160.978 115.103 161.02 115.296 161.102V164.112ZM127.843 161.164L123.903 171.755H120.179L116.425 161.164H119.921L121.762 167.69C121.969 168.428 122.089 169.055 122.124 169.573H122.165C122.213 169.083 122.341 168.476 122.548 167.752L124.43 161.164H127.843ZM130.979 159.489C130.427 159.489 129.975 159.327 129.624 159.003C129.272 158.672 129.096 158.269 129.096 157.793C129.096 157.303 129.272 156.903 129.624 156.593C129.975 156.283 130.427 156.128 130.979 156.128C131.537 156.128 131.989 156.283 132.333 156.593C132.685 156.903 132.861 157.303 132.861 157.793C132.861 158.289 132.685 158.696 132.333 159.013C131.989 159.33 131.537 159.489 130.979 159.489ZM132.592 171.755H129.324V161.164H132.592V171.755ZM144.942 167.39H138.034C138.144 168.928 139.113 169.697 140.94 169.697C142.105 169.697 143.129 169.421 144.012 168.869V171.227C143.033 171.751 141.76 172.013 140.195 172.013C138.485 172.013 137.158 171.541 136.214 170.596C135.269 169.645 134.797 168.321 134.797 166.625C134.797 164.867 135.307 163.474 136.327 162.447C137.348 161.42 138.603 160.906 140.092 160.906C141.636 160.906 142.829 161.364 143.67 162.281C144.518 163.198 144.942 164.443 144.942 166.015V167.39ZM141.912 165.384C141.912 163.867 141.298 163.109 140.071 163.109C139.547 163.109 139.092 163.326 138.706 163.76C138.327 164.195 138.096 164.736 138.013 165.384H141.912ZM162.309 161.164L159.258 171.755H155.824L154.263 165.549C154.159 165.136 154.101 164.684 154.087 164.195H154.025C153.976 164.732 153.907 165.17 153.818 165.508L152.142 171.755H148.75L145.761 161.164H149.092L150.55 168.073C150.619 168.397 150.67 168.79 150.705 169.252H150.767C150.801 168.769 150.863 168.363 150.953 168.032L152.773 161.164H155.886L157.52 168.073C157.562 168.245 157.61 168.645 157.665 169.273H157.738C157.772 168.873 157.827 168.473 157.903 168.073L159.278 161.164H162.309ZM163.262 171.476V168.828C163.8 169.152 164.334 169.393 164.865 169.552C165.403 169.71 165.91 169.79 166.386 169.79C166.965 169.79 167.42 169.71 167.751 169.552C168.089 169.393 168.257 169.152 168.257 168.828C168.257 168.621 168.182 168.449 168.03 168.311C167.878 168.173 167.682 168.052 167.44 167.949C167.206 167.845 166.947 167.752 166.665 167.67C166.382 167.587 166.11 167.494 165.848 167.39C165.427 167.232 165.055 167.063 164.731 166.884C164.414 166.697 164.145 166.484 163.924 166.242C163.71 166.001 163.545 165.722 163.428 165.405C163.317 165.088 163.262 164.712 163.262 164.277C163.262 163.684 163.39 163.174 163.645 162.747C163.907 162.319 164.252 161.971 164.679 161.702C165.113 161.426 165.606 161.226 166.158 161.102C166.716 160.971 167.296 160.906 167.895 160.906C168.364 160.906 168.84 160.944 169.323 161.02C169.805 161.089 170.281 161.192 170.75 161.33V163.853C170.336 163.612 169.891 163.433 169.416 163.316C168.947 163.191 168.485 163.129 168.03 163.129C167.816 163.129 167.613 163.15 167.42 163.191C167.234 163.226 167.068 163.281 166.923 163.357C166.779 163.426 166.665 163.519 166.582 163.636C166.499 163.747 166.458 163.874 166.458 164.019C166.458 164.212 166.52 164.377 166.644 164.515C166.768 164.653 166.93 164.774 167.13 164.877C167.33 164.974 167.551 165.063 167.792 165.146C168.04 165.222 168.285 165.301 168.526 165.384C168.961 165.536 169.354 165.701 169.705 165.88C170.057 166.06 170.357 166.27 170.605 166.511C170.86 166.753 171.053 167.035 171.184 167.359C171.322 167.683 171.391 168.07 171.391 168.518C171.391 169.145 171.253 169.683 170.977 170.131C170.709 170.572 170.347 170.934 169.891 171.217C169.443 171.493 168.923 171.693 168.33 171.817C167.744 171.948 167.134 172.013 166.499 172.013C165.334 172.013 164.255 171.834 163.262 171.476Z" fill="white"/>
<rect x="235.554" y="94.9919" width="167.199" height="134.786" rx="12.8367" fill="#FEC267"/>
<path d="M297.551 171.755V156.924H302.805C308.073 156.924 310.706 159.334 310.706 164.153C310.706 166.463 309.986 168.307 308.545 169.686C307.111 171.065 305.198 171.755 302.805 171.755H297.551ZM300.892 159.644V169.045H302.547C303.994 169.045 305.129 168.611 305.949 167.742C306.776 166.873 307.19 165.691 307.19 164.195C307.19 162.781 306.78 161.671 305.959 160.865C305.146 160.051 304.001 159.644 302.526 159.644H300.892ZM321.744 171.755H318.651V170.234H318.61C317.9 171.42 316.848 172.013 315.456 172.013C314.428 172.013 313.618 171.724 313.025 171.145C312.439 170.559 312.146 169.779 312.146 168.807C312.146 166.753 313.363 165.567 315.797 165.25L318.672 164.867C318.672 163.709 318.044 163.129 316.79 163.129C315.528 163.129 314.328 163.505 313.191 164.257V161.795C313.646 161.561 314.266 161.354 315.052 161.175C315.845 160.996 316.566 160.906 317.214 160.906C320.234 160.906 321.744 162.412 321.744 165.425V171.755ZM318.672 167.452V166.739L316.748 166.987C315.686 167.125 315.156 167.604 315.156 168.425C315.156 168.797 315.283 169.104 315.538 169.345C315.8 169.579 316.152 169.697 316.593 169.697C317.207 169.697 317.707 169.486 318.093 169.066C318.479 168.638 318.672 168.101 318.672 167.452ZM330.816 171.631C330.333 171.886 329.605 172.013 328.633 172.013C326.33 172.013 325.179 170.817 325.179 168.425V163.574H323.462V161.164H325.179V158.879L328.437 157.948V161.164H330.816V163.574H328.437V167.856C328.437 168.959 328.875 169.511 329.75 169.511C330.095 169.511 330.45 169.411 330.816 169.211V171.631ZM341.563 171.755H338.471V170.234H338.429C337.719 171.42 336.668 172.013 335.275 172.013C334.248 172.013 333.438 171.724 332.845 171.145C332.259 170.559 331.965 169.779 331.965 168.807C331.965 166.753 333.182 165.567 335.616 165.25L338.491 164.867C338.491 163.709 337.864 163.129 336.609 163.129C335.347 163.129 334.148 163.505 333.01 164.257V161.795C333.465 161.561 334.086 161.354 334.872 161.175C335.665 160.996 336.385 160.906 337.033 160.906C340.053 160.906 341.563 162.412 341.563 165.425V171.755ZM338.491 167.452V166.739L336.568 166.987C335.506 167.125 334.975 167.604 334.975 168.425C334.975 168.797 335.103 169.104 335.358 169.345C335.62 169.579 335.971 169.697 336.413 169.697C337.026 169.697 337.526 169.486 337.912 169.066C338.298 168.638 338.491 168.101 338.491 167.452Z" fill="white"/>
<rect x="435.166" y="94.9919" width="167.199" height="134.786" rx="12.8367" fill="#B2FE67"/>
<path d="M492.442 171.755H488.802L487.747 168.456H482.473L481.428 171.755H477.808L483.207 156.924H487.168L492.442 171.755ZM486.982 165.891L485.389 160.906C485.272 160.534 485.189 160.089 485.141 159.572H485.058C485.024 160.006 484.938 160.437 484.8 160.865L483.186 165.891H486.982ZM504.286 171.755H501.028V165.87C501.028 164.229 500.442 163.409 499.27 163.409C498.705 163.409 498.239 163.626 497.874 164.06C497.509 164.495 497.326 165.046 497.326 165.715V171.755H494.058V161.164H497.326V162.84H497.367C498.146 161.551 499.281 160.906 500.77 160.906C503.114 160.906 504.286 162.361 504.286 165.27V171.755ZM515.778 171.755H512.686V170.234H512.645C511.934 171.42 510.883 172.013 509.49 172.013C508.463 172.013 507.653 171.724 507.06 171.145C506.474 170.559 506.181 169.779 506.181 168.807C506.181 166.753 507.398 165.567 509.832 165.25L512.707 164.867C512.707 163.709 512.079 163.129 510.824 163.129C509.563 163.129 508.363 163.505 507.225 164.257V161.795C507.68 161.561 508.301 161.354 509.087 161.175C509.88 160.996 510.6 160.906 511.248 160.906C514.268 160.906 515.778 162.412 515.778 165.425V171.755ZM512.707 167.452V166.739L510.783 166.987C509.721 167.125 509.19 167.604 509.19 168.425C509.19 168.797 509.318 169.104 509.573 169.345C509.835 169.579 510.187 169.697 510.628 169.697C511.242 169.697 511.741 169.486 512.127 169.066C512.514 168.638 512.707 168.101 512.707 167.452ZM521.717 171.755H518.448V156.076H521.717V171.755ZM534.636 161.164L530.334 172.603C529.299 175.354 527.741 176.729 525.659 176.729C524.866 176.729 524.214 176.64 523.704 176.46V173.854C524.139 174.109 524.611 174.237 525.121 174.237C525.962 174.237 526.548 173.84 526.879 173.048L527.438 171.734L523.135 161.164H526.755L528.731 167.608C528.855 168.007 528.951 168.48 529.02 169.024H529.061C529.124 168.625 529.237 168.159 529.403 167.628L531.399 161.164H534.636ZM535.341 171.476V168.828C535.879 169.152 536.413 169.393 536.944 169.552C537.482 169.71 537.989 169.79 538.464 169.79C539.044 169.79 539.499 169.71 539.83 169.552C540.167 169.393 540.336 169.152 540.336 168.828C540.336 168.621 540.261 168.449 540.109 168.311C539.957 168.173 539.761 168.052 539.519 167.949C539.285 167.845 539.026 167.752 538.744 167.67C538.461 167.587 538.189 167.494 537.927 167.39C537.506 167.232 537.134 167.063 536.81 166.884C536.493 166.697 536.224 166.484 536.003 166.242C535.789 166.001 535.624 165.722 535.507 165.405C535.396 165.088 535.341 164.712 535.341 164.277C535.341 163.684 535.469 163.174 535.724 162.747C535.986 162.319 536.331 161.971 536.758 161.702C537.192 161.426 537.685 161.226 538.237 161.102C538.795 160.971 539.375 160.906 539.974 160.906C540.443 160.906 540.919 160.944 541.402 161.02C541.884 161.089 542.36 161.192 542.829 161.33V163.853C542.415 163.612 541.97 163.433 541.495 163.316C541.026 163.191 540.564 163.129 540.109 163.129C539.895 163.129 539.692 163.15 539.499 163.191C539.312 163.226 539.147 163.281 539.002 163.357C538.857 163.426 538.744 163.519 538.661 163.636C538.578 163.747 538.537 163.874 538.537 164.019C538.537 164.212 538.599 164.377 538.723 164.515C538.847 164.653 539.009 164.774 539.209 164.877C539.409 164.974 539.63 165.063 539.871 165.146C540.119 165.222 540.364 165.301 540.605 165.384C541.04 165.536 541.433 165.701 541.784 165.88C542.136 166.06 542.436 166.27 542.684 166.511C542.939 166.753 543.132 167.035 543.263 167.359C543.401 167.683 543.47 168.07 543.47 168.518C543.47 169.145 543.332 169.683 543.056 170.131C542.787 170.572 542.425 170.934 541.97 171.217C541.522 171.493 541.002 171.693 540.409 171.817C539.823 171.948 539.213 172.013 538.578 172.013C537.413 172.013 536.334 171.834 535.341 171.476ZM547.102 159.489C546.551 159.489 546.099 159.327 545.747 159.003C545.396 158.672 545.22 158.269 545.22 157.793C545.22 157.303 545.396 156.903 545.747 156.593C546.099 156.283 546.551 156.128 547.102 156.128C547.661 156.128 548.112 156.283 548.457 156.593C548.809 156.903 548.984 157.303 548.984 157.793C548.984 158.289 548.809 158.696 548.457 159.013C548.112 159.33 547.661 159.489 547.102 159.489ZM548.715 171.755H545.447V161.164H548.715V171.755ZM550.858 171.476V168.828C551.396 169.152 551.93 169.393 552.461 169.552C552.999 169.71 553.506 169.79 553.982 169.79C554.561 169.79 555.016 169.71 555.347 169.552C555.685 169.393 555.853 169.152 555.853 168.828C555.853 168.621 555.778 168.449 555.626 168.311C555.474 168.173 555.278 168.052 555.036 167.949C554.802 167.845 554.543 167.752 554.261 167.67C553.978 167.587 553.706 167.494 553.444 167.39C553.023 167.232 552.651 167.063 552.327 166.884C552.01 166.697 551.741 166.484 551.52 166.242C551.306 166.001 551.141 165.722 551.024 165.405C550.913 165.088 550.858 164.712 550.858 164.277C550.858 163.684 550.986 163.174 551.241 162.747C551.503 162.319 551.848 161.971 552.275 161.702C552.709 161.426 553.202 161.226 553.754 161.102C554.313 160.971 554.892 160.906 555.492 160.906C555.96 160.906 556.436 160.944 556.919 161.02C557.401 161.089 557.877 161.192 558.346 161.33V163.853C557.932 163.612 557.488 163.433 557.012 163.316C556.543 163.191 556.081 163.129 555.626 163.129C555.412 163.129 555.209 163.15 555.016 163.191C554.83 163.226 554.664 163.281 554.519 163.357C554.375 163.426 554.261 163.519 554.178 163.636C554.095 163.747 554.054 163.874 554.054 164.019C554.054 164.212 554.116 164.377 554.24 164.515C554.364 164.653 554.526 164.774 554.726 164.877C554.926 164.974 555.147 165.063 555.388 165.146C555.636 165.222 555.881 165.301 556.122 165.384C556.557 165.536 556.95 165.701 557.301 165.88C557.653 166.06 557.953 166.27 558.201 166.511C558.456 166.753 558.649 167.035 558.78 167.359C558.918 167.683 558.987 168.07 558.987 168.518C558.987 169.145 558.849 169.683 558.573 170.131C558.305 170.572 557.943 170.934 557.488 171.217C557.039 171.493 556.519 171.693 555.926 171.817C555.34 171.948 554.73 172.013 554.095 172.013C552.93 172.013 551.851 171.834 550.858 171.476Z" fill="white"/>
<rect x="634.135" y="94.9919" width="167.199" height="134.786" rx="12.8367" fill="#67FEFE"/>
<path d="M678.205 166.646V171.755H674.865V156.924H680.098C683.835 156.924 685.703 158.5 685.703 161.651C685.703 163.14 685.165 164.346 684.09 165.27C683.021 166.187 681.591 166.646 679.798 166.646H678.205ZM678.205 159.489V164.112H679.519C681.297 164.112 682.187 163.333 682.187 161.775C682.187 160.251 681.297 159.489 679.519 159.489H678.205ZM696.513 167.39H689.604C689.714 168.928 690.683 169.697 692.51 169.697C693.676 169.697 694.699 169.421 695.582 168.869V171.227C694.603 171.751 693.331 172.013 691.766 172.013C690.056 172.013 688.729 171.541 687.784 170.596C686.839 169.645 686.367 168.321 686.367 166.625C686.367 164.867 686.877 163.474 687.898 162.447C688.918 161.42 690.173 160.906 691.662 160.906C693.207 160.906 694.399 161.364 695.241 162.281C696.089 163.198 696.513 164.443 696.513 166.015V167.39ZM693.482 165.384C693.482 163.867 692.869 163.109 691.642 163.109C691.118 163.109 690.663 163.326 690.276 163.76C689.897 164.195 689.666 164.736 689.583 165.384H693.482ZM705.45 164.112C705.057 163.898 704.599 163.791 704.075 163.791C703.365 163.791 702.81 164.053 702.41 164.577C702.01 165.094 701.81 165.801 701.81 166.697V171.755H698.542V161.164H701.81V163.129H701.851C702.368 161.695 703.299 160.978 704.644 160.978C704.988 160.978 705.257 161.02 705.45 161.102V164.112ZM706.497 171.476V168.828C707.035 169.152 707.569 169.393 708.1 169.552C708.638 169.71 709.144 169.79 709.62 169.79C710.199 169.79 710.654 169.71 710.985 169.552C711.323 169.393 711.492 169.152 711.492 168.828C711.492 168.621 711.416 168.449 711.265 168.311C711.113 168.173 710.916 168.052 710.675 167.949C710.441 167.845 710.182 167.752 709.899 167.67C709.617 167.587 709.344 167.494 709.082 167.39C708.662 167.232 708.289 167.063 707.965 166.884C707.648 166.697 707.379 166.484 707.159 166.242C706.945 166.001 706.78 165.722 706.662 165.405C706.552 165.088 706.497 164.712 706.497 164.277C706.497 163.684 706.624 163.174 706.879 162.747C707.141 162.319 707.486 161.971 707.914 161.702C708.348 161.426 708.841 161.226 709.393 161.102C709.951 160.971 710.53 160.906 711.13 160.906C711.599 160.906 712.075 160.944 712.557 161.02C713.04 161.089 713.516 161.192 713.985 161.33V163.853C713.571 163.612 713.126 163.433 712.65 163.316C712.182 163.191 711.72 163.129 711.265 163.129C711.051 163.129 710.847 163.15 710.654 163.191C710.468 163.226 710.303 163.281 710.158 163.357C710.013 163.426 709.899 163.519 709.817 163.636C709.734 163.747 709.693 163.874 709.693 164.019C709.693 164.212 709.755 164.377 709.879 164.515C710.003 164.653 710.165 164.774 710.365 164.877C710.565 164.974 710.785 165.063 711.027 165.146C711.275 165.222 711.52 165.301 711.761 165.384C712.195 165.536 712.588 165.701 712.94 165.88C713.292 166.06 713.592 166.27 713.84 166.511C714.095 166.753 714.288 167.035 714.419 167.359C714.557 167.683 714.626 168.07 714.626 168.518C714.626 169.145 714.488 169.683 714.212 170.131C713.943 170.572 713.581 170.934 713.126 171.217C712.678 171.493 712.157 171.693 711.564 171.817C710.978 171.948 710.368 172.013 709.734 172.013C708.569 172.013 707.49 171.834 706.497 171.476ZM721.65 172.013C719.885 172.013 718.496 171.52 717.482 170.534C716.475 169.542 715.972 168.197 715.972 166.501C715.972 164.75 716.496 163.381 717.544 162.395C718.592 161.402 720.009 160.906 721.795 160.906C723.553 160.906 724.932 161.402 725.932 162.395C726.931 163.381 727.431 164.688 727.431 166.315C727.431 168.073 726.914 169.462 725.88 170.483C724.853 171.503 723.443 172.013 721.65 172.013ZM721.733 163.409C720.961 163.409 720.361 163.674 719.933 164.205C719.506 164.736 719.292 165.487 719.292 166.46C719.292 168.494 720.112 169.511 721.753 169.511C723.319 169.511 724.101 168.466 724.101 166.377C724.101 164.398 723.312 163.409 721.733 163.409ZM739.864 171.755H736.607V165.87C736.607 164.229 736.021 163.409 734.849 163.409C734.283 163.409 733.818 163.626 733.452 164.06C733.087 164.495 732.904 165.046 732.904 165.715V171.755H729.636V161.164H732.904V162.84H732.946C733.725 161.551 734.859 160.906 736.348 160.906C738.692 160.906 739.864 162.361 739.864 165.27V171.755ZM751.357 171.755H748.264V170.234H748.223C747.513 171.42 746.461 172.013 745.068 172.013C744.041 172.013 743.231 171.724 742.638 171.145C742.052 170.559 741.759 169.779 741.759 168.807C741.759 166.753 742.976 165.567 745.41 165.25L748.285 164.867C748.285 163.709 747.657 163.129 746.403 163.129C745.141 163.129 743.941 163.505 742.804 164.257V161.795C743.259 161.561 743.879 161.354 744.665 161.175C745.458 160.996 746.179 160.906 746.827 160.906C749.847 160.906 751.357 162.412 751.357 165.425V171.755ZM748.285 167.452V166.739L746.361 166.987C745.299 167.125 744.769 167.604 744.769 168.425C744.769 168.797 744.896 169.104 745.151 169.345C745.413 169.579 745.765 169.697 746.206 169.697C746.82 169.697 747.32 169.486 747.706 169.066C748.092 168.638 748.285 168.101 748.285 167.452ZM753.334 171.476V168.828C753.872 169.152 754.406 169.393 754.937 169.552C755.475 169.71 755.981 169.79 756.457 169.79C757.036 169.79 757.491 169.71 757.822 169.552C758.16 169.393 758.329 169.152 758.329 168.828C758.329 168.621 758.253 168.449 758.102 168.311C757.95 168.173 757.753 168.052 757.512 167.949C757.278 167.845 757.019 167.752 756.736 167.67C756.454 167.587 756.181 167.494 755.919 167.39C755.499 167.232 755.126 167.063 754.802 166.884C754.485 166.697 754.216 166.484 753.996 166.242C753.782 166.001 753.617 165.722 753.499 165.405C753.389 165.088 753.334 164.712 753.334 164.277C753.334 163.684 753.461 163.174 753.716 162.747C753.978 162.319 754.323 161.971 754.751 161.702C755.185 161.426 755.678 161.226 756.23 161.102C756.788 160.971 757.367 160.906 757.967 160.906C758.436 160.906 758.912 160.944 759.394 161.02C759.877 161.089 760.353 161.192 760.822 161.33V163.853C760.408 163.612 759.963 163.433 759.487 163.316C759.019 163.191 758.557 163.129 758.102 163.129C757.888 163.129 757.684 163.15 757.491 163.191C757.305 163.226 757.14 163.281 756.995 163.357C756.85 163.426 756.736 163.519 756.654 163.636C756.571 163.747 756.53 163.874 756.53 164.019C756.53 164.212 756.592 164.377 756.716 164.515C756.84 164.653 757.002 164.774 757.202 164.877C757.402 164.974 757.622 165.063 757.864 165.146C758.112 165.222 758.357 165.301 758.598 165.384C759.032 165.536 759.425 165.701 759.777 165.88C760.129 166.06 760.429 166.27 760.677 166.511C760.932 166.753 761.125 167.035 761.256 167.359C761.394 167.683 761.463 168.07 761.463 168.518C761.463 169.145 761.325 169.683 761.049 170.131C760.78 170.572 760.418 170.934 759.963 171.217C759.515 171.493 758.994 171.693 758.401 171.817C757.815 171.948 757.205 172.013 756.571 172.013C755.406 172.013 754.327 171.834 753.334 171.476Z" fill="white"/>
<rect x="833.105" y="94.9919" width="167.199" height="134.786" rx="12.8367" fill="#FEEF67"/>
<path d="M864.967 165.332C864.967 169.786 862.892 172.013 858.741 172.013C854.715 172.013 852.701 169.838 852.701 165.487V156.924H856.052V165.529C856.052 167.928 856.99 169.128 858.865 169.128C860.706 169.128 861.627 167.97 861.627 165.653V156.924H864.967V165.332ZM867.275 171.476V168.828C867.813 169.152 868.348 169.393 868.878 169.552C869.416 169.71 869.923 169.79 870.399 169.79C870.978 169.79 871.433 169.71 871.764 169.552C872.102 169.393 872.271 169.152 872.271 168.828C872.271 168.621 872.195 168.449 872.043 168.311C871.891 168.173 871.695 168.052 871.454 167.949C871.219 167.845 870.961 167.752 870.678 167.67C870.395 167.587 870.123 167.494 869.861 167.39C869.44 167.232 869.068 167.063 868.744 166.884C868.427 166.697 868.158 166.484 867.937 166.242C867.724 166.001 867.558 165.722 867.441 165.405C867.331 165.088 867.275 164.712 867.275 164.277C867.275 163.684 867.403 163.174 867.658 162.747C867.92 162.319 868.265 161.971 868.692 161.702C869.127 161.426 869.62 161.226 870.171 161.102C870.73 160.971 871.309 160.906 871.909 160.906C872.378 160.906 872.853 160.944 873.336 161.02C873.819 161.089 874.294 161.192 874.763 161.33V163.853C874.349 163.612 873.905 163.433 873.429 163.316C872.96 163.191 872.498 163.129 872.043 163.129C871.829 163.129 871.626 163.15 871.433 163.191C871.247 163.226 871.081 163.281 870.937 163.357C870.792 163.426 870.678 163.519 870.595 163.636C870.512 163.747 870.471 163.874 870.471 164.019C870.471 164.212 870.533 164.377 870.657 164.515C870.781 164.653 870.943 164.774 871.143 164.877C871.343 164.974 871.564 165.063 871.805 165.146C872.053 165.222 872.298 165.301 872.54 165.384C872.974 165.536 873.367 165.701 873.719 165.88C874.07 166.06 874.37 166.27 874.618 166.511C874.873 166.753 875.066 167.035 875.197 167.359C875.335 167.683 875.404 168.07 875.404 168.518C875.404 169.145 875.266 169.683 874.991 170.131C874.722 170.572 874.36 170.934 873.905 171.217C873.457 171.493 872.936 171.693 872.343 171.817C871.757 171.948 871.147 172.013 870.512 172.013C869.347 172.013 868.268 171.834 867.275 171.476ZM886.896 167.39H879.988C880.098 168.928 881.067 169.697 882.894 169.697C884.059 169.697 885.083 169.421 885.966 168.869V171.227C884.987 171.751 883.714 172.013 882.149 172.013C880.439 172.013 879.112 171.541 878.168 170.596C877.223 169.645 876.751 168.321 876.751 166.625C876.751 164.867 877.261 163.474 878.281 162.447C879.302 161.42 880.557 160.906 882.046 160.906C883.59 160.906 884.783 161.364 885.624 162.281C886.472 163.198 886.896 164.443 886.896 166.015V167.39ZM883.866 165.384C883.866 163.867 883.252 163.109 882.025 163.109C881.501 163.109 881.046 163.326 880.66 163.76C880.281 164.195 880.05 164.736 879.967 165.384H883.866ZM895.834 164.112C895.441 163.898 894.982 163.791 894.458 163.791C893.748 163.791 893.193 164.053 892.793 164.577C892.393 165.094 892.194 165.801 892.194 166.697V171.755H888.925V161.164H892.194V163.129H892.235C892.752 161.695 893.683 160.978 895.027 160.978C895.372 160.978 895.641 161.02 895.834 161.102V164.112ZM909.893 165.87C909.893 167.856 909.431 169.376 908.507 170.431C907.59 171.486 906.259 172.013 904.515 172.013C903.736 172.013 903.015 171.879 902.353 171.61V168.476C902.926 168.911 903.567 169.128 904.277 169.128C905.801 169.128 906.563 167.997 906.563 165.736V156.924H909.893V165.87ZM917.951 172.013C916.186 172.013 914.797 171.52 913.783 170.534C912.777 169.542 912.273 168.197 912.273 166.501C912.273 164.75 912.797 163.381 913.845 162.395C914.893 161.402 916.31 160.906 918.096 160.906C919.854 160.906 921.233 161.402 922.233 162.395C923.233 163.381 923.733 164.688 923.733 166.315C923.733 168.073 923.215 169.462 922.181 170.483C921.154 171.503 919.744 172.013 917.951 172.013ZM918.034 163.409C917.262 163.409 916.662 163.674 916.235 164.205C915.807 164.736 915.593 165.487 915.593 166.46C915.593 168.494 916.414 169.511 918.055 169.511C919.62 169.511 920.402 168.466 920.402 166.377C920.402 164.398 919.613 163.409 918.034 163.409ZM936 171.755H932.743V170.141H932.691C931.884 171.389 930.805 172.013 929.454 172.013C926.999 172.013 925.772 170.527 925.772 167.556V161.164H929.03V167.266C929.03 168.762 929.623 169.511 930.809 169.511C931.395 169.511 931.863 169.307 932.215 168.9C932.567 168.487 932.743 167.928 932.743 167.225V161.164H936V171.755ZM945.755 164.112C945.362 163.898 944.903 163.791 944.379 163.791C943.669 163.791 943.114 164.053 942.714 164.577C942.314 165.094 942.114 165.801 942.114 166.697V171.755H938.846V161.164H942.114V163.129H942.156C942.673 161.695 943.604 160.978 944.948 160.978C945.293 160.978 945.562 161.02 945.755 161.102V164.112ZM957.661 171.755H954.403V165.87C954.403 164.229 953.817 163.409 952.645 163.409C952.079 163.409 951.614 163.626 951.249 164.06C950.883 164.495 950.7 165.046 950.7 165.715V171.755H947.432V161.164H950.7V162.84H950.742C951.521 161.551 952.655 160.906 954.144 160.906C956.489 160.906 957.661 162.361 957.661 165.27V171.755ZM969.856 167.39H962.947C963.058 168.928 964.026 169.697 965.854 169.697C967.019 169.697 968.043 169.421 968.925 168.869V171.227C967.946 171.751 966.674 172.013 965.109 172.013C963.399 172.013 962.072 171.541 961.127 170.596C960.183 169.645 959.71 168.321 959.71 166.625C959.71 164.867 960.221 163.474 961.241 162.447C962.261 161.42 963.516 160.906 965.006 160.906C966.55 160.906 967.743 161.364 968.584 162.281C969.432 163.198 969.856 164.443 969.856 166.015V167.39ZM966.826 165.384C966.826 163.867 966.212 163.109 964.985 163.109C964.461 163.109 964.006 163.326 963.62 163.76C963.24 164.195 963.009 164.736 962.927 165.384H966.826ZM981.969 161.164L977.666 172.603C976.632 175.354 975.074 176.729 972.992 176.729C972.199 176.729 971.547 176.64 971.037 176.46V173.854C971.471 174.109 971.944 174.237 972.454 174.237C973.295 174.237 973.881 173.84 974.212 173.048L974.77 171.734L970.468 161.164H974.088L976.063 167.608C976.187 168.007 976.284 168.48 976.353 169.024H976.394C976.456 168.625 976.57 168.159 976.735 167.628L978.731 161.164H981.969Z" fill="white"/>
</g>
</g>
<defs>
<filter id="filter0_d_933_3269" x="-7.06023" y="71.244" width="1088.88" height="259.302" filterUnits="userSpaceOnUse" color-interpolation-filters="sRGB">
<feFlood flood-opacity="0" result="BackgroundImageFix"/>
<feColorMatrix in="SourceAlpha" type="matrix" values="0 0 0 0 0 0 0 0 0 0 0 0 0 0 0 0 0 0 127 0" result="hardAlpha"/>
<feMorphology radius="10.9112" operator="dilate" in="SourceAlpha" result="effect1_dropShadow_933_3269"/>
<feOffset dx="19.2551" dy="38.5102"/>
<feGaussianBlur stdDeviation="25.6735"/>
<feComposite in2="hardAlpha" operator="out"/>
<feColorMatrix type="matrix" values="0 0 0 0 0.47451 0 0 0 0 0.407843 0 0 0 0 0.988235 0 0 0 0.14 0"/>
<feBlend mode="normal" in2="BackgroundImageFix" result="effect1_dropShadow_933_3269"/>
<feBlend mode="normal" in="SourceGraphic" in2="effect1_dropShadow_933_3269" result="shape"/>
</filter>
<linearGradient id="paint0_linear_933_3269" x1="3.37873" y1="2.1676" x2="3.37873" y2="8.92506" gradientUnits="userSpaceOnUse">
<stop stop-color="#FC8437"/>
<stop offset="0.0001" stop-color="#61BED9"/>
<stop offset="0.9999" stop-color="#7B61FF"/>
<stop offset="1" stop-color="#C4291C"/>
</linearGradient>
<linearGradient id="paint1_linear_933_3269" x1="3.37873" y1="12.6793" x2="3.37873" y2="19.4368" gradientUnits="userSpaceOnUse">
<stop stop-color="#FC8437"/>
<stop offset="0.0001" stop-color="#61BED9"/>
<stop offset="0.9999" stop-color="#7B61FF"/>
<stop offset="1" stop-color="#C4291C"/>
</linearGradient>
<linearGradient id="paint2_linear_933_3269" x1="11.6378" y1="2.1676" x2="11.6378" y2="8.92506" gradientUnits="userSpaceOnUse">
<stop stop-color="#FC8437"/>
<stop offset="0.0001" stop-color="#61BED9"/>
<stop offset="0.9999" stop-color="#7B61FF"/>
<stop offset="1" stop-color="#C4291C"/>
</linearGradient>
<linearGradient id="paint3_linear_933_3269" x1="11.6378" y1="12.6793" x2="11.6378" y2="19.4368" gradientUnits="userSpaceOnUse">
<stop stop-color="#FC8437"/>
<stop offset="0.0001" stop-color="#61BED9"/>
<stop offset="0.9999" stop-color="#7B61FF"/>
<stop offset="1" stop-color="#C4291C"/>
</linearGradient>
<linearGradient id="paint4_linear_933_3269" x1="19.8969" y1="2.1676" x2="19.8969" y2="8.92506" gradientUnits="userSpaceOnUse">
<stop stop-color="#FC8437"/>
<stop offset="0.0001" stop-color="#61BED9"/>
<stop offset="0.9999" stop-color="#7B61FF"/>
<stop offset="1" stop-color="#C4291C"/>
</linearGradient>
<linearGradient id="paint5_linear_933_3269" x1="19.8969" y1="12.6793" x2="19.8969" y2="19.4368" gradientUnits="userSpaceOnUse">
<stop stop-color="#FC8437"/>
<stop offset="0.0001" stop-color="#61BED9"/>
<stop offset="0.9999" stop-color="#7B61FF"/>
<stop offset="1" stop-color="#C4291C"/>
</linearGradient>
<linearGradient id="paint6_linear_933_3269" x1="28.1561" y1="2.1676" x2="28.1561" y2="8.92506" gradientUnits="userSpaceOnUse">
<stop stop-color="#FC8437"/>
<stop offset="0.0001" stop-color="#61BED9"/>
<stop offset="0.9999" stop-color="#7B61FF"/>
<stop offset="1" stop-color="#C4291C"/>
</linearGradient>
<linearGradient id="paint7_linear_933_3269" x1="28.1561" y1="12.6793" x2="28.1561" y2="19.4368" gradientUnits="userSpaceOnUse">
<stop stop-color="#FC8437"/>
<stop offset="0.0001" stop-color="#61BED9"/>
<stop offset="0.9999" stop-color="#7B61FF"/>
<stop offset="1" stop-color="#C4291C"/>
</linearGradient>
<linearGradient id="paint8_linear_933_3269" x1="36.4152" y1="2.1676" x2="36.4152" y2="8.92506" gradientUnits="userSpaceOnUse">
<stop stop-color="#FC8437"/>
<stop offset="0.0001" stop-color="#61BED9"/>
<stop offset="0.9999" stop-color="#7B61FF"/>
<stop offset="1" stop-color="#C4291C"/>
</linearGradient>
<linearGradient id="paint9_linear_933_3269" x1="36.4152" y1="12.6793" x2="36.4152" y2="19.4368" gradientUnits="userSpaceOnUse">
<stop stop-color="#FC8437"/>
<stop offset="0.0001" stop-color="#61BED9"/>
<stop offset="0.9999" stop-color="#7B61FF"/>
<stop offset="1" stop-color="#C4291C"/>
</linearGradient>
<clipPath id="clip0_933_3269">
<rect width="1034" height="275.99" fill="white"/>
</clipPath>
</defs>
</svg>
